<?xml version="1.0" standalone="no"?>
<!DOCTYPE svg PUBLIC "-//W3C//DTD SVG 1.1//EN" "http://www.w3.org/Graphics/SVG/1.1/DTD/svg11.dtd" >
<svg>
<metadata>
Created by FontForge 20090622 at Tue Feb 26 13:00:00 2019
 By deploy user
Copyright 2006 House Industries/Brand Design Co., Inc. All Rights Reserved.
</metadata>
<defs>
<font id="BurbankSmall-Bold" horiz-adv-x="650" >
  <font-face 
    font-family="Burbank Small Bold"
    font-weight="700"
    font-variant="small-caps"
    font-stretch="normal"
    units-per-em="1000"
    panose-1="0 0 0 0 0 0 0 0 0 0"
    ascent="750"
    descent="-250"
    x-height="506"
    cap-height="695"
    bbox="-57 -277 1192 963"
    underline-thickness="50"
    underline-position="-50"
    unicode-range="U+0020-U+FB04"
  />
<missing-glyph horiz-adv-x="260" 
 />
    <glyph glyph-name="ff" unicode="ff" horiz-adv-x="835" 
d="M380 369q-47 1 -131 1l2 -358q-63 1 -144 -1q-4 180 -4 359h-75q1 31 -1 115q27 -2 77 -3v11q2 101 46.5 151t141.5 50q52 0 114 -13q-4 -29 -7 -104q-39 7 -68 7q-43 0 -61 -19t-18 -66v-19q42 -1 129 -1zM800 389q-57 1 -141 1l2 -398q-63 1 -144 -1q-4 220 -4 399h-75
q1 31 -1 115q27 -2 77 -3v11q2 101 46.5 151t141.5 50q52 0 114 -13q-4 -29 -7 -104q-39 7 -68 7q-43 0 -61 -19t-18 -66v-19q42 -1 139 -1z" />
    <glyph glyph-name="fi" unicode="fi" horiz-adv-x="692" 
d="M380 379q-47 1 -131 1l2 -388q-63 1 -144 -1q-4 210 -4 389h-75q1 31 -1 115q27 -2 77 -3v21q2 101 46.5 151t141.5 50q42 0 104 -13q-4 -29 -7 -104q-39 7 -58 7q-43 0 -61 -19t-18 -66v-29q42 -1 129 -1zM483 11q1 104 -3 470q56 0 146 2q0 -200 4 -471q-63 1 -147 -1z
M555 533q-46 0 -74 27t-28 68q0 72 102 72q46 0 72.5 -22.5t26.5 -59.5q0 -41 -26 -63t-73 -22z" />
    <glyph glyph-name="fl" unicode="fl" horiz-adv-x="684" 
d="M622 15l-147 2l1 664l148 -2zM390 379q-57 1 -141 1l2 -388q-63 1 -144 -1q-4 210 -4 389h-75q1 31 -1 115q27 -2 77 -3v21q2 101 46.5 151t141.5 50q42 0 104 -13q-4 -29 -7 -104q-39 7 -58 7q-43 0 -61 -19t-18 -66v-29q42 -1 139 -1z" />
    <glyph glyph-name="ffi" unicode="ffi" horiz-adv-x="1107" 
d="M898 11q1 103 -3 469q56 0 146 2q0 -199 4 -470q-63 1 -147 -1zM970 532q-48 0 -75 22.5t-27 62.5q0 38 28 60t74 22t72.5 -22.5t26.5 -59.5q0 -41 -26 -63t-73 -22zM380 369q-47 1 -131 1l2 -358q-63 1 -144 -1q-4 180 -4 359h-75q1 31 -1 115q27 -2 77 -3v11
q2 101 46.5 151t141.5 50q52 0 114 -13q-4 -29 -7 -104q-39 7 -68 7q-43 0 -61 -19t-18 -66v-19q42 -1 129 -1zM800 389q-57 1 -141 1l2 -398q-63 1 -144 -1q-4 220 -4 399h-75q1 31 -1 115q27 -2 77 -3v11q2 101 46.5 151t141.5 50q41 0 104 -13q-4 -29 -7 -104
q-40 7 -58 7q-43 0 -61 -19t-18 -66v-19q42 -1 139 -1z" />
    <glyph glyph-name="ffl" unicode="ffl" horiz-adv-x="1099" 
d="M1037 15l-147 2l1 664l148 -2zM380 369q-47 1 -131 1l2 -358q-63 1 -144 -1q-4 180 -4 359h-75q1 31 -1 115q27 -2 77 -3v11q2 101 46.5 151t141.5 50q52 0 114 -13q-4 -29 -7 -104q-39 7 -68 7q-43 0 -61 -19t-18 -66v-19q42 -1 129 -1zM800 389q-57 1 -141 1l2 -398
q-63 1 -144 -1q-4 220 -4 399h-75q1 31 -1 115q27 -2 77 -3v11q2 101 46.5 151t141.5 50q52 0 114 -13q-4 -29 -7 -104q-39 7 -68 7q-43 0 -61 -19t-18 -66v-19q42 -1 139 -1z" />
    <glyph glyph-name=".notdef" horiz-adv-x="260" 
 />
    <glyph glyph-name=".null" horiz-adv-x="0" 
 />
    <glyph glyph-name="nonmarkingreturn" horiz-adv-x="333" 
 />
    <glyph glyph-name="space" unicode=" " horiz-adv-x="260" 
 />
    <glyph glyph-name="exclam" unicode="!" horiz-adv-x="332" 
d="M169 -12q-49 0 -77 26t-28 70q0 41 26.5 66.5t76.5 25.5q48 0 74.5 -27t26.5 -68q0 -42 -28.5 -67.5t-70.5 -25.5zM100 226q-5 188 -21 478l171 -1q-7 -196 -14 -476q-59 2 -136 -1z" />
    <glyph glyph-name="quotedbl" unicode="&#x22;" horiz-adv-x="391" 
d="M62 426q-4 110 -16 272q41 0 114 3q-4 -95 -5 -270q-33 0 -93 -5zM233 424q1 87 -4 287q38 -3 116 -3q-10 -110 -19 -286z" />
    <glyph glyph-name="numbersign" unicode="#" horiz-adv-x="622" 
d="M375 77q0 52 1 124l-132 -1q0 -9 3 -111q-46 3 -109 3q0 44 1 107q-66 -2 -102 -2q2 42 -1 106q41 -1 103 -1q0 97 -1 157q-31 0 -97 -2q2 41 -1 106q48 -1 97 -1q0 37 -2 109q44 -2 108 1q-1 -44 -1 -110l132 1q0 43 -2 123q47 -3 108 1q-1 -49 -1 -122q32 0 104 2
l-2 -104h-102q0 -42 2 -160q33 0 105 2q0 -5 -0.5 -13.5t-1.5 -36.5t1 -55q-46 1 -103 1q0 -40 2 -124q-41 2 -109 0zM242 461v-160q85 0 134 1q0 100 -1 161z" />
    <glyph glyph-name="dollar" unicode="$" horiz-adv-x="588" 
d="M365 -126l-139 1q2 24 3 47.5t2 42t1 23.5q-91 14 -146.5 68t-56.5 142q65 7 149 20q1 -63 33 -94t86 -31q44 0 73 22t29 55q0 31 -31.5 54t-132.5 49q-95 25 -144 71t-49 124q0 73 50 126t137 67l-6 108h145q-5 -65 -7 -111q86 -17 134 -72t51 -138q-61 -4 -146 -15
q-1 55 -30.5 88t-81.5 33q-43 0 -67.5 -23t-24.5 -58q0 -36 33.5 -58.5t125.5 -47.5q112 -29 155 -76t43 -114q0 -75 -53 -125t-137 -64z" />
    <glyph glyph-name="percent" unicode="%" horiz-adv-x="827" 
d="M199 294q-85 0 -127.5 53.5t-42.5 142.5q0 79 46 130.5t126 51.5q83 0 127 -50.5t44 -139.5q0 -92 -48.5 -140t-124.5 -48zM200 368q63 0 64 116q0 113 -63 113q-31 0 -48 -30.5t-17 -82.5q0 -116 64 -116zM231 -19l-71 9l429 668l74 -8zM625 -23q-82 0 -126 52.5
t-44 138.5q0 80 46 134t126 54q82 0 126.5 -52.5t44.5 -137.5q0 -93 -47.5 -141t-125.5 -48zM627 51q63 0 63 112q0 115 -65 115q-29 0 -45.5 -29.5t-16.5 -79.5q0 -118 64 -118z" />
    <glyph glyph-name="ampersand" unicode="&#x26;" horiz-adv-x="733" 
d="M291 -34q-114 0 -186.5 54t-72.5 147q0 68 36 110.5t101 74.5q-78 92 -78 173q0 91 62.5 142t167.5 51q91 0 149 -49t58 -124q0 -41 -14 -74t-41.5 -58.5t-53 -41t-64.5 -35.5q54 -45 146 -104q20 56 29 126l124 -33q-13 -91 -44 -160l117 -67q-23 -30 -66 -99l-115 68
q-94 -101 -255 -101zM246 276q-58 -41 -58 -96q0 -48 34.5 -77.5t88.5 -29.5q75 0 130 60q-119 76 -195 143zM398 535q0 35 -22 58t-60 23t-62 -25.5t-24 -67.5q0 -57 54 -119q55 26 84.5 56t29.5 75z" />
    <glyph glyph-name="quotesingle" unicode="'" horiz-adv-x="207" 
d="M51 430q2 77 -5 276l115 -3q-8 -100 -16 -274z" />
    <glyph glyph-name="parenleft" unicode="(" horiz-adv-x="332" 
d="M176 -144q-123 209 -123 446q0 282 131 462l123 -46q-100 -175 -100 -411q0 -195 102 -406z" />
    <glyph glyph-name="parenright" unicode=")" horiz-adv-x="332" 
d="M157 -149q-57 23 -134 45q102 215 102 412q0 233 -99 412l125 48q128 -179 128 -461q0 -234 -122 -456z" />
    <glyph glyph-name="asterisk" unicode="*" horiz-adv-x="410" 
d="M151 325l-92 43q51 78 79 126l-110 12l17 93q64 -19 116 -31l-14 131l112 4l-14 -135l120 30l17 -95l-104 -10l78 -123q-25 -9 -48.5 -19t-33.5 -15l-11 -6l-55 128z" />
    <glyph glyph-name="plus" unicode="+" horiz-adv-x="512" 
d="M193 101q2 112 2 170l-153 -1l-1 120q3 0 155 -3l-1 166l121 -2q-2 -118 -2 -164l157 1l-3 -118q-50 1 -154 1l2 -169z" />
    <glyph glyph-name="comma" unicode="," horiz-adv-x="274" 
d="M94 -167l-64 57q52 45 78 106q-29 7 -47 32t-18 57q0 41 27 69.5t69 28.5q44 0 72.5 -30t28.5 -82q0 -120 -146 -238z" />
    <glyph glyph-name="hyphen" unicode="-" horiz-adv-x="369" 
d="M31 271l-2 127l311 -3l-2 -124h-307z" />
    <glyph glyph-name="period" unicode="." horiz-adv-x="279" 
d="M139 -12q-45 0 -71 27.5t-26 71.5t27 70.5t70 26.5t70.5 -27.5t26.5 -67.5q0 -48 -26 -74.5t-71 -26.5z" />
    <glyph glyph-name="slash" unicode="/" horiz-adv-x="452" 
d="M20 -117l273 853h139l-273 -853h-139z" />
    <glyph glyph-name="zero" unicode="0" horiz-adv-x="659" 
d="M329 -24q-129 0 -208.5 91.5t-79.5 260.5q0 163 78 252.5t210 89.5q138 0 213.5 -87t75.5 -251q0 -167 -77 -261.5t-212 -94.5zM332 100q60 0 94.5 57t34.5 177q0 101 -34 159t-96 58q-66 0 -99.5 -57.5t-33.5 -162.5q0 -231 134 -231z" />
    <glyph glyph-name="one" unicode="1" horiz-adv-x="408" 
d="M168 -3q4 331 1 492l-114 -60l-43 124l206 108l94 -10q0 -149 2 -312t4 -252l1 -89z" />
    <glyph glyph-name="two" unicode="2" horiz-adv-x="590" 
d="M547 -2l-504 7l-4 145q189 85 274 160t85 157q0 42 -25.5 69t-66.5 27q-113 0 -117 -168q-63 10 -155 18q10 133 81 198t193 65q114 0 182.5 -55.5t68.5 -148.5q0 -221 -352 -347q86 0 171 1.5t127 3.5l42 2v-134z" />
    <glyph glyph-name="three" unicode="3" horiz-adv-x="614" 
d="M311 -24q-124 0 -200 54.5t-88 166.5q59 5 164 22q4 -129 127 -129q50 0 80.5 25.5t30.5 71.5q0 58 -66 79q-55 17 -144 11q0 46 -3 105q101 -6 153 14q26 9 40.5 29.5t14.5 48.5q0 46 -30 71t-80 25q-102 0 -114 -122l-158 27q37 204 276 204q115 0 187.5 -54t72.5 -137
q0 -60 -36.5 -99.5t-105.5 -52.5q74 -15 113 -57.5t39 -103.5q0 -91 -75.5 -145t-197.5 -54z" />
    <glyph glyph-name="four" unicode="4" horiz-adv-x="612" 
d="M373 -1l1 127q-55 0 -181.5 -1.5t-168.5 -1.5q-1 33 -2 123l278 424l218 -5q-2 -356 -2 -425q48 0 72 1q-1 -40 -1 -114h-70l1 -127zM376 573l-210 -334h209q1 193 1 334z" />
    <glyph glyph-name="five" unicode="5" horiz-adv-x="615" 
d="M316 -21q-114 0 -186.5 49.5t-91.5 141.5q43 5 84 11t60 10l19 4q17 -105 116 -105q50 0 80.5 34t30.5 96q0 57 -28 91t-81 34q-75 0 -112 -78q-66 6 -152 11q7 166 9 381q211 0 486 6q-2 -36 -2 -118q-162 1 -344 -4q-4 -142 -4 -168q61 69 169 69q107 0 163 -62
t57 -164q0 -113 -74 -176t-199 -63z" />
    <glyph glyph-name="six" unicode="6" horiz-adv-x="634" 
d="M329 -25q-138 0 -213 88.5t-75 256.5q0 167 75.5 261t217.5 94q214 0 248 -189q-46 -4 -86.5 -8.5t-57.5 -7.5l-18 -2q-9 48 -30 70t-59 22q-62 0 -96 -58.5t-34 -173.5v-4q33 42 83.5 66t107.5 24q104 0 158.5 -56.5t54.5 -141.5q0 -117 -77 -179t-199 -62zM344 313
q-38 0 -73.5 -23.5t-61.5 -62.5q27 -136 128 -136q50 0 78 32t28 85q1 48 -25.5 76.5t-73.5 28.5z" />
    <glyph glyph-name="seven" unicode="7" horiz-adv-x="536" 
d="M156 -8q-10 339 209 539l-346 -5l1 133l497 6l2 -147q-110 -104 -157.5 -225.5t-43.5 -304.5z" />
    <glyph glyph-name="eight" unicode="8" horiz-adv-x="635" 
d="M325 -24q-145 0 -219.5 52.5t-74.5 147.5q0 58 36.5 100t103.5 60q-57 23 -88.5 65.5t-31.5 96.5q0 79 68.5 129t199.5 50t200.5 -50t69.5 -129q0 -116 -127 -159q67 -20 104 -62.5t38 -100.5q0 -99 -79 -149.5t-200 -50.5zM320 84q54 0 87.5 25t33.5 68q0 45 -37 76.5
t-97 41.5q-55 -12 -85.5 -42t-30.5 -71q0 -45 34.5 -71.5t94.5 -26.5zM334 377q44 11 71 39.5t27 67.5q0 41 -30 64.5t-84 23.5q-55 0 -84.5 -23t-29.5 -63q0 -39 33.5 -67.5t96.5 -41.5z" />
    <glyph glyph-name="nine" unicode="9" horiz-adv-x="624" 
d="M302 -22q-106 0 -178 52t-91 160l157 19q9 -59 36.5 -85t75.5 -26q60 0 92 51t34 172q-62 -70 -174 -70q-105 0 -164 55t-59 147q0 104 74 164.5t195 60.5q133 0 208 -88t75 -258q0 -180 -74.5 -267t-206.5 -87zM298 343q34 0 68.5 20t56.5 51q-18 150 -121 150
q-52 0 -81.5 -31t-29.5 -84q0 -51 28 -78.5t79 -27.5z" />
    <glyph glyph-name="colon" unicode=":" horiz-adv-x="291" 
d="M145 -16q-41 0 -67.5 27t-26.5 70t26.5 70.5t69.5 27.5q45 0 70 -28t25 -70q0 -47 -26.5 -72t-70.5 -25zM144 285q-43 0 -69 28t-26 73q0 41 26.5 67.5t69.5 26.5t69 -27t26 -67q0 -49 -27.5 -75t-68.5 -26z" />
    <glyph glyph-name="semicolon" unicode=";" horiz-adv-x="293" 
d="M101 -167q-16 15 -32.5 28l-24.5 19l-9 5q50 46 81 110q-29 5 -48 28t-19 57q0 43 25 72t69 29q46 0 73.5 -31.5t27.5 -80.5q0 -61 -42 -125.5t-101 -110.5zM143 286q-40 0 -66.5 26.5t-26.5 72.5q0 43 26.5 69t68.5 26q41 0 67 -27t26 -68q0 -46 -26 -72.5t-69 -26.5z
" />
    <glyph glyph-name="less" unicode="&#x3c;" horiz-adv-x="501" 
d="M455 189l-3 -132l-413 199l2 134l410 201q-4 -53 -4 -137l-297 -130q179 -83 305 -135z" />
    <glyph glyph-name="equal" unicode="=" horiz-adv-x="485" 
d="M51 176q0 23 -3 106q171 -1 389 2l-1 -108q-163 2 -385 0zM437 373l-389 2l3 108h385z" />
    <glyph glyph-name="greater" unicode="&#x3e;" horiz-adv-x="497" 
d="M47 56l-1 131q125 52 305 136l-297 131q1 89 -3 137l405 -200l2 -130z" />
    <glyph glyph-name="question" unicode="?" horiz-adv-x="627" 
d="M212 213l-3 167q114 -7 163 20.5t49 90.5q0 48 -28 77t-79 29q-100 0 -120 -126q-66 11 -163 21q18 104 90.5 163t190.5 59q127 0 200.5 -58t73.5 -151q0 -98 -58.5 -150.5t-161.5 -61.5l-1 -78zM295 -20q-53 0 -79.5 26t-26.5 69q0 42 28.5 67t75.5 25q49 0 75.5 -25.5
t26.5 -70.5q0 -42 -27.5 -66.5t-72.5 -24.5z" />
    <glyph glyph-name="at" unicode="@" horiz-adv-x="1032" 
d="M487 -205q-210 0 -327 117t-117 317q0 132 59.5 241t173.5 174.5t260 65.5q110 0 198.5 -33.5t143 -90t83 -127.5t28.5 -149q0 -151 -73 -241t-176 -90q-63 0 -100.5 32t-44.5 95q-31 -61 -78.5 -93t-103.5 -32q-78 0 -125.5 55t-47.5 157q0 70 26 142.5t75 121.5
q70 70 155 70q57 0 95 -39t47 -100q5 27 17 108l125 -1q-34 -149 -64 -319q-5 -30 -5 -47q0 -66 52 -66q55 0 99.5 67t44.5 173q0 155 -103 244t-272 89q-189 0 -298 -116.5t-109 -293.5q0 -166 96 -261.5t270 -95.5q111 0 237 50l26 -74q-141 -50 -267 -50zM457 83
q29 0 60 29q34 32 54.5 85t20.5 105q0 50 -19.5 84t-53.5 34q-32 0 -62 -30q-32 -32 -52.5 -88.5t-20.5 -114.5q0 -48 20 -76t53 -28z" />
    <glyph glyph-name="A" unicode="A" 
d="M20 15l187 685l228 3l195 -722q-81 1 -158 -2l-37 152q-86 2 -236 2l-27 -120q-76 2 -152 2zM316 621l-92 -377q38 -1 184 -1z" />
    <glyph glyph-name="B" unicode="B" horiz-adv-x="646" 
d="M69 -1q-1 330 -8 695q131 20 222 20q298 0 298 -194q0 -62 -36 -105.5t-104 -58.5q87 -13 131 -56.5t44 -111.5q0 -208 -333 -206q-104 2 -214 17zM214 97q46 -6 85 -6q153 0 153 103q0 49 -42.5 74.5t-142.5 25.5q-35 0 -56 -2q0 -47 1 -91.5t1.5 -70.5t0.5 -33z
M210 598q0 -136 1 -194q15 -1 43 -1q93 0 134.5 25t41.5 78q0 99 -143 99q-28 0 -77 -7z" />
    <glyph glyph-name="C" unicode="C" horiz-adv-x="672" 
d="M348 -18q-147 0 -225 94.5t-78 270.5q0 173 79 269t225 96q120 0 188.5 -67.5t87.5 -184.5q-50 -5 -91.5 -10.5t-57.5 -8.5l-16 -3q-16 151 -115 151q-68 0 -102.5 -63t-33.5 -177q0 -114 34 -178t104 -64q56 0 87 40.5t38 129.5l167 -15q-13 -140 -88.5 -210t-202.5 -70
z" />
    <glyph glyph-name="D" unicode="D" horiz-adv-x="665" 
d="M217 111q10 -1 29 -1q106 0 159 53.5t53 184.5q0 112 -50 172t-151 60q-22 0 -46 -3zM61 -1v689q87 14 170 14q197 1 293.5 -91t96.5 -266q0 -180 -100 -267.5t-304 -88.5q-75 0 -156 10z" />
    <glyph glyph-name="E" unicode="E" horiz-adv-x="565" 
d="M69 4q-1 286 -8 689l456 7q0 -42 2 -123q-132 -1 -306 -5q0 -68 1 -181q172 0 260 2q-1 -41 1 -120l-259 1q2 -104 4 -151q128 -3 305 -5q-1 -42 -1 -123q-225 7 -455 9z" />
    <glyph glyph-name="F" unicode="F" horiz-adv-x="540" 
d="M69 2q-1 290 -8 692q223 2 445 5q1 -50 2 -132q-154 -1 -294 -4q0 -66 1 -206q150 0 249 2q-1 -48 1 -131l-248 1l4 -226z" />
    <glyph glyph-name="G" unicode="G" horiz-adv-x="687" 
d="M352 -23q-144 0 -225.5 93t-81.5 278q0 167 80 266.5t228 99.5q115 0 184 -61.5t89 -172.5q-65 -6 -155 -21q-9 62 -40 98t-81 36q-71 0 -108.5 -64t-37.5 -179q0 -255 164 -255q60 0 95.5 39.5t38.5 120.5q-65 4 -179 3q1 39 -1 116l316 -1q21 -191 -55.5 -293.5
t-230.5 -102.5z" />
    <glyph glyph-name="H" unicode="H" horiz-adv-x="642" 
d="M429 -19v244q-50 2 -214 -1l3 -206q-76 1 -153 -1q1 261 -4 660q63 0 150 1q1 -130 3 -323q5 0 39 -0.5t71 -0.5h104q0 61 -1.5 192t-1.5 168q67 -1 153 1q0 -327 3 -735z" />
    <glyph glyph-name="I" unicode="I" horiz-adv-x="300" 
d="M75 -1q0 307 -4 695q55 0 153 1q1 -335 5 -696q-67 1 -154 0z" />
    <glyph glyph-name="J" unicode="J" horiz-adv-x="576" 
d="M284 -15q-140 0 -199.5 86t-46.5 265q59 -4 156 -6q-9 -114 13.5 -163.5t73.5 -49.5q44 0 65.5 40t21.5 136q0 104 -2 206t-4 152l-1 50q62 0 165 5q-2 -149 -2 -412q0 -309 -240 -309z" />
    <glyph glyph-name="K" unicode="K" horiz-adv-x="640" 
d="M454 -24q-108 202 -159 289l-83 -122l2 -129l-153 -1v666l151 -1q-2 -268 -1 -356l237 389l169 -7q-143 -217 -211 -332l216 -387z" />
    <glyph glyph-name="L" unicode="L" horiz-adv-x="522" 
d="M67 3q-1 324 -6 686q47 -2 152 0q-1 -143 4 -553l280 -4l-1 -134z" />
    <glyph glyph-name="M" unicode="M" horiz-adv-x="927" 
d="M57 18q13 264 25 658q108 0 218 4l158 -497q93 283 159 532q110 -2 221 -7q11 -311 33 -724l-156 -4q1 274 -8 623q-100 -303 -175 -567q-78 2 -155 -1l-176 541q0 -22 -0.5 -126t-0.5 -218t1 -217q-69 2 -144 3z" />
    <glyph glyph-name="N" unicode="N" horiz-adv-x="667" 
d="M64 18q2 248 -3 654q82 5 164 8q110 -235 250 -500q-6 247 -19 534q60 -1 139 -1q2 -279 12 -723q-72 -5 -159 -10l-258 502q8 -321 13 -466q-61 2 -139 2z" />
    <glyph glyph-name="O" unicode="O" horiz-adv-x="702" 
d="M351 -21q-143 1 -224 95.5t-81 266.5q-2 172 80.5 271.5t226.5 99.5q146 0 225 -98t79 -271q0 -180 -82 -272t-224 -92zM351 100q65 0 103 59.5t38 185.5q0 123 -36.5 184.5t-103.5 61.5q-69 0 -105.5 -63t-36.5 -184q-1 -119 36 -181.5t105 -62.5z" />
    <glyph glyph-name="P" unicode="P" horiz-adv-x="601" 
d="M63 6q3 257 -1 675q84 12 159 12q168 0 261.5 -59.5t93.5 -181.5q0 -127 -88 -188.5t-241 -61.5l-32 1l4 -196q-84 1 -156 -1zM212 570q0 -149 1 -252q12 -1 36 -1q176 0 176 135q0 55 -40.5 88t-121.5 33q-24 0 -51 -3z" />
    <glyph glyph-name="Q" unicode="Q" horiz-adv-x="701" 
d="M526 -166l-93 156q-43 -10 -84 -10q-140 0 -222 93.5t-82 263.5q0 183 84 278t221 95q153 0 229.5 -96t76.5 -280q0 -190 -105 -284l110 -130zM352 99q140 0 140 242q0 249 -143 249q-66 0 -103 -65.5t-37 -184.5q0 -121 37.5 -181t105.5 -60z" />
    <glyph glyph-name="R" unicode="R" horiz-adv-x="631" 
d="M461 -26l-143 281q-41 -4 -108 -2l4 -240q-81 1 -151 -1q2 252 -2 672q108 23 204 23q158 1 243 -58.5t85 -169.5q0 -145 -137 -196l158 -288zM210 365q32 -4 68 -4q163 0 163 112q0 53 -38 83.5t-115 30.5q-39 0 -81 -7z" />
    <glyph glyph-name="S" unicode="S" horiz-adv-x="626" 
d="M309 -19q-122 2 -195 62.5t-84 182.5q57 1 165 13q1 -69 33 -106t88 -38q47 -1 77 20t30 61q0 39 -35 65.5t-137 55.5q-100 28 -149.5 78t-49.5 135q0 91 71 147t188 56q119 0 189 -61.5t80 -176.5q-69 -3 -155 -11q2 62 -27 98t-84 36q-48 0 -75.5 -22t-27.5 -58
q0 -41 34.5 -68.5t123.5 -51.5q124 -33 170.5 -83.5t46.5 -126.5q0 -97 -75.5 -153t-201.5 -54z" />
    <glyph glyph-name="T" unicode="T" horiz-adv-x="567" 
d="M27 562q0 53 -1 134q285 0 515 3l-1 -136h-179q0 -270 4 -569q-68 0 -155 -1q1 225 -2 570z" />
    <glyph glyph-name="U" unicode="U" 
d="M330 -14q-145 0 -210 83.5t-65 263.5l-1 340q56 -5 156 -7q-2 -194 -2 -294q0 -141 28 -198t90 -57q61 0 87.5 52t26.5 187l-6 347q59 -3 162 2q-1 -214 -1 -364q0 -182 -65.5 -268.5t-199.5 -86.5z" />
    <glyph glyph-name="V" unicode="V" horiz-adv-x="629" 
d="M199 -17l-179 686l161 2q52 -254 133 -580l141 611l154 -2l-183 -721q-110 1 -227 4z" />
    <glyph glyph-name="W" unicode="W" horiz-adv-x="915" 
d="M567 -14q-63 350 -110 575l-120 -554l-218 8l-29 229l-25.5 190.5t-19.5 138l-13.5 91t-4.5 31.5l146 3q31 -301 66 -579l125 550l186 -2q81 -387 125 -576l74 624l143 -3l-61.5 -423.5t-32.5 -236.5l-7 -58z" />
    <glyph glyph-name="X" unicode="X" horiz-adv-x="655" 
d="M199 5l-178 4q119 206 186 334l-171 341q84 1 170 6l117 -265l74 159.5t45 101.5l12 29l169 -5l-184 -361l105.5 -201t69.5 -125l20 -35l-176 -7q-81 179 -135 286l-66 -133.5t-45 -97.5z" />
    <glyph glyph-name="Y" unicode="Y" horiz-adv-x="635" 
d="M230 -11q0 7 -0.5 40.5t-1.5 81.5t-3 91l-216 480q45 1 168 7l127 -332q49 108 141 349q50 -2 165 -3l-230 -500q-1 -76 3 -213q-45 0 -153 -1z" />
    <glyph glyph-name="Z" unicode="Z" horiz-adv-x="569" 
d="M523 -3l-480 6l1 123l305 437l-299 -6l-1 137l471 6l2 -132l-305 -434l308 -2z" />
    <glyph glyph-name="bracketleft" unicode="[" horiz-adv-x="359" 
d="M325 -125l-253 2q2 279 -4 869q103 -1 252 2q0 -48 2 -111q-48 0 -100 -3q-3 -377 1 -638q48 -2 105 -2q-2 -47 -3 -119z" />
    <glyph glyph-name="backslash" unicode="\" horiz-adv-x="452" 
d="M432 -116q-59 2 -139 0l-273 854q54 -3 138 0z" />
    <glyph glyph-name="bracketright" unicode="]" horiz-adv-x="358" 
d="M36 -125l-4 118q24 0 49.5 0.5t41 1t16.5 0.5q5 411 -2 647q-33 1 -66 1.5t-34 -0.5l1 113q142 -2 251 -2q-5 -551 -1 -876h-67.5t-66.5 -0.5t-57.5 -1t-42 -1t-18.5 -0.5z" />
    <glyph glyph-name="asciicircum" unicode="^" horiz-adv-x="518" 
d="M485 286q-4 1 -12 1.5t-40 1.5t-75 0q-33 112 -100 301q-46 -131 -100 -309q-41 5 -125 5l152 407l148 -1z" />
    <glyph glyph-name="underscore" unicode="_" horiz-adv-x="468" 
d="M17 -110v64.5t-1 37.5v15q186 -5 439 -2q-1 -45 -1 -116q-67 1 -437 1z" />
    <glyph glyph-name="grave" unicode="`" horiz-adv-x="596" 
d="M315 545l-146 153l86 65l129 -168z" />
    <glyph glyph-name="a" unicode="a" horiz-adv-x="557" 
d="M211 -17q-77 0 -126.5 39t-49.5 108q0 88 78.5 134t241.5 55v6q-4 98 -80 98q-70 0 -89 -83q-59 16 -133 28q54 151 228 151q218 0 223 -219q2 -72 2.5 -151t-0.5 -121l-1 -43q-47 0 -123 -2q3 40 4 102q-22 -49 -69 -75.5t-106 -26.5zM362 221v21q-179 -10 -179 -94
q0 -67 73 -69q47 0 76.5 34.5t29.5 107.5z" />
    <glyph glyph-name="b" unicode="b" horiz-adv-x="599" 
d="M57 -17q2 158 -2 698l150 -1q-4 -110 -6 -263q24 47 65 73t92 26q93 0 146.5 -72t53.5 -193q0 -126 -59.5 -195t-158.5 -69q-120 0 -165 107l4 -111q-61 1 -120 0zM303 78q47 0 73.5 45t26.5 132q0 73 -25 118.5t-73 45.5q-46 0 -76.5 -46t-30.5 -124q0 -79 29 -125
t76 -46z" />
    <glyph glyph-name="c" unicode="c" horiz-adv-x="563" 
d="M292 -18q-121 0 -185 71t-64 199q0 120 65 193t180 73q99 0 157 -49.5t78 -134.5l-153 -18q-16 97 -83 97q-44 0 -69 -43.5t-25 -120.5q0 -76 25 -117t70 -41q33 0 53.5 22.5t31.5 72.5q48 -8 152 -21q-20 -92 -81.5 -137.5t-151.5 -45.5z" />
    <glyph glyph-name="d" unicode="d" horiz-adv-x="600" 
d="M544 -10l-123 1q3 41 5 110q-22 -56 -68 -85.5t-103 -29.5q-97 0 -154.5 70t-57.5 194q0 121 56 194t153 73t148 -90q-3 179 -6 260q30 -1 151 1zM297 81q47 0 76.5 42.5t29.5 123.5q-2 79 -30 125.5t-79 46.5q-46 0 -71.5 -46.5t-25.5 -122.5q0 -81 26 -125t74 -44z" />
    <glyph glyph-name="e" unicode="e" horiz-adv-x="581" 
d="M298 -19q-120 0 -187.5 72.5t-67.5 193.5q0 116 67 193.5t187 77.5q132 -1 191.5 -83t40.5 -210q-110 -1 -333 -6q11 -136 107 -136q75 0 105 85q44 -15 133 -36q-75 -151 -243 -151zM298 429q-41 0 -66.5 -33.5t-33.5 -95.5l191 8q-3 121 -91 121z" />
    <glyph glyph-name="f" unicode="f" horiz-adv-x="425" 
d="M390 379q-57 1 -141 1l2 -378q-63 1 -144 -1q-4 200 -4 379h-75q1 31 -1 115q27 -2 77 -3v11q2 101 46.5 151t141.5 50q52 0 114 -13q-4 -29 -7 -104q-39 7 -68 7q-43 0 -61 -19t-18 -66v-19q42 -1 139 -1z" />
    <glyph glyph-name="g" unicode="g" horiz-adv-x="552" 
d="M253 -277q-109 0 -172 36t-63 95q0 38 28 69.5t84 49.5q-51 27 -51 78q0 61 85 93q-63 23 -97.5 70.5t-33.5 113.5q0 88 67 142.5t169 54.5q49 0 94 -13l45 137q47 -27 122 -63l-94 -112q72 -57 72 -150q0 -95 -68 -146t-164 -51l-39 2q-25 -14 -25 -31q0 -8 6.5 -13.5
t28.5 -11t62 -8.5q123 -9 173 -47t50 -107q0 -86 -77.5 -137t-201.5 -51zM270 217q44 0 70.5 27t26.5 81q0 44 -25.5 73t-71.5 29t-72.5 -28t-26.5 -74q0 -49 26.5 -78.5t72.5 -29.5zM393 -115q0 31 -44.5 44t-149.5 17q-37 -30 -37 -68q0 -29 27 -47t79 -18q57 0 91 21.5
t34 50.5z" />
    <glyph glyph-name="h" unicode="h" horiz-adv-x="570" 
d="M56 18q4 285 0 660q51 0 146 1l-1 -277q22 53 64 84t96 31q74 0 113.5 -47t41.5 -133q3 -79 3.5 -168t-0.5 -139l-1 -49q-59 1 -145 1q3 150 0 312q-1 49 -16.5 73.5t-50.5 24.5q-46 0 -73 -42.5t-28 -102.5l-1 -228q-59 1 -148 -1z" />
    <glyph glyph-name="i" unicode="i" horiz-adv-x="277" 
d="M68 1q1 133 -3 499q56 0 146 2q0 -229 4 -500q-63 1 -147 -1zM140 552q-48 0 -75 22.5t-27 62.5q0 38 28 60t74 22t72.5 -22.5t26.5 -59.5q0 -41 -26 -63t-73 -22z" />
    <glyph glyph-name="j" unicode="j" horiz-adv-x="275" 
d="M139 552q-49 0 -75.5 24.5t-26.5 60.5q0 37 27 60t73 23q45 0 72.5 -23.5t27.5 -58.5q0 -40 -27.5 -63t-70.5 -23zM-57 -217q4 42 4 123q32 -4 43 -4q39 0 57.5 19t19.5 62q1 113 0.5 228t-1.5 201l-1 87l143 1q1 -25 2 -69t2.5 -187t-0.5 -275q-1 -191 -198 -191
q-40 0 -71 5z" />
    <glyph glyph-name="k" unicode="k" horiz-adv-x="552" 
d="M381 -22l-116 231q-44 -57 -63 -85l2 -108l-148 2q2 213 2 378.5t-1 223.5l-1 59l147 -1q-1 -199 -1 -415l87.5 140.5l54.5 90.5l15 27l171 -6l-160 -214l169 -316z" />
    <glyph glyph-name="l" unicode="l" horiz-adv-x="269" 
d="M207 5l-147 2l1 684l148 -2q-2 -242 -2.5 -413t-0.5 -221z" />
    <glyph glyph-name="m" unicode="m" horiz-adv-x="868" 
d="M58 17q1 195 -3 473q52 -1 119 -1q-2 -51 -2 -113q26 65 72.5 102.5t104.5 37.5q121 0 145 -134q23 55 68 85t97 30q149 0 156 -184q2 -65 2 -148t-1 -133v-50q-57 1 -145 0q3 159 -2 295q-3 96 -65 96q-43 0 -68 -38.5t-27 -97.5l1 -205h-148q1 15 1.5 40t1.5 99.5
t-1 127.5q-3 92 -62 92q-39 0 -68 -41.5t-30 -105.5q-1 -55 -1 -105.5t1 -86.5l1 -35h-147z" />
    <glyph glyph-name="n" unicode="n" horiz-adv-x="568" 
d="M370 -20l2 314q-1 48 -16 72.5t-52 24.5q-44 0 -71.5 -40t-28.5 -99l-1 -235q-82 2 -148 0l1 471q63 -1 118 1l-1 -114q27 69 74.5 105.5t108.5 35.5q152 -1 159 -182l2 -353z" />
    <glyph glyph-name="o" unicode="o" horiz-adv-x="596" 
d="M296 -15q-120 0 -186.5 71t-66.5 201q0 120 69.5 190.5t184.5 70.5q119 0 187.5 -71.5t68.5 -193.5q0 -132 -71 -200t-186 -68zM298 84q102 0 102 170q0 78 -25.5 121t-75.5 43q-48 0 -76 -41.5t-28 -118.5q0 -174 103 -174z" />
    <glyph glyph-name="p" unicode="p" horiz-adv-x="605" 
d="M55 -210v708l125 1q-1 -27 -1 -94q26 53 73 83t99 30q98 0 154 -76.5t56 -190.5q1 -124 -57 -195t-155 -71q-102 0 -150 83l10 -277zM311 79q97 0 97 172q0 76 -26 123t-72 47q-50 0 -79 -48t-29 -123q0 -80 29 -125.5t80 -45.5z" />
    <glyph glyph-name="q" unicode="q" horiz-adv-x="603" 
d="M395 -213q6 152 9 292q-20 -46 -60.5 -70.5t-89.5 -24.5q-99 0 -155 72.5t-56 195.5q0 120 59 194.5t152 74.5q58 0 103.5 -31.5t68.5 -83.5l-4 108h126v-726zM294 79q48 0 78.5 46t30.5 125q-1 72 -29 121.5t-79 49.5q-45 0 -72 -47.5t-27 -120.5q0 -80 25.5 -127
t72.5 -47z" />
    <glyph glyph-name="r" unicode="r" horiz-adv-x="404" 
d="M56 0q1 245 -1 491q43 -1 122 1q-2 -55 -2 -118q25 67 79.5 104t125.5 34q-2 -51 -3 -137q-94 -7 -133.5 -52t-41.5 -145l2 -177q-52 0 -148 -1z" />
    <glyph glyph-name="s" unicode="s" horiz-adv-x="528" 
d="M270 -24q-99 0 -165.5 42.5t-83.5 134.5q61 6 143 20q19 -94 107 -96q36 0 58 14.5t22 39.5t-25 41t-99 32q-92 20 -136 58t-44 106q0 70 60 113t154 43q190 0 232 -168q-58 -7 -130 -21q-9 39 -34.5 63t-66.5 24q-32 0 -52 -14t-20 -39q0 -27 27 -43t97 -32
q102 -23 141 -59.5t39 -95.5q0 -78 -63 -120.5t-161 -42.5z" />
    <glyph glyph-name="t" unicode="t" horiz-adv-x="442" 
d="M407 21q-83 -25 -137 -25q-172 0 -175 190q-2 69 -2 207h-73l-1 116l75 -2l2 135l144 -1q-2 -56 -3 -135h162l-1 -115q-116 2 -162 2q0 -96 3 -186q3 -85 71 -85q33 0 84 16z" />
    <glyph glyph-name="u" unicode="u" horiz-adv-x="565" 
d="M227 -3q-176 0 -176 236l-1 260q49 -3 147 -4q-4 -110 -4 -265q0 -108 78 -108q40 0 65.5 37.5t27.5 103.5t2 124.5t-2 98.5l-1 40q36 -2 146 -2q-2 -217 1 -529l-123 1q2 48 2 113q-22 -50 -64.5 -78t-97.5 -28z" />
    <glyph glyph-name="v" unicode="v" horiz-adv-x="527" 
d="M364 5h-193l-156 486l152 7l99 -402l53 217.5t35 154.5l11 49l147 -4z" />
    <glyph glyph-name="w" unicode="w" horiz-adv-x="775" 
d="M472 -8l-87 366l-45 -190.5l-28 -125.5l-7 -37l-188 2l-100 496l140 4l63 -400l96 395h136q48 -196 104 -398l66 421l136 -3q-33 -155 -58.5 -287l-35.5 -186l-9 -54z" />
    <glyph glyph-name="x" unicode="x" horiz-adv-x="578" 
d="M23 3q107 168 155 252l-151 250l162 2q61 -124 98 -190l109 205l154 -7l-158 -257l163 -274l-160 -3l-111 208l-54 -100.5t-33 -66.5l-9 -19h-165z" />
    <glyph glyph-name="y" unicode="y" horiz-adv-x="534" 
d="M295 -235l-141 22q36 115 49 166l-188 531l158 8l100 -377l51 207t34 152l11 50l150 -8z" />
    <glyph glyph-name="z" unicode="z" horiz-adv-x="505" 
d="M460 -2q-141 4 -245 6t-138 2h-34l2 96l240 288q-81 -1 -139.5 -2.5t-75.5 -3.5l-18 -1l-2 118l406 5l2 -100l-135 -159t-83 -103l-22 -29l244 1z" />
    <glyph glyph-name="braceleft" unicode="{" horiz-adv-x="408" 
d="M380 -120q-48 -12 -100 -12q-80 0 -115 36.5t-35 118.5l5 133q0 58 -24 81.5t-90 20.5q2 60 2 130q64 -4 88.5 13t24.5 64q0 22 -5 77t-5 81q0 133 146 133q50 0 100 -12l2 -111q-57 8 -78 -7t-21 -56q0 -18 3.5 -62.5t3.5 -65.5q0 -95 -97 -120q93 -26 93 -134l-5 -113
q0 -55 20.5 -71.5t83.5 -10.5z" />
    <glyph glyph-name="bar" unicode="|" horiz-adv-x="318" 
d="M95 -120q2 439 -3 860l133 -2q-3 -362 0 -856q-44 2 -130 -2z" />
    <glyph glyph-name="braceright" unicode="}" horiz-adv-x="408" 
d="M28 -125q3 32 3 110q61 -8 84 7.5t23 64.5q0 20 -4 66t-4 70q0 103 97 127q-52 12 -76 42.5t-24 82.5q0 23 4 66t4 61q0 40 -22.5 53.5t-78.5 8.5l3 111q42 11 93 11q81 0 116.5 -32.5t35.5 -100.5q0 -26 -5 -79t-5 -75q0 -49 25 -67.5t88 -14.5l2 -127
q-62 4 -88.5 -19.5t-26.5 -75.5q0 -24 4.5 -78.5t4.5 -80.5q0 -75 -36 -109.5t-114 -34.5q-57 0 -103 13z" />
    <glyph glyph-name="asciitilde" unicode="~" horiz-adv-x="516" 
d="M127 510q-38 5 -93 10q-3 91 33.5 141.5t100.5 50.5q28 0 55.5 -14t45 -31t38 -31t36.5 -14q44 0 47 88q36 -3 92 -6q3 -95 -32.5 -143.5t-97.5 -48.5q-37 0 -71.5 22t-61 44t-44.5 22q-23 0 -34.5 -20.5t-13.5 -69.5z" />
    <glyph glyph-name="exclamdown" unicode="&#xa1;" horiz-adv-x="332" 
d="M164 562q49 0 76.5 -25.5t27.5 -69.5q0 -41 -26.5 -67t-76.5 -26q-48 0 -74.5 27t-26.5 69t29 67t71 25zM233 325q4 -188 21 -479l-172 2q8 195 14 475q60 -1 137 2z" />
    <glyph glyph-name="cent" unicode="&#xa2;" horiz-adv-x="598" 
d="M238 -62q5 80 5 105q-94 20 -147 98t-53 198t51.5 198t147.5 97l-6 110l145 1q-1 -24 -3.5 -62t-3.5 -51q80 -18 128.5 -73t54.5 -134q-45 -3 -84 -7.5t-55 -7.5l-17 -2q-16 120 -96 120q-54 0 -81.5 -49.5t-27.5 -132.5q0 -189 112 -189q80 0 96 112q52 -11 156 -21
q-25 -175 -186 -205l5 -105h-141z" />
    <glyph glyph-name="sterling" unicode="&#xa3;" horiz-adv-x="615" 
d="M127 246h-79l-2 100q18 -1 54 -1q-36 85 -36 133q0 93 69.5 146.5t184.5 53.5q120 0 185.5 -60.5t77.5 -163.5q-59 -8 -152 -28q-10 131 -107 131q-48 0 -74.5 -27t-26.5 -70q0 -38 36 -116l210 2l1 -105l-187 3q-5 -73 -57 -119q132 -3 349 1q-1 -5 -1.5 -15t-1.5 -44.5
t-1 -73.5q-171 7 -520 8l2 115q75 43 76 130z" />
    <glyph glyph-name="yen" unicode="&#xa5;" horiz-adv-x="637" 
d="M78 196q1 31 -2 88q38 -1 112 0q-60 143 -159 359q49 -1 162 6l124 -337l140 364q7 -1 19.5 -1.5t53.5 -1.5t85 -1q-74 -150 -172 -383l113 3l-1 -88q-58 0 -162 -1v-55q8 0 69 1t96 2q-1 -28 1 -83q-60 0 -165 -1l3 -80q-62 2 -154 -1q1 34 1 79l-168 -4q1 30 1 85
q60 -1 166 0q-1 17 -1 54q-113 -2 -162 -4z" />
    <glyph glyph-name="section" unicode="&#xa7;" horiz-adv-x="635" 
d="M323 -203q-249 0 -294 192q42 6 80 13.5t55 11.5l17 4q23 -104 140 -104q45 0 75.5 22t30.5 58q0 29 -34 46.5t-133 29.5q-107 13 -161.5 49t-54.5 112q0 45 36 82.5t88 49.5q-53 21 -84 64.5t-31 93.5q0 85 70 139.5t189 54.5q117 0 185 -52.5t88 -143.5q-50 -5 -89 -10
t-53 -8l-14 -3q-17 99 -113 99q-49 0 -76.5 -20.5t-27.5 -54.5t35.5 -54.5t115.5 -31.5q72 -10 120 -25.5t72.5 -36.5t33.5 -43.5t9 -52.5q0 -39 -27.5 -78.5t-71.5 -63.5q88 -32 91 -136q0 -91 -77.5 -147t-189.5 -56zM200 263q0 -37 41.5 -58t162.5 -35q41 34 41 73
q0 41 -41.5 60.5t-150.5 29.5q-53 -30 -53 -70z" />
    <glyph glyph-name="dieresis" unicode="&#xa8;" horiz-adv-x="596" 
d="M193 568q-33 0 -51.5 19t-18.5 49q0 29 20.5 47t50.5 18q33 0 52 -19t19 -47q0 -33 -20.5 -50t-51.5 -17zM397 569q-30 0 -49 19t-19 51q0 27 19 45t51 18q31 0 48.5 -18.5t17.5 -47.5q0 -31 -19 -49t-49 -18z" />
    <glyph glyph-name="copyright" unicode="&#xa9;" horiz-adv-x="760" 
d="M381 120q-88 0 -139.5 54.5t-51.5 143.5q0 87 52 146t139 59q77 0 124 -40t58 -107l-117 -13q-14 74 -64 74q-35 0 -54.5 -32t-19.5 -86q0 -52 21 -80.5t55 -28.5q49 0 64 77l117 -14q-16 -75 -63.5 -114t-120.5 -39zM372 -23q-154 0 -242.5 97.5t-88.5 256.5
q0 146 95 242.5t252 96.5q145 0 238 -96.5t93 -248.5q0 -169 -96 -258.5t-251 -89.5zM378 29q127 0 205 78t78 216q0 130 -75 212.5t-201 82.5q-134 0 -210.5 -82.5t-76.5 -213.5q0 -132 76 -212.5t204 -80.5z" />
    <glyph glyph-name="ordfeminine" unicode="&#xaa;" horiz-adv-x="456" 
d="M168 285q-61 0 -98 32.5t-37 87.5q0 127 255 139v14q0 70 -58 70q-51 0 -66 -58q-40 8 -118 18q14 55 63.5 86.5t121.5 31.5q88 0 132.5 -45t47.5 -128q2 -49 1.5 -102t-2.5 -95l-1 -42q-31 -1 -96 0q3 40 5 85q-39 -94 -150 -94zM290 457v35q-132 -13 -132 -83
q0 -25 14.5 -38.5t40.5 -13.5q33 0 55 30t22 70z" />
    <glyph glyph-name="guillemotleft" unicode="&#xab;" horiz-adv-x="465" 
d="M142 108q-41 91 -118 235q56 85 129 220q34 -3 108 -4q-64 -101 -129 -220l116 -223q-38 -1 -106 -8zM317 334q42 -86 119 -222q-41 1 -107 -3q-43 92 -118 229q47 73 117 203q41 -3 106 -5q-57 -89 -117 -202z" />
    <glyph glyph-name="registered" unicode="&#xae;" horiz-adv-x="515" 
d="M261 220q-109 0 -171.5 67t-62.5 180q0 104 62 175t165 71q112 0 173 -73.5t61 -177.5q0 -112 -65 -177t-162 -65zM262 258q76 0 129.5 52.5t53.5 146.5q0 96 -51.5 157t-142.5 61q-80 0 -131 -59t-51 -152q0 -96 51 -151t142 -55zM294 333q-11 38 -32 95q-10 -1 -33 -1
q0 -56 2 -89q-23 1 -71 0q3 93 3 262q41 7 77 7q64 0 95.5 -25t31.5 -64q0 -46 -46 -72q16 -45 43 -101q-28 -4 -70 -12zM229 473q67 -5 67 41q0 40 -52 40l-16 -1z" />
    <glyph glyph-name="macron" unicode="&#xaf;" horiz-adv-x="596" 
d="M153 593q1 26 -1 87q77 -2 289 2q-2 -27 -2 -88q-90 2 -286 -1z" />
    <glyph glyph-name="degree" unicode="&#xb0;" horiz-adv-x="361" 
d="M182 410q-65 0 -109 41t-44 115q0 63 40 104t110 41q73 0 113 -39.5t40 -105.5q0 -70 -40 -113t-110 -43zM182 479q31 0 50 22.5t19 62.5q0 34 -19 57.5t-51 23.5q-33 0 -51.5 -23.5t-18.5 -57.5q0 -37 19 -61t52 -24z" />
    <glyph glyph-name="twosuperior" unicode="&#xb2;" horiz-adv-x="400" 
d="M363 305l-326 4l-3 97q98 36 161.5 85t63.5 100q0 59 -54 59q-63 0 -65 -89q-42 7 -106 12q3 72 47.5 112t125.5 40q78 0 120 -35t42 -93q0 -64 -57.5 -120t-148.5 -90q52 0 102 1.5t74 3.5l24 1v-88z" />
    <glyph glyph-name="threesuperior" unicode="&#xb3;" horiz-adv-x="422" 
d="M209 291q-168 0 -187 136q49 3 115 12q9 -71 72 -71q70 0 70 52q0 38 -38 50t-100 6q0 26 -2 67q71 -5 103 8q34 13 34 46q0 25 -17.5 40t-47.5 15q-59 0 -66 -67l-113 13q7 61 53.5 94.5t126.5 33.5q79 0 126 -32.5t47 -85.5q0 -36 -25 -62.5t-66 -33.5q46 -7 71.5 -34
t25.5 -63q0 -56 -50.5 -90t-131.5 -34z" />
    <glyph glyph-name="acute" unicode="&#xb4;" horiz-adv-x="596" 
d="M302 546l-69 49l128 168l88 -63z" />
    <glyph glyph-name="paragraph" unicode="&#xb6;" horiz-adv-x="741" 
d="M32 400q0 145 107.5 225.5t326.5 80.5q86 0 204 -15q-4 -347 7 -878q-45 3 -156 3q4 527 5 761q-39 1 -95 -2q0 -352 5 -742q-73 1 -153 -1q1 129 -2 279q-249 52 -249 289z" />
    <glyph glyph-name="periodcentered" unicode="&#xb7;" horiz-adv-x="291" 
d="M145 285q-41 0 -67.5 27.5t-26.5 70.5t26.5 70t69.5 27q45 0 70 -27.5t25 -69.5q0 -45 -25.5 -71.5t-71.5 -26.5z" />
    <glyph glyph-name="cedilla" unicode="&#xb8;" horiz-adv-x="604" 
d="M271 -4l70 1q-2 -25 -2 -57q54 -1 82.5 -22t28.5 -54q0 -42 -39.5 -66.5t-109.5 -24.5q-54 0 -104 24q7 25 14 60q43 -22 84 -22q53 0 53 31q0 38 -96 29q9 37 19 101z" />
    <glyph glyph-name="onesuperior" unicode="&#xb9;" horiz-adv-x="301" 
d="M125 305q1 227 0 289l-74 -38l-31 88l136 71l74 -6l4 -403z" />
    <glyph glyph-name="ordmasculine" unicode="&#xba;" horiz-adv-x="472" 
d="M236 279q-96 0 -149 58t-53 164q0 93 56.5 150.5t146.5 57.5q98 0 149.5 -58t51.5 -156q0 -103 -57 -159.5t-145 -56.5zM237 361q77 0 77 134q0 63 -19.5 99t-57.5 36t-58.5 -34.5t-20.5 -93.5q0 -141 79 -141z" />
    <glyph glyph-name="guillemotright" unicode="&#xbb;" horiz-adv-x="465" 
d="M133 111q-40 5 -104 7q56 86 119 208q-42 91 -112 223q38 0 106 6l112 -233q-57 -91 -121 -211zM321 113q-32 4 -108 5q53 87 119 211q-41 89 -112 222q41 -1 109 4l112 -230q-60 -94 -120 -212z" />
    <glyph glyph-name="onequarter" unicode="&#xbc;" horiz-adv-x="860" 
d="M125 305q1 227 0 289l-74 -38l-31 88l136 71l74 -6l4 -403zM212 -19l-71 9l455 710l74 -8zM690 -6q0 53 1 79q-14 0 -96 -1t-134 -2q0 23 -2 78l178 261l156 -4q-1 -108 -1 -255l42 1v-78h-42l1 -78zM693 341l-131 -192h130q1 104 1 192z" />
    <glyph glyph-name="onehalf" unicode="&#xbd;" horiz-adv-x="880" 
d="M125 305q1 227 0 289l-74 -38l-31 88l136 71l74 -6l4 -403zM212 -19l-71 9l455 710l74 -8zM843 -7l-326 4l-3 97q98 36 161.5 85t63.5 100q0 59 -54 59q-63 0 -65 -89q-42 7 -106 12q3 72 47.5 112t125.5 40q78 0 120 -35t42 -93q0 -64 -57.5 -120t-148.5 -90
q52 0 102 1.5t74 3.5l24 1v-88z" />
    <glyph glyph-name="threequarters" unicode="&#xbe;" horiz-adv-x="956" 
d="M209 291q-168 0 -187 136q49 3 115 12q9 -71 72 -71q70 0 70 52q0 38 -38 50t-100 6q0 26 -2 67q71 -5 103 8q34 13 34 46q0 25 -17.5 40t-47.5 15q-59 0 -66 -67l-113 13q7 61 53.5 94.5t126.5 33.5q79 0 126 -32.5t47 -85.5q0 -36 -25 -62.5t-66 -33.5q46 -7 71.5 -34
t25.5 -63q0 -56 -50.5 -90t-131.5 -34zM308 -19l-71 9l455 710l74 -8zM786 -6q0 53 1 79q-14 0 -96 -1t-134 -2q0 23 -2 78l178 261l156 -4q-1 -108 -1 -255l42 1v-78h-42l1 -78zM789 341l-131 -192h130q1 104 1 192z" />
    <glyph glyph-name="questiondown" unicode="&#xbf;" horiz-adv-x="627" 
d="M414 331l3 -167q-114 7 -163 -20.5t-49 -90.5q0 -48 28.5 -77t79.5 -29q100 0 119 126q67 -11 164 -21q-18 -104 -90.5 -163t-190.5 -59q-127 0 -200.5 58t-73.5 151q0 98 58 150.5t162 61.5v78zM332 564q53 0 79.5 -26t26.5 -69q0 -42 -29 -67t-75 -25q-49 0 -75.5 25.5
t-26.5 70.5q0 42 27.5 66.5t72.5 24.5z" />
    <glyph glyph-name="Agrave" unicode="&#xc0;" 
d="M20 15l187 685l228 3l195 -722q-81 1 -158 -2l-37 152q-86 2 -236 2l-27 -120q-76 2 -152 2zM316 621l-92 -377q38 -1 184 -1zM334 740l-146 153l86 65l129 -168z" />
    <glyph glyph-name="Aacute" unicode="&#xc1;" 
d="M20 15l187 685l228 3l195 -722q-81 1 -158 -2l-37 152q-86 2 -236 2l-27 -120q-76 2 -152 2zM316 621l-92 -377q38 -1 184 -1zM316 741l-69 49l128 168l88 -63z" />
    <glyph glyph-name="Acircumflex" unicode="&#xc2;" 
d="M20 15l187 685l228 3l195 -722q-81 1 -158 -2l-37 152q-86 2 -236 2l-27 -120q-76 2 -152 2zM316 621l-92 -377q38 -1 184 -1zM215 737q-18 20 -58 56l126 130q21 -2 86 1q44 -49 125 -126q-18 -16 -58 -59q-43 45 -112 107q-42 -38 -109 -109z" />
    <glyph glyph-name="Atilde" unicode="&#xc3;" 
d="M20 15l187 685l228 3l195 -722q-81 1 -158 -2l-37 152q-86 2 -236 2l-27 -120q-76 2 -152 2zM316 621l-92 -377q38 -1 184 -1zM225 758q-26 3 -78 3q-2 67 26 108.5t80 41.5q27 0 53 -17.5t47 -34.5t37 -17q34 0 35 62q23 -1 76 0q7 -149 -97 -149q-29 0 -56.5 16.5
t-49 33t-36.5 16.5q-37 0 -37 -63z" />
    <glyph glyph-name="Adieresis" unicode="&#xc4;" 
d="M20 15l187 685l228 3l195 -722q-81 1 -158 -2l-37 152q-86 2 -236 2l-27 -120q-76 2 -152 2zM316 621l-92 -377q38 -1 184 -1zM224 763q-33 0 -51.5 19t-18.5 49q0 29 20.5 47t50.5 18q33 0 52 -19t19 -47q0 -33 -20.5 -50t-51.5 -17zM428 764q-30 0 -49 19t-19 51
q0 27 19 45t51 18q31 0 48.5 -18.5t17.5 -47.5q0 -31 -19 -49t-49 -18z" />
    <glyph glyph-name="Aring" unicode="&#xc5;" 
d="M20 15l187 685l228 3l195 -722q-81 1 -158 -2l-37 152q-86 2 -236 2l-27 -120q-76 2 -152 2zM316 621l-92 -377q38 -1 184 -1zM323 744q-57 0 -90.5 30.5t-33.5 80.5q0 48 34.5 78t89.5 30q61 0 94.5 -31.5t33.5 -76.5q0 -53 -35.5 -82t-92.5 -29zM326 795
q26 0 42.5 16.5t16.5 43.5q0 25 -15.5 42.5t-43.5 17.5q-27 0 -43.5 -16.5t-16.5 -42.5q0 -25 16 -43t44 -18z" />
    <glyph glyph-name="AE" unicode="&#xc6;" horiz-adv-x="882" 
d="M803 276l-251 1l39 -162q89 -1 250 5l-1 -124q-122 0 -379 -8l-28 143q-80 2 -230 2l-28 -117l-155 1q86 281 194 684q208 -2 347 -2t209 1l69 2q-1 -49 2 -127q-120 3 -355 0l40 -184q172 0 276 2q-1 -48 1 -117zM328 631q-35 -132 -97 -386q92 -2 180 -1z" />
    <glyph glyph-name="Ccedilla" unicode="&#xc7;" horiz-adv-x="672" 
d="M639 262q-12 -131 -79.5 -201t-180.5 -78q0 -1 -0.5 -19.5t-0.5 -33.5q54 -1 82.5 -22t28.5 -54q0 -42 -39.5 -66.5t-109.5 -24.5q-54 0 -104 24q7 25 14 60q43 -22 84 -22q53 0 53 31q0 38 -96 29q8 36 18 99q-129 12 -196.5 105.5t-67.5 257.5q0 173 79 269t225 96
q120 0 188.5 -67.5t87.5 -184.5q-50 -5 -91.5 -10.5t-57.5 -8.5l-16 -3q-16 151 -115 151q-68 0 -102.5 -63t-33.5 -177q0 -114 34 -178t104 -64q56 0 87 40.5t38 129.5z" />
    <glyph glyph-name="Egrave" unicode="&#xc8;" horiz-adv-x="565" 
d="M69 4q-1 286 -8 689l456 7q0 -42 2 -123q-132 -1 -306 -5q0 -68 1 -181q172 0 260 2q-1 -41 1 -120l-259 1q2 -104 4 -151q128 -3 305 -5q-1 -42 -1 -123q-225 7 -455 9zM307 740l-146 153l86 65l129 -168z" />
    <glyph glyph-name="Eacute" unicode="&#xc9;" horiz-adv-x="565" 
d="M69 4q-1 286 -8 689l456 7q0 -42 2 -123q-132 -1 -306 -5q0 -68 1 -181q172 0 260 2q-1 -41 1 -120l-259 1q2 -104 4 -151q128 -3 305 -5q-1 -42 -1 -123q-225 7 -455 9zM289 741l-69 49l128 168l88 -63z" />
    <glyph glyph-name="Ecircumflex" unicode="&#xca;" horiz-adv-x="565" 
d="M69 4q-1 286 -8 689l456 7q0 -42 2 -123q-132 -1 -306 -5q0 -68 1 -181q172 0 260 2q-1 -41 1 -120l-259 1q2 -104 4 -151q128 -3 305 -5q-1 -42 -1 -123q-225 7 -455 9zM188 737q-18 20 -58 56l126 130q21 -2 86 1q44 -49 125 -126q-18 -16 -58 -59q-43 45 -112 107
q-42 -38 -109 -109z" />
    <glyph glyph-name="Edieresis" unicode="&#xcb;" horiz-adv-x="565" 
d="M69 4q-1 286 -8 689l456 7q0 -42 2 -123q-132 -1 -306 -5q0 -68 1 -181q172 0 260 2q-1 -41 1 -120l-259 1q2 -104 4 -151q128 -3 305 -5q-1 -42 -1 -123q-225 7 -455 9zM197 763q-33 0 -51.5 19t-18.5 49q0 29 20.5 47t50.5 18q33 0 52 -19t19 -47q0 -33 -20.5 -50
t-51.5 -17zM401 764q-30 0 -49 19t-19 51q0 27 19 45t51 18q31 0 48.5 -18.5t17.5 -47.5q0 -31 -19 -49t-49 -18z" />
    <glyph glyph-name="Igrave" unicode="&#xcc;" horiz-adv-x="300" 
d="M75 -1q0 307 -4 695q55 0 153 1q1 -335 5 -696q-67 1 -154 0zM159 740l-146 153l86 65l129 -168z" />
    <glyph glyph-name="Iacute" unicode="&#xcd;" horiz-adv-x="300" 
d="M75 -1q0 307 -4 695q55 0 153 1q1 -335 5 -696q-67 1 -154 0zM141 741l-69 49l128 168l88 -63z" />
    <glyph glyph-name="Icircumflex" unicode="&#xce;" horiz-adv-x="300" 
d="M75 -1q0 307 -4 695q55 0 153 1q1 -335 5 -696q-67 1 -154 0zM40 737q-18 20 -58 56l126 130q21 -2 86 1q44 -49 125 -126q-18 -16 -58 -59q-43 45 -112 107q-42 -38 -109 -109z" />
    <glyph glyph-name="Idieresis" unicode="&#xcf;" horiz-adv-x="300" 
d="M75 -1q0 307 -4 695q55 0 153 1q1 -335 5 -696q-67 1 -154 0zM49 763q-33 0 -51.5 19t-18.5 49q0 29 20.5 47t50.5 18q33 0 52 -19t19 -47q0 -33 -20.5 -50t-51.5 -17zM253 764q-30 0 -49 19t-19 51q0 27 19 45t51 18q31 0 48.5 -18.5t17.5 -47.5q0 -31 -19 -49t-49 -18z
" />
    <glyph glyph-name="Eth" unicode="&#xd0;" horiz-adv-x="704" 
d="M17 283l2 120q29 -2 82 -4l-2 289q88 14 171 14q197 1 293 -91t96 -266q0 -180 -99.5 -267.5t-303.5 -88.5q-76 0 -156 10q1 109 1 285zM255 111q11 -1 33 -1q104 0 156 54t52 184q0 231 -201 232q-22 0 -46 -3q0 -125 1 -181h105q-1 -32 1 -109q-41 0 -105 -1z" />
    <glyph glyph-name="Ntilde" unicode="&#xd1;" horiz-adv-x="667" 
d="M64 18q2 248 -3 654q82 5 164 8q110 -235 250 -500q-6 247 -19 534q60 -1 139 -1q2 -279 12 -723q-72 -5 -159 -10l-258 502q8 -321 13 -466q-61 2 -139 2zM234 758q-26 3 -78 3q-2 67 26 108.5t80 41.5q27 0 53 -17.5t47 -34.5t37 -17q34 0 35 62q23 -1 76 0
q7 -149 -97 -149q-29 0 -56.5 16.5t-49 33t-36.5 16.5q-37 0 -37 -63z" />
    <glyph glyph-name="Ograve" unicode="&#xd2;" horiz-adv-x="702" 
d="M351 -21q-143 1 -224 95.5t-81 266.5q-2 172 80.5 271.5t226.5 99.5q146 0 225 -98t79 -271q0 -180 -82 -272t-224 -92zM351 100q65 0 103 59.5t38 185.5q0 123 -36.5 184.5t-103.5 61.5q-69 0 -105.5 -63t-36.5 -184q-1 -119 36 -181.5t105 -62.5zM360 740l-146 153
l86 65l129 -168z" />
    <glyph glyph-name="Oacute" unicode="&#xd3;" horiz-adv-x="702" 
d="M351 -21q-143 1 -224 95.5t-81 266.5q-2 172 80.5 271.5t226.5 99.5q146 0 225 -98t79 -271q0 -180 -82 -272t-224 -92zM351 100q65 0 103 59.5t38 185.5q0 123 -36.5 184.5t-103.5 61.5q-69 0 -105.5 -63t-36.5 -184q-1 -119 36 -181.5t105 -62.5zM342 741l-69 49
l128 168l88 -63z" />
    <glyph glyph-name="Ocircumflex" unicode="&#xd4;" horiz-adv-x="702" 
d="M351 -21q-143 1 -224 95.5t-81 266.5q-2 172 80.5 271.5t226.5 99.5q146 0 225 -98t79 -271q0 -180 -82 -272t-224 -92zM351 100q65 0 103 59.5t38 185.5q0 123 -36.5 184.5t-103.5 61.5q-69 0 -105.5 -63t-36.5 -184q-1 -119 36 -181.5t105 -62.5zM241 737
q-18 20 -58 56l126 130q21 -2 86 1q44 -49 125 -126q-18 -16 -58 -59q-43 45 -112 107q-42 -38 -109 -109z" />
    <glyph glyph-name="Otilde" unicode="&#xd5;" horiz-adv-x="702" 
d="M351 -21q-143 1 -224 95.5t-81 266.5q-2 172 80.5 271.5t226.5 99.5q146 0 225 -98t79 -271q0 -180 -82 -272t-224 -92zM351 100q65 0 103 59.5t38 185.5q0 123 -36.5 184.5t-103.5 61.5q-69 0 -105.5 -63t-36.5 -184q-1 -119 36 -181.5t105 -62.5zM252 758q-26 3 -78 3
q-2 67 26 108.5t80 41.5q34 0 77 -34.5t60 -34.5q34 0 35 62q23 -1 76 0q7 -149 -97 -149q-29 0 -56.5 16.5t-49 33t-36.5 16.5q-37 0 -37 -63z" />
    <glyph glyph-name="Odieresis" unicode="&#xd6;" horiz-adv-x="702" 
d="M351 -21q-143 1 -224 95.5t-81 266.5q-2 172 80.5 271.5t226.5 99.5q146 0 225 -98t79 -271q0 -180 -82 -272t-224 -92zM351 100q65 0 103 59.5t38 185.5q0 123 -36.5 184.5t-103.5 61.5q-69 0 -105.5 -63t-36.5 -184q-1 -119 36 -181.5t105 -62.5zM250 763
q-33 0 -51.5 19t-18.5 49q0 29 20.5 47t50.5 18q33 0 52 -19t19 -47q0 -33 -20.5 -50t-51.5 -17zM454 764q-30 0 -49 19t-19 51q0 27 19 45t51 18q31 0 48.5 -18.5t17.5 -47.5q0 -31 -19 -49t-49 -18z" />
    <glyph glyph-name="multiply" unicode="&#xd7;" horiz-adv-x="507" 
d="M113 104q-25 27 -77 75l145 149l-144 150l77 77l140 -151l140 152q32 -34 77 -75l-146 -151l146 -150l-79 -77l-140 150z" />
    <glyph glyph-name="Oslash" unicode="&#xd8;" horiz-adv-x="702" 
d="M200 -114q-46 27 -120 63q26 35 67 100q-104 98 -104 297q0 171 81.5 267t226.5 96q55 0 108 -16l46 101q38 -23 121 -61l-65 -103q95 -93 95 -284q0 -176 -80 -272.5t-229 -96.5q-54 0 -99 15q-19 -39 -48 -106zM347 98q143 0 143 252q0 112 -36.5 176t-104.5 64
q-70 0 -106 -63.5t-36 -180.5q0 -121 36 -184.5t104 -63.5z" />
    <glyph glyph-name="Ugrave" unicode="&#xd9;" 
d="M330 -14q-145 0 -210 83.5t-65 263.5l-1 340q56 -5 156 -7q-2 -194 -2 -294q0 -141 28 -198t90 -57q61 0 87.5 52t26.5 187l-6 347q59 -3 162 2q-1 -214 -1 -364q0 -182 -65.5 -268.5t-199.5 -86.5zM334 740l-146 153l86 65l129 -168z" />
    <glyph glyph-name="Uacute" unicode="&#xda;" 
d="M330 -14q-145 0 -210 83.5t-65 263.5l-1 340q56 -5 156 -7q-2 -194 -2 -294q0 -141 28 -198t90 -57q61 0 87.5 52t26.5 187l-6 347q59 -3 162 2q-1 -214 -1 -364q0 -182 -65.5 -268.5t-199.5 -86.5zM316 741l-69 49l128 168l88 -63z" />
    <glyph glyph-name="Ucircumflex" unicode="&#xdb;" 
d="M330 -14q-145 0 -210 83.5t-65 263.5l-1 340q56 -5 156 -7q-2 -194 -2 -294q0 -141 28 -198t90 -57q61 0 87.5 52t26.5 187l-6 347q59 -3 162 2q-1 -214 -1 -364q0 -182 -65.5 -268.5t-199.5 -86.5zM215 737q-18 20 -58 56l126 130q21 -2 86 1q44 -49 125 -126
q-18 -16 -58 -59q-43 45 -112 107q-42 -38 -109 -109z" />
    <glyph glyph-name="Udieresis" unicode="&#xdc;" 
d="M330 -14q-145 0 -210 83.5t-65 263.5l-1 340q56 -5 156 -7q-2 -194 -2 -294q0 -141 28 -198t90 -57q61 0 87.5 52t26.5 187l-6 347q59 -3 162 2q-1 -214 -1 -364q0 -182 -65.5 -268.5t-199.5 -86.5zM224 763q-33 0 -51.5 19t-18.5 49q0 29 20.5 47t50.5 18q33 0 52 -19
t19 -47q0 -33 -20.5 -50t-51.5 -17zM428 764q-30 0 -49 19t-19 51q0 27 19 45t51 18q31 0 48.5 -18.5t17.5 -47.5q0 -31 -19 -49t-49 -18z" />
    <glyph glyph-name="Yacute" unicode="&#xdd;" horiz-adv-x="635" 
d="M230 -11q0 7 -0.5 40.5t-1.5 81.5t-3 91l-216 480q45 1 168 7l127 -332q49 108 141 349q50 -2 165 -3l-230 -500q-1 -76 3 -213q-45 0 -153 -1zM300 741l-69 49l128 168l88 -63z" />
    <glyph glyph-name="Thorn" unicode="&#xde;" horiz-adv-x="607" 
d="M61 1q1 31 1.5 87.5t1 243t-1.5 367.5q61 -3 150 -3q-1 -46 -1 -112q38 2 54 2q154 0 233.5 -65t79.5 -168q0 -118 -85.5 -180t-234.5 -62q-28 0 -43 1l3 -110q-64 3 -157 -1zM211 472q0 -156 2 -254q26 -2 38 -2q83 0 129.5 34.5t46.5 99.5q0 59 -44 91.5t-131 32.5
q-11 0 -41 -2z" />
    <glyph glyph-name="germandbls" unicode="&#xdf;" horiz-adv-x="603" 
d="M55 18q2 213 2 413q0 131 66 202.5t198 71.5q110 0 173.5 -56.5t63.5 -140.5q0 -61 -37 -104t-95 -60q68 -15 103 -60t35 -106q0 -96 -61 -145t-168 -49q-31 0 -76 5q2 30 4 100q68 -8 107.5 16.5t39.5 81.5q0 49 -35.5 76.5t-108.5 26.5q2 32 0 103q141 -5 141 104
q0 45 -26 71.5t-71 26.5q-106 0 -106 -152l3 -428z" />
    <glyph glyph-name="agrave" unicode="&#xe0;" horiz-adv-x="557" 
d="M211 -17q-77 0 -126.5 39t-49.5 108q0 88 78.5 134t241.5 55v6q-4 98 -80 98q-70 0 -89 -83q-59 16 -133 28q54 151 228 151q218 0 223 -219q2 -72 2.5 -151t-0.5 -121l-1 -43q-47 0 -123 -2q3 40 4 102q-22 -49 -69 -75.5t-106 -26.5zM362 221v21q-179 -10 -179 -94
q0 -67 73 -69q47 0 76.5 34.5t29.5 107.5zM290 545l-146 153l86 65l129 -168z" />
    <glyph glyph-name="aacute" unicode="&#xe1;" horiz-adv-x="557" 
d="M211 -17q-77 0 -126.5 39t-49.5 108q0 88 78.5 134t241.5 55v6q-4 98 -80 98q-70 0 -89 -83q-59 16 -133 28q54 151 228 151q218 0 223 -219q2 -72 2.5 -151t-0.5 -121l-1 -43q-47 0 -123 -2q3 40 4 102q-22 -49 -69 -75.5t-106 -26.5zM362 221v21q-179 -10 -179 -94
q0 -67 73 -69q47 0 76.5 34.5t29.5 107.5zM272 546l-69 49l128 168l88 -63z" />
    <glyph glyph-name="acircumflex" unicode="&#xe2;" horiz-adv-x="557" 
d="M211 -17q-77 0 -126.5 39t-49.5 108q0 88 78.5 134t241.5 55v6q-4 98 -80 98q-70 0 -89 -83q-59 16 -133 28q54 151 228 151q218 0 223 -219q2 -72 2.5 -151t-0.5 -121l-1 -43q-47 0 -123 -2q3 40 4 102q-22 -49 -69 -75.5t-106 -26.5zM362 221v21q-179 -10 -179 -94
q0 -67 73 -69q47 0 76.5 34.5t29.5 107.5zM171 542q-18 20 -58 56l126 130q21 -2 86 1q44 -49 125 -126q-18 -16 -58 -59q-43 45 -112 107q-42 -38 -109 -109z" />
    <glyph glyph-name="atilde" unicode="&#xe3;" horiz-adv-x="557" 
d="M211 -17q-77 0 -126.5 39t-49.5 108q0 88 78.5 134t241.5 55v6q-4 98 -80 98q-70 0 -89 -83q-59 16 -133 28q54 151 228 151q218 0 223 -219q2 -72 2.5 -151t-0.5 -121l-1 -43q-47 0 -123 -2q3 40 4 102q-22 -49 -69 -75.5t-106 -26.5zM362 221v21q-179 -10 -179 -94
q0 -67 73 -69q47 0 76.5 34.5t29.5 107.5zM182 563q-26 3 -78 3q-2 67 26 108.5t80 41.5q34 0 77 -34.5t60 -34.5q34 0 35 62q23 -1 76 0q7 -149 -97 -149q-29 0 -56.5 16.5t-49 33t-36.5 16.5q-37 0 -37 -63z" />
    <glyph glyph-name="adieresis" unicode="&#xe4;" horiz-adv-x="557" 
d="M211 -17q-77 0 -126.5 39t-49.5 108q0 88 78.5 134t241.5 55v6q-4 98 -80 98q-70 0 -89 -83q-59 16 -133 28q54 151 228 151q218 0 223 -219q2 -72 2.5 -151t-0.5 -121l-1 -43q-47 0 -123 -2q3 40 4 102q-22 -49 -69 -75.5t-106 -26.5zM362 221v21q-179 -10 -179 -94
q0 -67 73 -69q47 0 76.5 34.5t29.5 107.5zM180 568q-33 0 -51.5 19t-18.5 49q0 29 20.5 47t50.5 18q33 0 52 -19t19 -47q0 -33 -20.5 -50t-51.5 -17zM384 569q-30 0 -49 19t-19 51q0 27 19 45t51 18q31 0 48.5 -18.5t17.5 -47.5q0 -31 -19 -49t-49 -18z" />
    <glyph glyph-name="aring" unicode="&#xe5;" horiz-adv-x="557" 
d="M211 -17q-77 0 -126.5 39t-49.5 108q0 88 78.5 134t241.5 55v6q-4 98 -80 98q-70 0 -89 -83q-59 16 -133 28q54 151 228 151q218 0 223 -219q2 -72 2.5 -151t-0.5 -121l-1 -43q-47 0 -123 -2q3 40 4 102q-22 -49 -69 -75.5t-106 -26.5zM362 221v21q-179 -10 -179 -94
q0 -67 73 -69q47 0 76.5 34.5t29.5 107.5zM279 549q-57 0 -90.5 30.5t-33.5 80.5q0 48 34.5 78t89.5 30q61 0 94.5 -31.5t33.5 -76.5q0 -53 -35.5 -82t-92.5 -29zM282 600q26 0 42.5 16.5t16.5 43.5q0 25 -15.5 42.5t-43.5 17.5q-27 0 -43.5 -16.5t-16.5 -42.5q0 -25 16 -43
t44 -18z" />
    <glyph glyph-name="ae" unicode="&#xe6;" horiz-adv-x="891" 
d="M619 -21q-145 0 -197 112q-27 -50 -80 -79.5t-115 -29.5q-91 0 -141.5 39.5t-50.5 110.5q0 79 79.5 124t241.5 47v12q-5 107 -81 107q-66 0 -90 -81q-42 13 -130 28q23 70 78.5 109.5t140.5 39.5q120 0 171 -90q56 90 183 90q118 0 174.5 -86.5t38.5 -206.5
q-89 1 -333 -4q5 -67 33 -102.5t74 -35.5q73 0 104 84q51 -19 131 -40q-33 -72 -96.5 -110t-134.5 -38zM257 78q47 0 76 34.5t29 101.5v10q-99 -1 -139 -22.5t-40 -62.5q0 -27 19 -44t55 -17zM613 429q-43 0 -69.5 -33.5t-33.5 -94.5l192 5q-1 56 -23 89.5t-66 33.5z" />
    <glyph glyph-name="ccedilla" unicode="&#xe7;" horiz-adv-x="563" 
d="M525 165q-19 -84 -72 -129.5t-132 -52.5q-1 -10 -1 -45q54 -1 82.5 -22t28.5 -54q0 -42 -39.5 -66.5t-109.5 -24.5q-54 0 -104 24q7 25 14 60q43 -22 84 -22q53 0 53 31q0 38 -96 29q8 34 17 92q-101 11 -154 81t-53 186q0 120 65 193t180 73q99 0 157 -49.5t78 -134.5
l-153 -18q-16 97 -83 97q-44 0 -69 -43.5t-25 -120.5q0 -76 25 -117t70 -41q33 0 53.5 22.5t31.5 72.5q48 -8 152 -21z" />
    <glyph glyph-name="egrave" unicode="&#xe8;" horiz-adv-x="581" 
d="M298 -19q-120 0 -187.5 72.5t-67.5 193.5q0 116 67 193.5t187 77.5q132 -1 191.5 -83t40.5 -210q-110 -1 -333 -6q11 -136 107 -136q75 0 105 85q44 -15 133 -36q-75 -151 -243 -151zM298 429q-41 0 -66.5 -33.5t-33.5 -95.5l191 8q-3 121 -91 121zM301 545l-146 153
l86 65l129 -168z" />
    <glyph glyph-name="eacute" unicode="&#xe9;" horiz-adv-x="581" 
d="M298 -19q-120 0 -187.5 72.5t-67.5 193.5q0 116 67 193.5t187 77.5q132 -1 191.5 -83t40.5 -210q-110 -1 -333 -6q11 -136 107 -136q75 0 105 85q44 -15 133 -36q-75 -151 -243 -151zM298 429q-41 0 -66.5 -33.5t-33.5 -95.5l191 8q-3 121 -91 121zM283 546l-69 49
l128 168l88 -63z" />
    <glyph glyph-name="ecircumflex" unicode="&#xea;" horiz-adv-x="581" 
d="M298 -19q-120 0 -187.5 72.5t-67.5 193.5q0 116 67 193.5t187 77.5q132 -1 191.5 -83t40.5 -210q-110 -1 -333 -6q11 -136 107 -136q75 0 105 85q44 -15 133 -36q-75 -151 -243 -151zM298 429q-41 0 -66.5 -33.5t-33.5 -95.5l191 8q-3 121 -91 121zM182 542
q-18 20 -58 56l126 130q21 -2 86 1q44 -49 125 -126q-18 -16 -58 -59q-43 45 -112 107q-42 -38 -109 -109z" />
    <glyph glyph-name="edieresis" unicode="&#xeb;" horiz-adv-x="581" 
d="M298 -19q-120 0 -187.5 72.5t-67.5 193.5q0 116 67 193.5t187 77.5q132 -1 191.5 -83t40.5 -210q-110 -1 -333 -6q11 -136 107 -136q75 0 105 85q44 -15 133 -36q-75 -151 -243 -151zM298 429q-41 0 -66.5 -33.5t-33.5 -95.5l191 8q-3 121 -91 121zM191 568
q-33 0 -51.5 19t-18.5 49q0 29 20.5 47t50.5 18q33 0 52 -19t19 -47q0 -33 -20.5 -50t-51.5 -17zM395 569q-30 0 -49 19t-19 51q0 27 19 45t51 18q31 0 48.5 -18.5t17.5 -47.5q0 -31 -19 -49t-49 -18z" />
    <glyph glyph-name="igrave" unicode="&#xec;" horiz-adv-x="277" 
d="M68 1q1 133 -3 499q56 0 146 2q0 -229 4 -500q-63 1 -147 -1zM149 545l-146 153l86 65l129 -168z" />
    <glyph glyph-name="iacute" unicode="&#xed;" horiz-adv-x="277" 
d="M68 1q1 133 -3 499q56 0 146 2q0 -229 4 -500q-63 1 -147 -1zM131 546l-69 49l128 168l88 -63z" />
    <glyph glyph-name="icircumflex" unicode="&#xee;" horiz-adv-x="277" 
d="M68 1q1 133 -3 499q56 0 146 2q0 -229 4 -500q-63 1 -147 -1zM30 542q-18 20 -58 56l126 130q21 -2 86 1q44 -49 125 -126q-18 -16 -58 -59q-43 45 -112 107q-42 -38 -109 -109z" />
    <glyph glyph-name="idieresis" unicode="&#xef;" horiz-adv-x="277" 
d="M68 1q1 133 -3 499q56 0 146 2q0 -229 4 -500q-63 1 -147 -1zM39 568q-33 0 -51.5 19t-18.5 49q0 29 20.5 47t50.5 18q33 0 52 -19t19 -47q0 -33 -20.5 -50t-51.5 -17zM243 569q-30 0 -49 19t-19 51q0 27 19 45t51 18q31 0 48.5 -18.5t17.5 -47.5q0 -31 -19 -49t-49 -18z
" />
    <glyph glyph-name="eth" unicode="&#xf0;" horiz-adv-x="594" 
d="M296 -20q-120 0 -186.5 74.5t-66.5 205.5q0 113 57.5 185.5t145.5 72.5q50 0 95.5 -35.5t66.5 -85.5q-11 77 -45 132.5t-103 108.5q67 64 77 77q36 -23 72 -58l47 51q27 -37 78 -95l-54 -44q72 -118 72 -285q0 -150 -69.5 -227t-186.5 -77zM302 80q46 0 73.5 43.5
t27.5 129.5q0 58 -30.5 110t-77.5 52q-44 0 -72 -44.5t-28 -120.5q0 -78 28.5 -124t78.5 -46z" />
    <glyph glyph-name="ntilde" unicode="&#xf1;" horiz-adv-x="568" 
d="M370 -20l2 314q-1 48 -16 72.5t-52 24.5q-44 0 -71.5 -40t-28.5 -99l-1 -235q-82 2 -148 0l1 471q63 -1 118 1l-1 -114q27 69 74.5 105.5t108.5 35.5q152 -1 159 -182l2 -353zM193 563q-26 3 -78 3q-2 67 26 108.5t80 41.5q27 0 53 -17t47 -34.5t37 -17.5q34 0 35 62
q23 -1 76 0q7 -149 -97 -149q-29 0 -56.5 16.5t-49 33t-36.5 16.5q-37 0 -37 -63z" />
    <glyph glyph-name="ograve" unicode="&#xf2;" horiz-adv-x="596" 
d="M296 -15q-120 0 -186.5 71t-66.5 201q0 120 69.5 190.5t184.5 70.5q119 0 187.5 -71.5t68.5 -193.5q0 -132 -71 -200t-186 -68zM298 84q102 0 102 170q0 78 -25.5 121t-75.5 43q-48 0 -76 -41.5t-28 -118.5q0 -174 103 -174zM307 545l-146 153l86 65l129 -168z" />
    <glyph glyph-name="oacute" unicode="&#xf3;" horiz-adv-x="596" 
d="M296 -15q-120 0 -186.5 71t-66.5 201q0 120 69.5 190.5t184.5 70.5q119 0 187.5 -71.5t68.5 -193.5q0 -132 -71 -200t-186 -68zM298 84q102 0 102 170q0 78 -25.5 121t-75.5 43q-48 0 -76 -41.5t-28 -118.5q0 -174 103 -174zM289 546l-69 49l128 168l88 -63z" />
    <glyph glyph-name="ocircumflex" unicode="&#xf4;" horiz-adv-x="596" 
d="M296 -15q-120 0 -186.5 71t-66.5 201q0 120 69.5 190.5t184.5 70.5q119 0 187.5 -71.5t68.5 -193.5q0 -132 -71 -200t-186 -68zM298 84q102 0 102 170q0 78 -25.5 121t-75.5 43q-48 0 -76 -41.5t-28 -118.5q0 -174 103 -174zM188 542q-18 20 -58 56l126 130q21 -2 86 1
q44 -49 125 -126q-18 -16 -58 -59q-43 45 -112 107q-42 -38 -109 -109z" />
    <glyph glyph-name="otilde" unicode="&#xf5;" horiz-adv-x="596" 
d="M296 -15q-120 0 -186.5 71t-66.5 201q0 120 69.5 190.5t184.5 70.5q119 0 187.5 -71.5t68.5 -193.5q0 -132 -71 -200t-186 -68zM298 84q102 0 102 170q0 78 -25.5 121t-75.5 43q-48 0 -76 -41.5t-28 -118.5q0 -174 103 -174zM198 563q-26 3 -78 3q-2 67 26 108.5t80 41.5
q34 0 77 -34.5t60 -34.5q34 0 35 62q23 -1 76 0q7 -149 -97 -149q-29 0 -56.5 16.5t-49 33t-36.5 16.5q-37 0 -37 -63z" />
    <glyph glyph-name="odieresis" unicode="&#xf6;" horiz-adv-x="596" 
d="M296 -15q-120 0 -186.5 71t-66.5 201q0 120 69.5 190.5t184.5 70.5q119 0 187.5 -71.5t68.5 -193.5q0 -132 -71 -200t-186 -68zM298 84q102 0 102 170q0 78 -25.5 121t-75.5 43q-48 0 -76 -41.5t-28 -118.5q0 -174 103 -174zM197 568q-33 0 -51.5 19t-18.5 49
q0 29 20.5 47t50.5 18q33 0 52 -19t19 -47q0 -33 -20.5 -50t-51.5 -17zM401 569q-30 0 -49 19t-19 51q0 27 19 45t51 18q31 0 48.5 -18.5t17.5 -47.5q0 -31 -19 -49t-49 -18z" />
    <glyph glyph-name="divide" unicode="&#xf7;" horiz-adv-x="495" 
d="M41 388q47 -1 413 -1l-1 -118q-56 1 -117.5 1.5t-111 0.5t-89 -0.5t-66 -1t-27.5 -0.5zM246 601q33 0 53 -21t20 -55q0 -35 -20.5 -56t-54.5 -21q-35 0 -54 20.5t-19 56.5q0 37 20 56.5t55 19.5zM247 211q35 0 54.5 -20.5t19.5 -59.5q0 -33 -21 -52.5t-54 -19.5
q-35 0 -54.5 19.5t-19.5 52.5q0 40 20.5 60t54.5 20z" />
    <glyph glyph-name="oslash" unicode="&#xf8;" horiz-adv-x="597" 
d="M297 -13q-37 0 -72 8q-25 -55 -38 -89q-43 24 -111 57l52 76q-85 69 -85 217q0 121 66 192.5t191 71.5q30 0 67 -7l38 90l112 -57q-10 -12 -51 -80q88 -71 88 -212q0 -124 -68.5 -195.5t-188.5 -71.5zM298 86q102 0 102 168q0 167 -102 167q-50 0 -77 -44t-27 -121
q0 -170 104 -170z" />
    <glyph glyph-name="ugrave" unicode="&#xf9;" horiz-adv-x="565" 
d="M227 -3q-176 0 -176 236l-1 260q49 -3 147 -4q-4 -110 -4 -265q0 -108 78 -108q40 0 65.5 37.5t27.5 103.5t2 124.5t-2 98.5l-1 40q36 -2 146 -2q-2 -217 1 -529l-123 1q2 48 2 113q-22 -50 -64.5 -78t-97.5 -28zM289 545l-146 153l86 65l129 -168z" />
    <glyph glyph-name="uacute" unicode="&#xfa;" horiz-adv-x="565" 
d="M227 -3q-176 0 -176 236l-1 260q49 -3 147 -4q-4 -110 -4 -265q0 -108 78 -108q40 0 65.5 37.5t27.5 103.5t2 124.5t-2 98.5l-1 40q36 -2 146 -2q-2 -217 1 -529l-123 1q2 48 2 113q-22 -50 -64.5 -78t-97.5 -28zM271 546l-69 49l128 168l88 -63z" />
    <glyph glyph-name="ucircumflex" unicode="&#xfb;" horiz-adv-x="565" 
d="M227 -3q-176 0 -176 236l-1 260q49 -3 147 -4q-4 -110 -4 -265q0 -108 78 -108q40 0 65.5 37.5t27.5 103.5t2 124.5t-2 98.5l-1 40q36 -2 146 -2q-2 -217 1 -529l-123 1q2 48 2 113q-22 -50 -64.5 -78t-97.5 -28zM170 542q-18 20 -58 56l126 130q21 -2 86 1
q44 -49 125 -126q-18 -16 -58 -59q-43 45 -112 107q-42 -38 -109 -109z" />
    <glyph glyph-name="udieresis" unicode="&#xfc;" horiz-adv-x="565" 
d="M227 -3q-176 0 -176 236l-1 260q49 -3 147 -4q-4 -110 -4 -265q0 -108 78 -108q40 0 65.5 37.5t27.5 103.5t2 124.5t-2 98.5l-1 40q36 -2 146 -2q-2 -217 1 -529l-123 1q2 48 2 113q-22 -50 -64.5 -78t-97.5 -28zM179 568q-33 0 -51.5 19t-18.5 49q0 29 20.5 47t50.5 18
q33 0 52 -19t19 -47q0 -33 -20.5 -50t-51.5 -17zM383 569q-30 0 -49 19t-19 51q0 27 19 45t51 18q31 0 48.5 -18.5t17.5 -47.5q0 -31 -19 -49t-49 -18z" />
    <glyph glyph-name="yacute" unicode="&#xfd;" horiz-adv-x="534" 
d="M295 -235l-141 22q36 115 49 166l-188 531l158 8l100 -377l51 207t34 152l11 50l150 -8zM258 546l-69 49l128 168l88 -63z" />
    <glyph glyph-name="thorn" unicode="&#xfe;" horiz-adv-x="604" 
d="M55 -210v895l147 1q-2 -82 -5 -277q25 52 67.5 81t92.5 29q96 0 150.5 -75.5t54.5 -192.5q1 -126 -58 -195.5t-156 -69.5q-100 0 -149 83l10 -278zM308 79q47 0 74 42.5t27 129.5q0 77 -26.5 123.5t-74.5 46.5q-47 0 -76 -47t-29 -123q0 -80 28 -126t77 -46z" />
    <glyph glyph-name="ydieresis" unicode="&#xff;" horiz-adv-x="534" 
d="M295 -235l-141 22q36 115 49 166l-188 531l158 8l100 -377l51 207t34 152l11 50l150 -8zM166 568q-33 0 -51.5 19t-18.5 49q0 29 20.5 47t50.5 18q33 0 52 -19t19 -47q0 -33 -20.5 -50t-51.5 -17zM370 569q-30 0 -49 19t-19 51q0 27 19 45t51 18q31 0 48.5 -18.5
t17.5 -47.5q0 -31 -19 -49t-49 -18z" />
    <glyph glyph-name="Amacron" unicode="&#x100;" 
d="M20 15l187 685l228 3l195 -722q-81 1 -158 -2l-37 152q-86 2 -236 2l-27 -120q-76 2 -152 2zM316 621l-92 -377q38 -1 184 -1zM182 788q1 26 -1 87q77 -2 289 2q-2 -27 -2 -88q-90 2 -286 -1z" />
    <glyph glyph-name="amacron" unicode="&#x101;" horiz-adv-x="557" 
d="M211 -17q-77 0 -126.5 39t-49.5 108q0 88 78.5 134t241.5 55v6q-4 98 -80 98q-70 0 -89 -83q-59 16 -133 28q54 151 228 151q218 0 223 -219q2 -72 2.5 -151t-0.5 -121l-1 -43q-47 0 -123 -2q3 40 4 102q-22 -49 -69 -75.5t-106 -26.5zM362 221v21q-179 -10 -179 -94
q0 -67 73 -69q47 0 76.5 34.5t29.5 107.5zM138 593q1 26 -1 87q77 -2 289 2q-2 -27 -2 -88q-90 2 -286 -1z" />
    <glyph glyph-name="Abreve" unicode="&#x102;" 
d="M20 15l187 685l228 3l195 -722q-81 1 -158 -2l-37 152q-86 2 -236 2l-27 -120q-76 2 -152 2zM316 621l-92 -377q38 -1 184 -1zM325 754q-79 0 -121 39t-40 106q36 -1 94 4q-2 -75 68 -75q31 0 48.5 21.5t14.5 63.5q31 -1 95 1q5 -78 -38 -119t-121 -41z" />
    <glyph glyph-name="abreve" unicode="&#x103;" horiz-adv-x="557" 
d="M211 -17q-77 0 -126.5 39t-49.5 108q0 88 78.5 134t241.5 55v6q-4 98 -80 98q-70 0 -89 -83q-59 16 -133 28q54 151 228 151q218 0 223 -219q2 -72 2.5 -151t-0.5 -121l-1 -43q-47 0 -123 -2q3 40 4 102q-22 -49 -69 -75.5t-106 -26.5zM362 221v21q-179 -10 -179 -94
q0 -67 73 -69q47 0 76.5 34.5t29.5 107.5zM282 559q-79 0 -121 39t-40 106q36 -1 94 4q-1 -75 68 -75q31 0 48.5 21.5t14.5 63.5q31 -1 95 1q5 -78 -38 -119t-121 -41z" />
    <glyph glyph-name="Aogonek" unicode="&#x104;" 
d="M550 -224q-24 -3 -45 -3q-61 0 -98 26t-37 71q-1 35 24 67.5t74 53.5l-33 140q-86 2 -236 2l-27 -120q-76 2 -152 2l187 685l228 3l195 -722q-49 1 -106 0q-63 -36 -63 -82q0 -24 25.5 -34.5t69.5 -7.5q-4 -27 -6 -81zM316 621l-92 -377q38 -1 184 -1z" />
    <glyph glyph-name="aogonek" unicode="&#x105;" horiz-adv-x="557" 
d="M458 -224q-24 -3 -45 -3q-61 0 -98 26t-37 71q-1 36 25.5 69.5t79.5 54.5q1 20 3 91q-22 -49 -69 -75.5t-106 -26.5q-77 0 -126.5 39t-49.5 108q0 88 78.5 134t241.5 55v6q-4 98 -80 98q-70 0 -89 -83q-59 16 -133 28q54 151 228 151q218 0 223 -219q2 -72 2.5 -151
t-0.5 -121l-1 -43h-65q-35 -18 -53 -41.5t-18 -44.5q0 -24 25.5 -34.5t69.5 -7.5q-4 -27 -6 -81zM362 221v21q-179 -10 -179 -94q0 -67 73 -69q47 0 76.5 34.5t29.5 107.5z" />
    <glyph glyph-name="Cacute" unicode="&#x106;" horiz-adv-x="672" 
d="M348 -18q-147 0 -225 94.5t-78 270.5q0 173 79 269t225 96q120 0 188.5 -67.5t87.5 -184.5q-50 -5 -91.5 -10.5t-57.5 -8.5l-16 -3q-16 151 -115 151q-68 0 -102.5 -63t-33.5 -177q0 -114 34 -178t104 -64q56 0 87 40.5t38 129.5l167 -15q-13 -140 -88.5 -210t-202.5 -70
zM333 741l-69 49l128 168l88 -63z" />
    <glyph glyph-name="cacute" unicode="&#x107;" horiz-adv-x="563" 
d="M292 -18q-121 0 -185 71t-64 199q0 120 65 193t180 73q99 0 157 -49.5t78 -134.5l-153 -18q-16 97 -83 97q-44 0 -69 -43.5t-25 -120.5q0 -76 25 -117t70 -41q33 0 53.5 22.5t31.5 72.5q48 -8 152 -21q-20 -92 -81.5 -137.5t-151.5 -45.5zM275 546l-69 49l128 168l88 -63
z" />
    <glyph glyph-name="Ccircumflex" unicode="&#x108;" horiz-adv-x="672" 
d="M348 -18q-147 0 -225 94.5t-78 270.5q0 173 79 269t225 96q120 0 188.5 -67.5t87.5 -184.5q-50 -5 -91.5 -10.5t-57.5 -8.5l-16 -3q-16 151 -115 151q-68 0 -102.5 -63t-33.5 -177q0 -114 34 -178t104 -64q56 0 87 40.5t38 129.5l167 -15q-13 -140 -88.5 -210t-202.5 -70
zM232 737q-18 20 -58 56l126 130q21 -2 86 1q44 -49 125 -126q-18 -16 -58 -59q-43 45 -112 107q-42 -38 -109 -109z" />
    <glyph glyph-name="ccircumflex" unicode="&#x109;" horiz-adv-x="563" 
d="M292 -18q-121 0 -185 71t-64 199q0 120 65 193t180 73q99 0 157 -49.5t78 -134.5l-153 -18q-16 97 -83 97q-44 0 -69 -43.5t-25 -120.5q0 -76 25 -117t70 -41q33 0 53.5 22.5t31.5 72.5q48 -8 152 -21q-20 -92 -81.5 -137.5t-151.5 -45.5zM174 542q-18 20 -58 56l126 130
q21 -2 86 1q44 -49 125 -126q-18 -16 -58 -59q-43 45 -112 107q-42 -38 -109 -109z" />
    <glyph glyph-name="Ccaron" unicode="&#x10c;" horiz-adv-x="672" 
d="M348 -18q-147 0 -225 94.5t-78 270.5q0 173 79 269t225 96q120 0 188.5 -67.5t87.5 -184.5q-50 -5 -91.5 -10.5t-57.5 -8.5l-16 -3q-16 151 -115 151q-68 0 -102.5 -63t-33.5 -177q0 -114 34 -178t104 -64q56 0 87 40.5t38 129.5l167 -15q-13 -140 -88.5 -210t-202.5 -70
zM231 930l111 -108q68 57 111 109q36 -42 58 -59q-78 -69 -126 -128q-23 1 -85 1q-67 64 -127 128l33 32.5z" />
    <glyph glyph-name="ccaron" unicode="&#x10d;" horiz-adv-x="563" 
d="M292 -18q-121 0 -185 71t-64 199q0 120 65 193t180 73q99 0 157 -49.5t78 -134.5l-153 -18q-16 97 -83 97q-44 0 -69 -43.5t-25 -120.5q0 -76 25 -117t70 -41q33 0 53.5 22.5t31.5 72.5q48 -8 152 -21q-20 -92 -81.5 -137.5t-151.5 -45.5zM173 735l111 -108
q68 57 111 109q36 -42 58 -59q-78 -69 -126 -128q-23 1 -85 1q-67 64 -127 128l33 32.5z" />
    <glyph glyph-name="Dcaron" unicode="&#x10e;" horiz-adv-x="665" 
d="M217 111q10 -1 29 -1q106 0 159 53.5t53 184.5q0 112 -50 172t-151 60q-22 0 -46 -3zM61 -1v689q87 14 170 14q197 1 293.5 -91t96.5 -266q0 -180 -100 -267.5t-304 -88.5q-75 0 -156 10zM192 930l111 -108q68 57 111 109q36 -42 58 -59q-78 -69 -126 -128q-23 1 -85 1
q-67 64 -127 128l33.5 32.5z" />
    <glyph glyph-name="dcaron" unicode="&#x10f;" horiz-adv-x="600" 
d="M544 -10l-123 1q3 41 5 110q-22 -56 -68 -85.5t-103 -29.5q-97 0 -154.5 70t-57.5 194q0 121 56 194t153 73t148 -90q-3 179 -6 260q30 -1 151 1zM297 81q47 0 76.5 42.5t29.5 123.5q-2 79 -30 125.5t-79 46.5q-46 0 -71.5 -46.5t-25.5 -122.5q0 -81 26 -125t74 -44z
M743 620q0 -38 -31 -79t-81 -74l-36 37q34 25 61 65q-23 4 -36 20t-13 37q0 26 18.5 44t49.5 18t49.5 -18.5t18.5 -49.5z" />
    <glyph glyph-name="Dcroat" unicode="&#x110;" horiz-adv-x="704" 
d="M17 283l2 120q29 -2 82 -4l-2 289q88 14 171 14q197 1 293 -91t96 -266q0 -180 -99.5 -267.5t-303.5 -88.5q-76 0 -156 10q1 109 1 285zM255 111q11 -1 33 -1q104 0 156 54t52 184q0 231 -201 232q-22 0 -46 -3q0 -125 1 -181h105q-1 -32 1 -109q-41 0 -105 -1z" />
    <glyph glyph-name="dcroat" unicode="&#x111;" horiz-adv-x="600" 
d="M544 -10l-123 1q3 41 5 110q-22 -56 -68 -85.5t-103 -29.5q-97 0 -154.5 70t-57.5 194q0 121 56 194t153 73t148 -90q0 19 -2 111l-74 1l-2 86q48 0 74 1l-2 61q30 -1 151 1q0 -23 -1 -58l90 3l-3 -102l-87 3q-2 -197 0 -544zM297 81q47 0 76.5 42.5t29.5 123.5
q-2 79 -30 125.5t-79 46.5q-46 0 -71.5 -46.5t-25.5 -122.5q0 -81 26 -125t74 -44z" />
    <glyph glyph-name="Emacron" unicode="&#x112;" horiz-adv-x="565" 
d="M69 4q-1 286 -8 689l456 7q0 -42 2 -123q-132 -1 -306 -5q0 -68 1 -181q172 0 260 2q-1 -41 1 -120l-259 1q2 -104 4 -151q128 -3 305 -5q-1 -42 -1 -123q-225 7 -455 9zM155 788q1 26 -1 87q77 -2 289 2q-2 -27 -2 -88q-90 2 -286 -1z" />
    <glyph glyph-name="emacron" unicode="&#x113;" horiz-adv-x="581" 
d="M298 -19q-120 0 -187.5 72.5t-67.5 193.5q0 116 67 193.5t187 77.5q132 -1 191.5 -83t40.5 -210q-110 -1 -333 -6q11 -136 107 -136q75 0 105 85q44 -15 133 -36q-75 -151 -243 -151zM298 429q-41 0 -66.5 -33.5t-33.5 -95.5l191 8q-3 121 -91 121zM149 593q1 26 -1 87
q77 -2 289 2q-2 -27 -2 -88q-90 2 -286 -1z" />
    <glyph glyph-name="Edotaccent" unicode="&#x116;" horiz-adv-x="565" 
d="M69 4q-1 286 -8 689l456 7q0 -42 2 -123q-132 -1 -306 -5q0 -68 1 -181q172 0 260 2q-1 -41 1 -120l-259 1q2 -104 4 -151q128 -3 305 -5q-1 -42 -1 -123q-225 7 -455 9zM298 759q-41 0 -63 23.5t-22 57.5q0 33 22.5 55t62.5 22q41 0 63 -23.5t22 -55.5q0 -37 -23.5 -58
t-61.5 -21z" />
    <glyph glyph-name="edotaccent" unicode="&#x117;" horiz-adv-x="581" 
d="M298 -19q-120 0 -187.5 72.5t-67.5 193.5q0 116 67 193.5t187 77.5q132 -1 191.5 -83t40.5 -210q-110 -1 -333 -6q11 -136 107 -136q75 0 105 85q44 -15 133 -36q-75 -151 -243 -151zM298 429q-41 0 -66.5 -33.5t-33.5 -95.5l191 8q-3 121 -91 121zM292 564
q-41 0 -63 23.5t-22 57.5q0 33 22.5 55t62.5 22q41 0 63 -23.5t22 -55.5q0 -37 -23.5 -58t-61.5 -21z" />
    <glyph glyph-name="Eogonek" unicode="&#x118;" horiz-adv-x="565" 
d="M523 -212q-23 -3 -43 -3q-63 0 -100 26t-37 71q-1 33 21 64t66 52q-215 5 -361 6q-1 286 -8 689l456 7q0 -42 2 -123q-132 -1 -306 -5q0 -68 1 -181q172 0 260 2q-1 -41 1 -120l-259 1q2 -104 4 -151q128 -3 305 -5q-1 -32 -1 -113q-44 -17 -67 -44t-23 -50
q0 -24 25.5 -34.5t69.5 -7.5q-4 -27 -6 -81z" />
    <glyph glyph-name="eogonek" unicode="&#x119;" horiz-adv-x="581" 
d="M348 -224q-24 -3 -45 -3q-61 0 -98 26t-37 71q-1 32 20.5 62.5t63.5 51.5q-99 13 -154 83.5t-55 179.5q0 116 67 193.5t187 77.5q132 -1 191.5 -83t40.5 -210q-110 -1 -333 -6q11 -136 107 -136q75 0 105 85q44 -15 133 -36q-68 -138 -216 -150q-32 -18 -49 -40.5
t-17 -42.5q0 -24 25.5 -34.5t69.5 -7.5q-4 -27 -6 -81zM298 429q-41 0 -66.5 -33.5t-33.5 -95.5l191 8q-3 121 -91 121z" />
    <glyph glyph-name="Ecaron" unicode="&#x11a;" horiz-adv-x="565" 
d="M69 4q-1 286 -8 689l456 7q0 -42 2 -123q-132 -1 -306 -5q0 -68 1 -181q172 0 260 2q-1 -41 1 -120l-259 1q2 -104 4 -151q128 -3 305 -5q-1 -42 -1 -123q-225 7 -455 9zM187 930l111 -108q68 57 111 109q36 -42 58 -59q-78 -69 -126 -128q-23 1 -85 1q-67 64 -127 128
l33.5 32.5z" />
    <glyph glyph-name="ecaron" unicode="&#x11b;" horiz-adv-x="581" 
d="M298 -19q-120 0 -187.5 72.5t-67.5 193.5q0 116 67 193.5t187 77.5q132 -1 191.5 -83t40.5 -210q-110 -1 -333 -6q11 -136 107 -136q75 0 105 85q44 -15 133 -36q-75 -151 -243 -151zM298 429q-41 0 -66.5 -33.5t-33.5 -95.5l191 8q-3 121 -91 121zM181 735l111 -108
q68 57 111 109q36 -42 58 -59q-78 -69 -126 -128q-23 1 -85 1q-67 64 -127 128l33.5 32.5z" />
    <glyph glyph-name="Gcircumflex" unicode="&#x11c;" horiz-adv-x="687" 
d="M352 -23q-144 0 -225.5 93t-81.5 278q0 167 80 266.5t228 99.5q115 0 184 -61.5t89 -172.5q-65 -6 -155 -21q-9 62 -40 98t-81 36q-71 0 -108.5 -64t-37.5 -179q0 -255 164 -255q60 0 95.5 39.5t38.5 120.5q-65 4 -179 3q1 39 -1 116l316 -1q21 -191 -55.5 -293.5
t-230.5 -102.5zM226 737q-18 20 -58 56l126 130q21 -2 86 1q44 -49 125 -126q-18 -16 -58 -59q-43 45 -112 107q-42 -38 -109 -109z" />
    <glyph glyph-name="gcircumflex" unicode="&#x11d;" horiz-adv-x="552" 
d="M253 -277q-109 0 -172 36t-63 95q0 38 28 69.5t84 49.5q-51 27 -51 78q0 61 85 93q-63 23 -97.5 70.5t-33.5 113.5q0 88 67 142.5t169 54.5q112 0 175.5 -57.5t63.5 -143.5q0 -95 -68 -146t-164 -51l-39 2q-25 -14 -25 -31q0 -8 6.5 -13.5t28.5 -11t62 -8.5
q123 -9 173 -47t50 -107q0 -86 -77.5 -137t-201.5 -51zM270 217q44 0 70.5 27t26.5 81q0 44 -25.5 73t-71.5 29t-72.5 -28t-26.5 -74q0 -49 26.5 -78.5t72.5 -29.5zM393 -115q0 31 -44.5 44t-149.5 17q-37 -30 -37 -68q0 -29 27 -47t79 -18q57 0 91 21.5t34 50.5zM152 547
q-18 20 -58 56l126 130q21 -2 86 1q44 -49 125 -126q-18 -16 -58 -59q-43 45 -112 107q-42 -38 -109 -109z" />
    <glyph glyph-name="Gbreve" unicode="&#x11e;" horiz-adv-x="687" 
d="M352 -23q-144 0 -225.5 93t-81.5 278q0 167 80 266.5t228 99.5q115 0 184 -61.5t89 -172.5q-65 -6 -155 -21q-9 62 -40 98t-81 36q-71 0 -108.5 -64t-37.5 -179q0 -255 164 -255q60 0 95.5 39.5t38.5 120.5q-65 4 -179 3q1 39 -1 116l316 -1q21 -191 -55.5 -293.5
t-230.5 -102.5zM336 754q-79 0 -121 39t-40 106q36 -1 94 4q-1 -75 68 -75q31 0 48.5 21.5t14.5 63.5q31 -1 95 1q5 -78 -38 -119t-121 -41z" />
    <glyph glyph-name="gbreve" unicode="&#x11f;" horiz-adv-x="552" 
d="M253 -277q-109 0 -172 36t-63 95q0 38 28 69.5t84 49.5q-51 27 -51 78q0 61 85 93q-63 23 -97.5 70.5t-33.5 113.5q0 88 67 142.5t169 54.5q112 0 175.5 -57.5t63.5 -143.5q0 -95 -68 -146t-164 -51l-39 2q-25 -14 -25 -31q0 -8 6.5 -13.5t28.5 -11t62 -8.5
q123 -9 173 -47t50 -107q0 -86 -77.5 -137t-201.5 -51zM270 217q44 0 70.5 27t26.5 81q0 44 -25.5 73t-71.5 29t-72.5 -28t-26.5 -74q0 -49 26.5 -78.5t72.5 -29.5zM393 -115q0 31 -44.5 44t-149.5 17q-37 -30 -37 -68q0 -29 27 -47t79 -18q57 0 91 21.5t34 50.5zM265 559
q-79 0 -121 39t-40 106q36 -1 94 4q-2 -75 68 -75q31 0 48.5 21.5t14.5 63.5q31 -1 95 1q5 -78 -38 -119t-121 -41z" />
    <glyph glyph-name="Gcommaaccent" unicode="&#x122;" horiz-adv-x="687" 
d="M352 -23q-144 0 -225.5 93t-81.5 278q0 167 80 266.5t228 99.5q115 0 184 -61.5t89 -172.5q-65 -6 -155 -21q-9 62 -40 98t-81 36q-71 0 -108.5 -64t-37.5 -179q0 -255 164 -255q60 0 95.5 39.5t38.5 120.5q-65 4 -179 3q1 39 -1 116l316 -1q21 -191 -55.5 -293.5
t-230.5 -102.5zM416 -119q0 -38 -31 -79t-81 -74l-36 37q34 25 61 65q-23 4 -36 20t-13 37q0 26 18.5 44t49.5 18t49.5 -18.5t18.5 -49.5z" />
    <glyph glyph-name="gcommaaccent" unicode="&#x123;" horiz-adv-x="552" 
d="M253 -277q-109 0 -172 36t-63 95q0 38 28 69.5t84 49.5q-51 27 -51 78q0 61 85 93q-63 23 -97.5 70.5t-33.5 113.5q0 88 67 142.5t169 54.5q112 0 175.5 -57.5t63.5 -143.5q0 -95 -68 -146t-164 -51l-39 2q-25 -14 -25 -31q0 -8 6.5 -13.5t28.5 -11t62 -8.5
q123 -9 173 -47t50 -107q0 -86 -77.5 -137t-201.5 -51zM270 217q44 0 70.5 27t26.5 81q0 44 -25.5 73t-71.5 29t-72.5 -28t-26.5 -74q0 -49 26.5 -78.5t72.5 -29.5zM393 -115q0 31 -44.5 44t-149.5 17q-37 -30 -37 -68q0 -29 27 -47t79 -18q57 0 91 21.5t34 50.5zM198 637
q0 38 31 79t81 74l36 -37q-34 -25 -61 -65q23 -4 36 -20t13 -37q0 -26 -18.5 -44t-49.5 -18t-49.5 18.5t-18.5 49.5z" />
    <glyph glyph-name="Hcircumflex" unicode="&#x124;" horiz-adv-x="642" 
d="M429 -19v244q-50 2 -214 -1l3 -206q-76 1 -153 -1q1 261 -4 660q63 0 150 1q1 -130 3 -323q5 0 39 -0.5t71 -0.5h104q0 61 -1.5 192t-1.5 168q67 -1 153 1q0 -327 3 -735zM211 737q-18 20 -58 56l126 130q21 -2 86 1q44 -49 125 -126q-18 -16 -58 -59q-43 45 -112 107
q-42 -38 -109 -109z" />
    <glyph glyph-name="hcircumflex" unicode="&#x125;" horiz-adv-x="570" 
d="M56 18q4 285 0 660q51 0 146 1l-1 -277q22 53 64 84t96 31q74 0 113.5 -47t41.5 -133q3 -79 3.5 -168t-0.5 -139l-1 -49q-59 1 -145 1q3 150 0 312q-1 49 -16.5 73.5t-50.5 24.5q-46 0 -73 -42.5t-28 -102.5l-1 -228q-59 1 -148 -1zM16 686q-18 20 -58 56l126 130
q21 -2 86 1q44 -49 125 -126q-18 -16 -58 -59q-43 45 -112 107q-42 -38 -109 -109z" />
    <glyph glyph-name="Imacron" unicode="&#x12a;" horiz-adv-x="300" 
d="M75 -1q0 307 -4 695q55 0 153 1q1 -335 5 -696q-67 1 -154 0zM7 788q1 26 -1 87q77 -2 289 2q-2 -27 -2 -88q-90 2 -286 -1z" />
    <glyph glyph-name="imacron" unicode="&#x12b;" horiz-adv-x="277" 
d="M68 1q1 133 -3 499q56 0 146 2q0 -229 4 -500q-63 1 -147 -1zM-3 593q1 26 -1 87q77 -2 289 2q-2 -27 -2 -88q-90 2 -286 -1z" />
    <glyph glyph-name="Iogonek" unicode="&#x12e;" horiz-adv-x="300" 
d="M212 -208q-24 -3 -45 -3q-61 0 -98 26t-37 71q-1 32 20 62.5t63 51.5l-40 -1q0 307 -4 695q55 0 153 1q1 -335 5 -696q-17 1 -37 1q-34 -18 -51.5 -41t-17.5 -44q0 -24 25.5 -34.5t69.5 -7.5q-4 -27 -6 -81z" />
    <glyph glyph-name="iogonek" unicode="&#x12f;" horiz-adv-x="277" 
d="M204 -206q-24 -3 -45 -3q-61 0 -98 26t-37 71q-1 32 20.5 62.5t63.5 51.5l-40 -1q1 133 -3 499q56 0 146 2q0 -229 4 -500h-30q-34 -17 -52 -40.5t-18 -44.5q0 -24 25.5 -34.5t69.5 -7.5q-4 -27 -6 -81zM140 552q-48 0 -75 22.5t-27 62.5q0 38 28 60t74 22t72.5 -22.5
t26.5 -59.5q0 -41 -26 -63t-73 -22z" />
    <glyph glyph-name="Idotaccent" unicode="&#x130;" horiz-adv-x="300" 
d="M75 -1q0 307 -4 695q55 0 153 1q1 -335 5 -696q-67 1 -154 0zM150 759q-41 0 -63 23.5t-22 57.5q0 33 22.5 55t62.5 22q41 0 63 -23.5t22 -55.5q0 -37 -23.5 -58t-61.5 -21z" />
    <glyph glyph-name="dotlessi" unicode="&#x131;" horiz-adv-x="277" 
d="M68 1q1 133 -3 499q56 0 146 2q0 -229 4 -500q-63 1 -147 -1z" />
    <glyph glyph-name="Jcircumflex" unicode="&#x134;" horiz-adv-x="576" 
d="M284 -15q-140 0 -199.5 86t-46.5 265q59 -4 156 -6q-9 -114 13.5 -163.5t73.5 -49.5q44 0 65.5 40t21.5 136q0 104 -2 206t-4 152l-1 50q62 0 165 5q-2 -149 -2 -412q0 -309 -240 -309zM328 737q-18 20 -58 56l126 130q21 -2 86 1q44 -49 125 -126q-18 -16 -58 -59
q-43 45 -112 107q-42 -38 -109 -109z" />
    <glyph glyph-name="jcircumflex" unicode="&#x135;" horiz-adv-x="275" 
d="M-57 -217q4 42 4 123q32 -4 43 -4q39 0 57.5 19t19.5 62q1 113 0.5 228t-1.5 201l-1 87l143 1q1 -25 2 -69t2.5 -187t-0.5 -275q-1 -191 -198 -191q-40 0 -71 5zM26 542q-18 20 -58 56l126 130q21 -2 86 1q44 -49 125 -126q-18 -16 -58 -59q-43 45 -112 107
q-42 -38 -109 -109z" />
    <glyph glyph-name="Kcommaaccent" unicode="&#x136;" horiz-adv-x="640" 
d="M454 -24q-108 202 -159 289l-83 -122l2 -129l-153 -1v666l151 -1q-2 -268 -1 -356l237 389l169 -7q-143 -217 -211 -332l216 -387zM397 -119q0 -38 -31 -79t-81 -74l-36 37q34 25 61 65q-23 4 -36 20t-13 37q0 26 18.5 44t49.5 18t49.5 -18.5t18.5 -49.5z" />
    <glyph glyph-name="kcommaaccent" unicode="&#x137;" horiz-adv-x="552" 
d="M381 -22l-116 231q-44 -57 -63 -85l2 -108l-148 2q2 213 2 378.5t-1 223.5l-1 59l147 -1q-1 -199 -1 -415l87.5 140.5l54.5 90.5l15 27l171 -6l-160 -214l169 -316zM377 -119q0 -38 -31 -79t-81 -74l-36 37q34 25 61 65q-23 4 -36 20t-13 37q0 26 18.5 44t49.5 18
t49.5 -18.5t18.5 -49.5z" />
    <glyph glyph-name="Lacute" unicode="&#x139;" horiz-adv-x="522" 
d="M67 3q-1 324 -6 686q47 -2 152 0q-1 -143 4 -553l280 -4l-1 -134zM168 741l-69 49l128 168l88 -63z" />
    <glyph glyph-name="lacute" unicode="&#x13a;" horiz-adv-x="269" 
d="M207 5l-147 2l1 684l148 -2q-2 -242 -2.5 -413t-0.5 -221zM137 726l-69 49l128 168l88 -63z" />
    <glyph glyph-name="Lcommaaccent" unicode="&#x13b;" horiz-adv-x="522" 
d="M67 3q-1 324 -6 686q47 -2 152 0q-1 -143 4 -553l280 -4l-1 -134zM359 -119q0 -38 -31 -79t-81 -74l-36 37q34 25 61 65q-23 4 -36 20t-13 37q0 26 18.5 44t49.5 18t49.5 -18.5t18.5 -49.5z" />
    <glyph glyph-name="lcommaaccent" unicode="&#x13c;" horiz-adv-x="269" 
d="M207 5l-147 2l1 684l148 -2q-2 -242 -2.5 -413t-0.5 -221zM206 -119q0 -38 -31 -79t-81 -74l-36 37q34 25 61 65q-23 4 -36 20t-13 37q0 26 18.5 44t49.5 18t49.5 -18.5t18.5 -49.5z" />
    <glyph glyph-name="Lcaron" unicode="&#x13d;" horiz-adv-x="522" 
d="M67 3q-1 324 -6 686q47 -2 152 0q-1 -143 4 -553l280 -4l-1 -134zM445 679q0 -38 -31 -79t-81 -74l-36 37q34 25 61 65q-23 4 -36 20t-13 37q0 26 18.5 44t49.5 18t49.5 -18.5t18.5 -49.5z" />
    <glyph glyph-name="lcaron" unicode="&#x13e;" horiz-adv-x="269" 
d="M207 5l-147 2l1 684l148 -2q-2 -242 -2.5 -413t-0.5 -221zM407 623q0 -38 -31 -79t-81 -74l-36 37q34 25 61 65q-23 4 -36 20t-13 37q0 26 18.5 44t49.5 18t49.5 -18.5t18.5 -49.5z" />
    <glyph glyph-name="Lslash" unicode="&#x141;" horiz-adv-x="552" 
d="M19 263l2 124l74 19l-3 283q47 -2 153 0q-2 -69 0 -241l117 34q-2 -39 1 -117l-117 -33l3 -200l277 -4l-1 -130l-427 5q0 114 -2 284z" />
    <glyph glyph-name="lslash" unicode="&#x142;" horiz-adv-x="337" 
d="M20 281l-1 111l77 24l-1 275l148 -2q-2 -172 -2 -226l24.5 8t21 7l15.5 5.5t12 4.5l4 1l-2 -115l-76 -23l1 -346l-147 2l2 299z" />
    <glyph glyph-name="Nacute" unicode="&#x143;" horiz-adv-x="667" 
d="M64 18q2 248 -3 654q82 5 164 8q110 -235 250 -500q-6 247 -19 534q60 -1 139 -1q2 -279 12 -723q-72 -5 -159 -10l-258 502q8 -321 13 -466q-61 2 -139 2zM325 741l-69 49l128 168l88 -63z" />
    <glyph glyph-name="nacute" unicode="&#x144;" horiz-adv-x="568" 
d="M370 -20l2 314q-1 48 -16 72.5t-52 24.5q-44 0 -71.5 -40t-28.5 -99l-1 -235q-82 2 -148 0l1 471q63 -1 118 1l-1 -114q27 69 74.5 105.5t108.5 35.5q152 -1 159 -182l2 -353zM283 546l-69 49l128 168l88 -63z" />
    <glyph glyph-name="Ncommaaccent" unicode="&#x145;" horiz-adv-x="667" 
d="M64 18q2 248 -3 654q82 5 164 8q110 -235 250 -500q-6 247 -19 534q60 -1 139 -1q2 -279 12 -723q-72 -5 -159 -10l-258 502q8 -321 13 -466q-61 2 -139 2zM414 -119q0 -38 -31 -79t-81 -74l-36 37q34 25 61 65q-23 4 -36 20t-13 37q0 26 18.5 44t49.5 18t49.5 -18.5
t18.5 -49.5z" />
    <glyph glyph-name="ncommaaccent" unicode="&#x146;" horiz-adv-x="568" 
d="M370 -20l2 314q-1 48 -16 72.5t-52 24.5q-44 0 -71.5 -40t-28.5 -99l-1 -235q-82 2 -148 0l1 471q63 -1 118 1l-1 -114q27 69 74.5 105.5t108.5 35.5q152 -1 159 -182l2 -353zM372 -119q0 -38 -31 -79t-81 -74l-36 37q34 25 61 65q-23 4 -36 20t-13 37q0 26 18.5 44
t49.5 18t49.5 -18.5t18.5 -49.5z" />
    <glyph glyph-name="Ncaron" unicode="&#x147;" horiz-adv-x="667" 
d="M64 18q2 248 -3 654q82 5 164 8q110 -235 250 -500q-6 247 -19 534q60 -1 139 -1q2 -279 12 -723q-72 -5 -159 -10l-258 502q8 -321 13 -466q-61 2 -139 2zM223 930l111 -108q68 57 111 109q36 -42 58 -59q-78 -69 -126 -128q-23 1 -85 1q-67 64 -127 128l33 32.5z" />
    <glyph glyph-name="ncaron" unicode="&#x148;" horiz-adv-x="568" 
d="M370 -20l2 314q-1 48 -16 72.5t-52 24.5q-44 0 -71.5 -40t-28.5 -99l-1 -235q-82 2 -148 0l1 471q63 -1 118 1l-1 -114q27 69 74.5 105.5t108.5 35.5q152 -1 159 -182l2 -353zM181 735l111 -108q68 57 111 109q36 -42 58 -59q-78 -69 -126 -128q-23 1 -85 1
q-67 64 -127 128l33.5 32.5z" />
    <glyph glyph-name="Omacron" unicode="&#x14c;" horiz-adv-x="702" 
d="M351 -21q-143 1 -224 95.5t-81 266.5q-2 172 80.5 271.5t226.5 99.5q146 0 225 -98t79 -271q0 -180 -82 -272t-224 -92zM351 100q65 0 103 59.5t38 185.5q0 123 -36.5 184.5t-103.5 61.5q-69 0 -105.5 -63t-36.5 -184q-1 -119 36 -181.5t105 -62.5zM208 788q1 26 -1 87
q77 -2 289 2q-2 -27 -2 -88q-90 2 -286 -1z" />
    <glyph glyph-name="omacron" unicode="&#x14d;" horiz-adv-x="596" 
d="M296 -15q-120 0 -186.5 71t-66.5 201q0 120 69.5 190.5t184.5 70.5q119 0 187.5 -71.5t68.5 -193.5q0 -132 -71 -200t-186 -68zM298 84q102 0 102 170q0 78 -25.5 121t-75.5 43q-48 0 -76 -41.5t-28 -118.5q0 -174 103 -174zM155 593q1 26 -1 87q77 -2 289 2
q-2 -27 -2 -88q-90 2 -286 -1z" />
    <glyph glyph-name="Ohungarumlaut" unicode="&#x150;" horiz-adv-x="702" 
d="M351 -21q-143 1 -224 95.5t-81 266.5q-2 172 80.5 271.5t226.5 99.5q146 0 225 -98t79 -271q0 -180 -82 -272t-224 -92zM351 100q65 0 103 59.5t38 185.5q0 123 -36.5 184.5t-103.5 61.5q-69 0 -105.5 -63t-36.5 -184q-1 -119 36 -181.5t105 -62.5zM427 742l-71 39
l112 173l89 -48zM257 748q-22 13 -39.5 22t-24.5 12l-7 3l109 174l88 -49z" />
    <glyph glyph-name="ohungarumlaut" unicode="&#x151;" horiz-adv-x="596" 
d="M296 -15q-120 0 -186.5 71t-66.5 201q0 120 69.5 190.5t184.5 70.5q119 0 187.5 -71.5t68.5 -193.5q0 -132 -71 -200t-186 -68zM298 84q102 0 102 170q0 78 -25.5 121t-75.5 43q-48 0 -76 -41.5t-28 -118.5q0 -174 103 -174zM374 547l-71 39l112 173l89 -48zM204 553
q-22 13 -39.5 22t-24.5 12l-7 3l109 174l88 -49z" />
    <glyph glyph-name="OE" unicode="&#x152;" horiz-adv-x="989" 
d="M899 274l-255 1q0 -73 3 -148q14 -1 39.5 -2t104.5 -2t159 -1q-3 -56 -3 -128q-105 9 -443 14q1 19 0 69q-27 -49 -78.5 -77.5t-108.5 -28.5q-124 0 -198 97.5t-74 272.5q0 160 76.5 267t195.5 107q125 0 178 -94l-1 66q118 -1 448 11q0 -57 3 -125q-137 1 -301 -4
q-1 -83 -1 -179q215 0 255 1q-1 -51 1 -117zM351 92q66 0 103.5 62t37.5 190q0 120 -36.5 185.5t-107.5 65.5q-68 0 -103.5 -66t-35.5 -186t36.5 -185.5t105.5 -65.5z" />
    <glyph glyph-name="oe" unicode="&#x153;" horiz-adv-x="941" 
d="M666 -23q-142 0 -197 106q-28 -46 -75.5 -71t-104.5 -25q-116 0 -181 71.5t-65 202.5q0 118 66.5 189t177.5 71q130 0 189 -100q56 92 189 92q122 0 180.5 -76.5t41.5 -212.5q-82 1 -333 -6q5 -69 34 -104.5t76 -35.5q68 0 106 87q45 -17 130 -40q-34 -69 -95.5 -108.5
t-138.5 -39.5zM300 86q46 0 73 41.5t27 126.5q0 77 -25 122.5t-76 45.5q-50 0 -77.5 -43t-27.5 -119q0 -174 106 -174zM656 428q-41 0 -67.5 -33.5t-33.5 -96.5q6 0 75.5 3l117.5 5q0 57 -23.5 89.5t-68.5 32.5z" />
    <glyph glyph-name="Racute" unicode="&#x154;" horiz-adv-x="631" 
d="M461 -26l-143 281q-41 -4 -108 -2l4 -240q-81 1 -151 -1q2 252 -2 672q108 23 204 23q158 1 243 -58.5t85 -169.5q0 -145 -137 -196l158 -288zM210 365q32 -4 68 -4q163 0 163 112q0 53 -38 83.5t-115 30.5q-39 0 -81 -7zM302 741l-69 49l128 168l88 -63z" />
    <glyph glyph-name="racute" unicode="&#x155;" horiz-adv-x="404" 
d="M56 0q1 245 -1 491q43 -1 122 1q-2 -55 -2 -118q25 67 79.5 104t125.5 34q-2 -51 -3 -137q-94 -7 -133.5 -52t-41.5 -145l2 -177q-52 0 -148 -1zM224 546l-69 49l128 168l88 -63z" />
    <glyph glyph-name="Rcommaaccent" unicode="&#x156;" horiz-adv-x="631" 
d="M461 -26l-143 281q-41 -4 -108 -2l4 -240q-81 1 -151 -1q2 252 -2 672q108 23 204 23q158 1 243 -58.5t85 -169.5q0 -145 -137 -196l158 -288zM210 365q32 -4 68 -4q163 0 163 112q0 53 -38 83.5t-115 30.5q-39 0 -81 -7zM391 -119q0 -38 -31 -79t-81 -74l-36 37
q34 25 61 65q-23 4 -36 20t-13 37q0 26 18.5 44t49.5 18t49.5 -18.5t18.5 -49.5z" />
    <glyph glyph-name="rcommaaccent" unicode="&#x157;" horiz-adv-x="404" 
d="M56 0q1 245 -1 491q43 -1 122 1q-2 -55 -2 -118q25 67 79.5 104t125.5 34q-2 -51 -3 -137q-94 -7 -133.5 -52t-41.5 -145l2 -177q-52 0 -148 -1zM195 -119q0 -38 -31 -79t-81 -74l-36 37q34 25 61 65q-23 4 -36 20t-13 37q0 26 18.5 44t49.5 18t49.5 -18.5t18.5 -49.5z
" />
    <glyph glyph-name="Rcaron" unicode="&#x158;" horiz-adv-x="631" 
d="M461 -26l-143 281q-41 -4 -108 -2l4 -240q-81 1 -151 -1q2 252 -2 672q108 23 204 23q158 1 243 -58.5t85 -169.5q0 -145 -137 -196l158 -288zM210 365q32 -4 68 -4q163 0 163 112q0 53 -38 83.5t-115 30.5q-39 0 -81 -7zM200 930l111 -108q68 57 111 109q36 -42 58 -59
q-78 -69 -126 -128q-23 1 -85 1q-67 64 -127 128l33 32.5z" />
    <glyph glyph-name="rcaron" unicode="&#x159;" horiz-adv-x="404" 
d="M56 0q1 245 -1 491q43 -1 122 1q-2 -55 -2 -118q25 67 79.5 104t125.5 34q-2 -51 -3 -137q-94 -7 -133.5 -52t-41.5 -145l2 -177q-52 0 -148 -1zM122 735l111 -108q68 57 111 109q36 -42 58 -59q-78 -69 -126 -128q-23 1 -85 1q-67 64 -127 128l33.5 32.5z" />
    <glyph glyph-name="Sacute" unicode="&#x15a;" horiz-adv-x="626" 
d="M309 -19q-122 2 -195 62.5t-84 182.5q57 1 165 13q1 -69 33 -106t88 -38q47 -1 77 20t30 61q0 39 -35 65.5t-137 55.5q-100 28 -149.5 78t-49.5 135q0 91 71 147t188 56q119 0 189 -61.5t80 -176.5q-69 -3 -155 -11q2 62 -27 98t-84 36q-48 0 -75.5 -22t-27.5 -58
q0 -41 34.5 -68.5t123.5 -51.5q124 -33 170.5 -83.5t46.5 -126.5q0 -97 -75.5 -153t-201.5 -54zM299 741l-69 49l128 168l88 -63z" />
    <glyph glyph-name="sacute" unicode="&#x15b;" horiz-adv-x="528" 
d="M270 -24q-99 0 -165.5 42.5t-83.5 134.5q61 6 143 20q19 -94 107 -96q36 0 58 14.5t22 39.5t-25 41t-99 32q-92 20 -136 58t-44 106q0 70 60 113t154 43q190 0 232 -168q-58 -7 -130 -21q-9 39 -34.5 63t-66.5 24q-32 0 -52 -14t-20 -39q0 -27 27 -43t97 -32
q102 -23 141 -59.5t39 -95.5q0 -78 -63 -120.5t-161 -42.5zM248 546l-69 49l128 168l88 -63z" />
    <glyph glyph-name="Scircumflex" unicode="&#x15c;" horiz-adv-x="626" 
d="M309 -19q-122 2 -195 62.5t-84 182.5q57 1 165 13q1 -69 33 -106t88 -38q47 -1 77 20t30 61q0 39 -35 65.5t-137 55.5q-100 28 -149.5 78t-49.5 135q0 91 71 147t188 56q119 0 189 -61.5t80 -176.5q-69 -3 -155 -11q2 62 -27 98t-84 36q-48 0 -75.5 -22t-27.5 -58
q0 -41 34.5 -68.5t123.5 -51.5q124 -33 170.5 -83.5t46.5 -126.5q0 -97 -75.5 -153t-201.5 -54zM198 737q-18 20 -58 56l126 130q21 -2 86 1q44 -49 125 -126q-18 -16 -58 -59q-43 45 -112 107q-42 -38 -109 -109z" />
    <glyph glyph-name="scircumflex" unicode="&#x15d;" horiz-adv-x="528" 
d="M270 -24q-99 0 -165.5 42.5t-83.5 134.5q61 6 143 20q19 -94 107 -96q36 0 58 14.5t22 39.5t-25 41t-99 32q-92 20 -136 58t-44 106q0 70 60 113t154 43q190 0 232 -168q-58 -7 -130 -21q-9 39 -34.5 63t-66.5 24q-32 0 -52 -14t-20 -39q0 -27 27 -43t97 -32
q102 -23 141 -59.5t39 -95.5q0 -78 -63 -120.5t-161 -42.5zM147 542q-18 20 -58 56l126 130q21 -2 86 1q44 -49 125 -126q-18 -16 -58 -59q-43 45 -112 107q-42 -38 -109 -109z" />
    <glyph glyph-name="Scedilla" unicode="&#x15e;" horiz-adv-x="626" 
d="M586 188q0 -90 -65 -144.5t-176 -61.5q0 -2 -0.5 -19.5t-0.5 -32.5q54 -1 82.5 -22t28.5 -54q0 -42 -39.5 -66.5t-109.5 -24.5q-54 0 -104 24q7 25 14 60q43 -22 84 -22q53 0 53 31q0 38 -96 29q8 36 18 98q-107 9 -171 69.5t-74 173.5q57 1 165 13q1 -69 33 -106t88 -38
q47 -1 77 20t30 61q0 39 -35 65.5t-137 55.5q-100 28 -149.5 78t-49.5 135q0 91 71 147t188 56q119 0 189 -61.5t80 -176.5q-69 -3 -155 -11q2 62 -27 98t-84 36q-48 0 -75.5 -22t-27.5 -58q0 -41 34.5 -68.5t123.5 -51.5q124 -33 170.5 -83.5t46.5 -126.5z" />
    <glyph glyph-name="scedilla" unicode="&#x15f;" horiz-adv-x="528" 
d="M494 139q0 -73 -56 -114.5t-144 -47.5q-1 -10 -1 -47q54 -1 82.5 -22t28.5 -54q0 -42 -39.5 -66.5t-109.5 -24.5q-54 0 -104 24q7 25 14 60q43 -22 84 -22q53 0 53 31q0 38 -96 29q8 35 18 94q-174 19 -203 174q61 6 143 20q19 -94 107 -96q36 0 58 14.5t22 39.5t-25 41
t-99 32q-92 20 -136 58t-44 106q0 70 60 113t154 43q190 0 232 -168q-58 -7 -130 -21q-9 39 -34.5 63t-66.5 24q-32 0 -52 -14t-20 -39q0 -27 27 -43t97 -32q102 -23 141 -59.5t39 -95.5z" />
    <glyph glyph-name="Scaron" unicode="&#x160;" horiz-adv-x="626" 
d="M309 -19q-122 2 -195 62.5t-84 182.5q57 1 165 13q1 -69 33 -106t88 -38q47 -1 77 20t30 61q0 39 -35 65.5t-137 55.5q-100 28 -149.5 78t-49.5 135q0 91 71 147t188 56q119 0 189 -61.5t80 -176.5q-69 -3 -155 -11q2 62 -27 98t-84 36q-48 0 -75.5 -22t-27.5 -58
q0 -41 34.5 -68.5t123.5 -51.5q124 -33 170.5 -83.5t46.5 -126.5q0 -97 -75.5 -153t-201.5 -54zM197 930l111 -108q68 57 111 109q36 -42 58 -59q-78 -69 -126 -128q-23 1 -85 1q-67 64 -127 128l33 32.5z" />
    <glyph glyph-name="scaron" unicode="&#x161;" horiz-adv-x="528" 
d="M270 -24q-99 0 -165.5 42.5t-83.5 134.5q61 6 143 20q19 -94 107 -96q36 0 58 14.5t22 39.5t-25 41t-99 32q-92 20 -136 58t-44 106q0 70 60 113t154 43q190 0 232 -168q-58 -7 -130 -21q-9 39 -34.5 63t-66.5 24q-32 0 -52 -14t-20 -39q0 -27 27 -43t97 -32
q102 -23 141 -59.5t39 -95.5q0 -78 -63 -120.5t-161 -42.5zM146 735l111 -108q68 57 111 109q36 -42 58 -59q-78 -69 -126 -128q-23 1 -85 1q-67 64 -127 128l33.5 32.5z" />
    <glyph glyph-name="Tcommaaccent" unicode="&#x162;" horiz-adv-x="567" 
d="M27 562q0 53 -1 134q285 0 515 3l-1 -136h-179q0 -270 4 -569q-68 0 -155 -1q1 225 -2 570zM363 -119q0 -38 -31 -79t-81 -74l-36 37q34 25 61 65q-23 4 -36 20t-13 37q0 26 18.5 44t49.5 18t49.5 -18.5t18.5 -49.5z" />
    <glyph glyph-name="tcommaaccent" unicode="&#x163;" horiz-adv-x="442" 
d="M407 21q-83 -25 -137 -25q-172 0 -175 190q-2 69 -2 207h-73l-1 116l75 -2l2 135l144 -1q-2 -56 -3 -135h162l-1 -115q-116 2 -162 2q0 -96 3 -186q3 -85 71 -85q33 0 84 16zM323 -119q0 -38 -31 -79t-81 -74l-36 37q34 25 61 65q-23 4 -36 20t-13 37q0 26 18.5 44
t49.5 18t49.5 -18.5t18.5 -49.5z" />
    <glyph glyph-name="Tcaron" unicode="&#x164;" horiz-adv-x="567" 
d="M27 562q0 53 -1 134q285 0 515 3l-1 -136h-179q0 -270 4 -569q-68 0 -155 -1q1 225 -2 570zM172 930l111 -108q68 57 111 109q36 -42 58 -59q-78 -69 -126 -128q-23 1 -85 1q-67 64 -127 128l33 32.5z" />
    <glyph glyph-name="tcaron" unicode="&#x165;" horiz-adv-x="442" 
d="M407 21q-83 -25 -137 -25q-172 0 -175 190q-2 69 -2 207h-73l-1 116l75 -2l2 135l144 -1q-2 -56 -3 -135h162l-1 -115q-116 2 -162 2q0 -96 3 -186q3 -85 71 -85q33 0 84 16zM443 720q0 -38 -31 -79t-81 -74l-36 37q34 25 61 65q-23 4 -36 20t-13 37q0 26 18.5 44
t49.5 18t49.5 -18.5t18.5 -49.5z" />
    <glyph glyph-name="Umacron" unicode="&#x16a;" 
d="M330 -14q-145 0 -210 83.5t-65 263.5l-1 340q56 -5 156 -7q-2 -194 -2 -294q0 -141 28 -198t90 -57q61 0 87.5 52t26.5 187l-6 347q59 -3 162 2q-1 -214 -1 -364q0 -182 -65.5 -268.5t-199.5 -86.5zM182 788q1 26 -1 87q77 -2 289 2q-2 -27 -2 -88q-90 2 -286 -1z" />
    <glyph glyph-name="umacron" unicode="&#x16b;" horiz-adv-x="565" 
d="M227 -3q-176 0 -176 236l-1 260q49 -3 147 -4q-4 -110 -4 -265q0 -108 78 -108q40 0 65.5 37.5t27.5 103.5t2 124.5t-2 98.5l-1 40q36 -2 146 -2q-2 -217 1 -529l-123 1q2 48 2 113q-22 -50 -64.5 -78t-97.5 -28zM137 593q1 26 -1 87q77 -2 289 2q-2 -27 -2 -88
q-90 2 -286 -1z" />
    <glyph glyph-name="Ubreve" unicode="&#x16c;" 
d="M330 -14q-145 0 -210 83.5t-65 263.5l-1 340q56 -5 156 -7q-2 -194 -2 -294q0 -141 28 -198t90 -57q61 0 87.5 52t26.5 187l-6 347q59 -3 162 2q-1 -214 -1 -364q0 -182 -65.5 -268.5t-199.5 -86.5zM325 754q-79 0 -121 39t-40 106q36 -1 94 4q-2 -75 68 -75
q31 0 48.5 21.5t14.5 63.5q31 -1 95 1q5 -78 -38 -119t-121 -41z" />
    <glyph glyph-name="ubreve" unicode="&#x16d;" horiz-adv-x="565" 
d="M227 -3q-176 0 -176 236l-1 260q49 -3 147 -4q-4 -110 -4 -265q0 -108 78 -108q40 0 65.5 37.5t27.5 103.5t2 124.5t-2 98.5l-1 40q36 -2 146 -2q-2 -217 1 -529l-123 1q2 48 2 113q-22 -50 -64.5 -78t-97.5 -28zM281 559q-79 0 -121 39t-40 106q36 -1 94 4
q-2 -75 68 -75q31 0 48.5 21.5t14.5 63.5q31 -1 95 1q5 -78 -38 -119t-121 -41z" />
    <glyph glyph-name="Uring" unicode="&#x16e;" 
d="M330 -14q-145 0 -210 83.5t-65 263.5l-1 340q56 -5 156 -7q-2 -194 -2 -294q0 -141 28 -198t90 -57q61 0 87.5 52t26.5 187l-6 347q59 -3 162 2q-1 -214 -1 -364q0 -182 -65.5 -268.5t-199.5 -86.5zM323 744q-57 0 -90.5 30.5t-33.5 80.5q0 48 34.5 78t89.5 30
q61 0 94.5 -31.5t33.5 -76.5q0 -53 -35.5 -82t-92.5 -29zM326 795q26 0 42.5 16.5t16.5 43.5q0 25 -15.5 42.5t-43.5 17.5q-27 0 -43.5 -16.5t-16.5 -42.5q0 -25 16 -43t44 -18z" />
    <glyph glyph-name="uring" unicode="&#x16f;" horiz-adv-x="565" 
d="M227 -3q-176 0 -176 236l-1 260q49 -3 147 -4q-4 -110 -4 -265q0 -108 78 -108q40 0 65.5 37.5t27.5 103.5t2 124.5t-2 98.5l-1 40q36 -2 146 -2q-2 -217 1 -529l-123 1q2 48 2 113q-22 -50 -64.5 -78t-97.5 -28zM278 549q-57 0 -90.5 30.5t-33.5 80.5q0 48 34.5 78
t89.5 30q61 0 94.5 -31.5t33.5 -76.5q0 -53 -35.5 -82t-92.5 -29zM281 600q26 0 42.5 16.5t16.5 43.5q0 25 -15.5 42.5t-43.5 17.5q-27 0 -43.5 -16.5t-16.5 -42.5q0 -25 16 -43t44 -18z" />
    <glyph glyph-name="Uhungarumlaut" unicode="&#x170;" 
d="M330 -14q-145 0 -210 83.5t-65 263.5l-1 340q56 -5 156 -7q-2 -194 -2 -294q0 -141 28 -198t90 -57q61 0 87.5 52t26.5 187l-6 347q59 -3 162 2q-1 -214 -1 -364q0 -182 -65.5 -268.5t-199.5 -86.5zM401 742l-71 39l112 173l89 -48zM231 748q-22 13 -39.5 22t-24.5 12
l-7 3l109 174l88 -49z" />
    <glyph glyph-name="uhungarumlaut" unicode="&#x171;" horiz-adv-x="565" 
d="M227 -3q-176 0 -176 236l-1 260q49 -3 147 -4q-4 -110 -4 -265q0 -108 78 -108q40 0 65.5 37.5t27.5 103.5t2 124.5t-2 98.5l-1 40q36 -2 146 -2q-2 -217 1 -529l-123 1q2 48 2 113q-22 -50 -64.5 -78t-97.5 -28zM356 547l-71 39l112 173l89 -48zM186 553
q-22 13 -39.5 22t-24.5 12l-7 3l109 174l88 -49z" />
    <glyph glyph-name="Uogonek" unicode="&#x172;" 
d="M369 -218q-24 -3 -45 -3q-61 0 -98 26t-37 71q-1 32 20 62.5t63 51.5q-113 15 -165 98t-52 245l-1 340q56 -5 156 -7q-2 -194 -2 -294q0 -141 28 -198t90 -57q61 0 87.5 52t26.5 187l-6 347q59 -3 162 2q-1 -214 -1 -364q0 -178 -62.5 -264.5t-190.5 -90.5
q-62 -35 -62 -81q0 -24 25.5 -34.5t69.5 -7.5q-4 -27 -6 -81z" />
    <glyph glyph-name="uogonek" unicode="&#x173;" horiz-adv-x="565" 
d="M467 -216q-24 -3 -45 -3q-61 0 -98 26t-37 71q-1 36 24.5 69t75.5 53q2 32 2 103q-22 -50 -64.5 -78t-97.5 -28q-176 0 -176 236l-1 260q49 -3 147 -4q-4 -110 -4 -265q0 -108 78 -108q40 0 65.5 37.5t27.5 103.5t2 124.5t-2 98.5l-1 40q36 -2 146 -2q-2 -217 1 -529
q-24 2 -65 2q-67 -36 -67 -84q0 -24 25.5 -34.5t69.5 -7.5q-4 -27 -6 -81z" />
    <glyph glyph-name="Ydieresis" unicode="&#x178;" horiz-adv-x="635" 
d="M230 -11q0 7 -0.5 40.5t-1.5 81.5t-3 91l-216 480q45 1 168 7l127 -332q49 108 141 349q50 -2 165 -3l-230 -500q-1 -76 3 -213q-45 0 -153 -1zM208 763q-33 0 -51.5 19t-18.5 49q0 29 20.5 47t50.5 18q33 0 52 -19t19 -47q0 -33 -20.5 -50t-51.5 -17zM412 764
q-30 0 -49 19t-19 51q0 27 19 45t51 18q31 0 48.5 -18.5t17.5 -47.5q0 -31 -19 -49t-49 -18z" />
    <glyph glyph-name="Zacute" unicode="&#x179;" horiz-adv-x="569" 
d="M523 -3l-480 6l1 123l305 437l-299 -6l-1 137l471 6l2 -132l-305 -434l308 -2zM275 741l-69 49l128 168l88 -63z" />
    <glyph glyph-name="zacute" unicode="&#x17a;" horiz-adv-x="505" 
d="M460 -2q-141 4 -245 6t-138 2h-34l2 96l240 288q-81 -1 -139.5 -2.5t-75.5 -3.5l-18 -1l-2 118l406 5l2 -100l-135 -159t-83 -103l-22 -29l244 1zM243 546l-69 49l128 168l88 -63z" />
    <glyph glyph-name="Zdotaccent" unicode="&#x17b;" horiz-adv-x="569" 
d="M523 -3l-480 6l1 123l305 437l-299 -6l-1 137l471 6l2 -132l-305 -434l308 -2zM284 759q-41 0 -63 23.5t-22 57.5q0 33 22.5 55t62.5 22q41 0 63 -23.5t22 -55.5q0 -37 -23.5 -58t-61.5 -21z" />
    <glyph glyph-name="zdotaccent" unicode="&#x17c;" horiz-adv-x="505" 
d="M460 -2q-141 4 -245 6t-138 2h-34l2 96l240 288q-81 -1 -139.5 -2.5t-75.5 -3.5l-18 -1l-2 118l406 5l2 -100l-135 -159t-83 -103l-22 -29l244 1zM252 564q-41 0 -63 23.5t-22 57.5q0 33 22.5 55t62.5 22q41 0 63 -23.5t22 -55.5q0 -37 -23.5 -58t-61.5 -21z" />
    <glyph glyph-name="Zcaron" unicode="&#x17d;" horiz-adv-x="569" 
d="M523 -3l-480 6l1 123l305 437l-299 -6l-1 137l471 6l2 -132l-305 -434l308 -2zM173 930l111 -108q68 57 111 109q36 -42 58 -59q-78 -69 -126 -128q-23 1 -85 1q-67 64 -127 128l33 32.5z" />
    <glyph glyph-name="zcaron" unicode="&#x17e;" horiz-adv-x="505" 
d="M460 -2q-141 4 -245 6t-138 2h-34l2 96l240 288q-81 -1 -139.5 -2.5t-75.5 -3.5l-18 -1l-2 118l406 5l2 -100l-135 -159t-83 -103l-22 -29l244 1zM141 735l111 -108q68 57 111 109q36 -42 58 -59q-78 -69 -126 -128q-23 1 -85 1q-67 64 -127 128l33 32.5z" />
    <glyph glyph-name="florin" unicode="&#x192;" horiz-adv-x="548" 
d="M462 301q-88 2 -119 2q-44 -223 -60 -285q-24 -97 -74 -141t-130 -44q-35 0 -81 8q5 34 8 111q28 -4 37 -4q43 0 65 22.5t36 74.5q18 70 57 260h-83l1 110l103 -3l16 79q19 93 65.5 136.5t124.5 43.5q39 0 92 -11l-12 -112q-28 7 -43 7q-66 0 -87 -84q-1 -3 -14 -61l97 1
z" />
    <glyph glyph-name="Scommaaccent" unicode="&#x218;" horiz-adv-x="626" 
d="M309 -19q-122 2 -195 62.5t-84 182.5q57 1 165 13q1 -69 33 -106t88 -38q47 -1 77 20t30 61q0 39 -35 65.5t-137 55.5q-100 28 -149.5 78t-49.5 135q0 91 71 147t188 56q119 0 189 -61.5t80 -176.5q-69 -3 -155 -11q2 62 -27 98t-84 36q-48 0 -75.5 -22t-27.5 -58
q0 -41 34.5 -68.5t123.5 -51.5q124 -33 170.5 -83.5t46.5 -126.5q0 -97 -75.5 -153t-201.5 -54zM388 -119q0 -38 -31 -79t-81 -74l-36 37q34 25 61 65q-23 4 -36 20t-13 37q0 26 18.5 44t49.5 18t49.5 -18.5t18.5 -49.5z" />
    <glyph glyph-name="scommaaccent" unicode="&#x219;" horiz-adv-x="528" 
d="M270 -24q-99 0 -165.5 42.5t-83.5 134.5q61 6 143 20q19 -94 107 -96q36 0 58 14.5t22 39.5t-25 41t-99 32q-92 20 -136 58t-44 106q0 70 60 113t154 43q190 0 232 -168q-58 -7 -130 -21q-9 39 -34.5 63t-66.5 24q-32 0 -52 -14t-20 -39q0 -27 27 -43t97 -32
q102 -23 141 -59.5t39 -95.5q0 -78 -63 -120.5t-161 -42.5zM337 -119q0 -38 -31 -79t-81 -74l-36 37q34 25 61 65q-23 4 -36 20t-13 37q0 26 18.5 44t49.5 18t49.5 -18.5t18.5 -49.5z" />
    <glyph glyph-name="uni0237" unicode="&#x237;" horiz-adv-x="275" 
d="M-57 -217q4 42 4 123q32 -4 43 -4q39 0 57.5 19t19.5 62q1 113 0.5 228t-1.5 201l-1 87l143 1q1 -25 2 -69t2.5 -187t-0.5 -275q-1 -191 -198 -191q-40 0 -71 5z" />
    <glyph glyph-name="circumflex" unicode="&#x2c6;" horiz-adv-x="596" 
d="M185 542q-18 20 -58 56l126 130q21 -2 86 1q44 -49 125 -126q-18 -16 -58 -59q-43 45 -112 107q-42 -38 -109 -109z" />
    <glyph glyph-name="caron" unicode="&#x2c7;" horiz-adv-x="596" 
d="M194 735l111 -108q68 57 111 109q36 -42 58 -59q-78 -69 -126 -128q-23 1 -85 1q-67 64 -127 128l33 32.5z" />
    <glyph glyph-name="breve" unicode="&#x2d8;" horiz-adv-x="596" 
d="M297 559q-79 0 -121 39t-40 106q36 -1 94 4q-2 -75 68 -75q31 0 48.5 21.5t14.5 63.5q31 -1 95 1q5 -78 -38 -119t-121 -41z" />
    <glyph glyph-name="dotaccent" unicode="&#x2d9;" horiz-adv-x="596" 
d="M297 564q-41 0 -63 23.5t-22 57.5q0 33 22.5 55t62.5 22q41 0 63 -23.5t22 -55.5q0 -37 -23.5 -58t-61.5 -21z" />
    <glyph glyph-name="ring" unicode="&#x2da;" horiz-adv-x="596" 
d="M295 549q-57 0 -90.5 30.5t-33.5 80.5q0 48 34.5 78t89.5 30q61 0 94.5 -31.5t33.5 -76.5q0 -53 -35.5 -82t-92.5 -29zM298 600q26 0 42.5 16.5t16.5 43.5q0 25 -15.5 42.5t-43.5 17.5q-27 0 -43.5 -16.5t-16.5 -42.5q0 -25 16 -43t44 -18z" />
    <glyph glyph-name="ogonek" unicode="&#x2db;" horiz-adv-x="604" 
d="M384 -214q-24 -3 -45 -3q-61 0 -98 26t-37 71q-1 37 27.5 71.5t84.5 54.5l69 -3q-44 -17 -67 -44t-23 -50q0 -24 25.5 -34.5t69.5 -7.5q-4 -27 -6 -81z" />
    <glyph glyph-name="tilde" unicode="&#x2dc;" horiz-adv-x="596" 
d="M193 563q-26 3 -78 3q-2 67 26 108.5t80 41.5q27 0 53 -17t47 -34.5t37 -17.5q34 0 35 62q23 -1 76 0q7 -149 -97 -149q-29 0 -56.5 16.5t-49 33t-36.5 16.5q-37 0 -37 -63z" />
    <glyph glyph-name="hungarumlaut" unicode="&#x2dd;" horiz-adv-x="596" 
d="M376 547l-71 39l112 173l89 -48zM206 553q-22 13 -39.5 22t-24.5 12l-7 3l109 174l88 -49z" />
    <glyph glyph-name="endash" unicode="&#x2013;" horiz-adv-x="473" 
d="M444 272q-216 4 -415 1q2 84 0 125q302 -2 415 1q-1 -67 0 -127z" />
    <glyph glyph-name="emdash" unicode="&#x2014;" horiz-adv-x="566" 
d="M29 271q2 44 0 126q40 -1 217.5 -0.5t290.5 1.5q-2 -85 -1 -127q-167 4 -507 0z" />
    <glyph glyph-name="quoteleft" unicode="&#x2018;" horiz-adv-x="262" 
d="M131 413q-41 0 -67.5 30t-26.5 80q0 114 137 205l58 -49q-45 -36 -72 -87q29 -6 45.5 -31.5t16.5 -54.5q0 -41 -25 -67t-66 -26z" />
    <glyph glyph-name="quoteright" unicode="&#x2019;" horiz-adv-x="266" 
d="M91 403l-61 47q45 37 76 89q-29 8 -44.5 32t-15.5 54q0 39 24 65t66 26t67.5 -29.5t25.5 -74.5q0 -56 -38 -112t-100 -97z" />
    <glyph glyph-name="quotesinglbase" unicode="&#x201a;" horiz-adv-x="265" 
d="M91 -147l-61 48q47 38 74 92q-27 5 -43.5 29t-16.5 54q0 39 24 65t66 26t68 -29t26 -74q0 -57 -37.5 -113.5t-99.5 -97.5z" />
    <glyph glyph-name="quotedblleft" unicode="&#x201c;" horiz-adv-x="496" 
d="M132 418q-43 0 -69 29.5t-26 79.5q0 111 139 206l61 -47q-49 -39 -76 -88q28 -9 44.5 -33.5t16.5 -54.5q0 -42 -25 -67t-65 -25zM365 398q-43 0 -70 28.5t-27 78.5q0 52 37 109.5t100 98.5l61 -48q-43 -34 -76 -92q29 -9 45.5 -31.5t16.5 -47.5q0 -43 -24.5 -69.5
t-62.5 -26.5z" />
    <glyph glyph-name="quotedblright" unicode="&#x201d;" horiz-adv-x="493" 
d="M318 411l-60 49q44 35 76 91q-29 6 -46 29.5t-17 54.5q0 39 25 66t65 27q44 0 69.5 -27t25.5 -75q0 -116 -138 -215zM88 398l-58 48q41 33 74 90q-27 6 -44.5 29t-17.5 53q0 40 26 68t65 28q42 0 67 -30t25 -71q0 -122 -137 -215z" />
    <glyph glyph-name="quotedblbase" unicode="&#x201e;" horiz-adv-x="489" 
d="M314 -137l-60 47q42 34 75 90q-29 7 -45 30t-16 54q0 41 24.5 67.5t65.5 26.5q43 0 68.5 -28t25.5 -76q0 -112 -138 -211zM89 -153l-59 48q45 38 74 91q-27 6 -44 29t-17 51q0 43 25.5 70.5t63.5 27.5q42 0 68 -30t26 -74q0 -59 -37.5 -115t-99.5 -98z" />
    <glyph glyph-name="dagger" unicode="&#x2020;" horiz-adv-x="378" 
d="M26 491q2 26 2 98q37 -1 109 -2v117q27 -2 104 1q-1 -59 -1 -119h111q-2 -31 1 -98q-42 1 -112 2q0 -178 2 -289l-108 2q1 123 2 288h-110z" />
    <glyph glyph-name="daggerdbl" unicode="&#x2021;" horiz-adv-x="399" 
d="M361 390q0 -69 1 -89h-111l1 -99h-105v99h-110q1 18 1 90q37 -1 109 -1v126h-109q0 69 -1 89h110l-1 99q71 -2 108 0q-1 -20 -1 -99h109q-1 -18 -1 -89h-109l-1 -126h110z" />
    <glyph glyph-name="bullet" unicode="&#x2022;" horiz-adv-x="367" 
d="M185 190q-66 0 -109 42.5t-43 116.5q0 68 40.5 112.5t110.5 44.5q68 0 109 -45t41 -110q0 -77 -42 -119t-107 -42z" />
    <glyph glyph-name="ellipsis" unicode="&#x2026;" horiz-adv-x="792" 
d="M138 -7q-43 0 -69.5 27.5t-26.5 72.5q0 41 27 68t69 27q41 0 69 -27.5t28 -67.5q-1 -46 -27.5 -73t-69.5 -27zM395 -28q-42 0 -69.5 27t-27.5 71q0 43 27.5 69.5t69.5 26.5q43 0 69.5 -27t26.5 -67q-1 -47 -27 -73.5t-69 -26.5zM654 -11q-45 0 -71.5 26.5t-26.5 71.5
q0 42 27.5 68.5t69.5 26.5t69.5 -27.5t27.5 -67.5q-1 -46 -27 -72t-69 -26z" />
    <glyph glyph-name="perthousand" unicode="&#x2030;" horiz-adv-x="1221" 
d="M199 294q-85 0 -127.5 53.5t-42.5 142.5q0 79 46 130.5t126 51.5q83 0 127 -50.5t44 -139.5q0 -92 -48.5 -140t-124.5 -48zM200 368q63 0 64 116q0 113 -63 113q-31 0 -48 -30.5t-17 -82.5q0 -116 64 -116zM231 -19l-71 9l429 668l74 -8zM625 -23q-82 0 -126 52.5
t-44 138.5q0 80 46 134t126 54q82 0 126.5 -52.5t44.5 -137.5q0 -93 -47.5 -141t-125.5 -48zM627 51q63 0 63 112q0 115 -65 115q-29 0 -45.5 -29.5t-16.5 -79.5q0 -118 64 -118zM1021 363q79 0 125 -48t46 -141q0 -86 -44 -137.5t-125 -51.5t-127.5 50.5t-46.5 132.5
q0 88 45 141.5t127 53.5zM1021 289q-64 0 -64 -117q0 -112 64 -112q63 0 63 113q0 116 -63 116z" />
    <glyph glyph-name="guilsinglleft" unicode="&#x2039;" horiz-adv-x="282" 
d="M136 109l-112 230q56 92 121 215q32 -4 108 -5q-55 -89 -120 -213q42 -91 111 -222q-39 1 -108 -5z" />
    <glyph glyph-name="guilsinglright" unicode="&#x203a;" horiz-adv-x="280" 
d="M136 113q-40 3 -107 4q53 88 119 211l-114 223q43 0 107 5l115 -232z" />
    <glyph glyph-name="fraction" unicode="&#x2044;" horiz-adv-x="529" 
d="M71 -19l-71 9l455 710l74 -8z" />
    <glyph glyph-name="Euro" unicode="&#x20ac;" horiz-adv-x="693" 
d="M19 348q1 21 0 69q24 -1 82 0q22 120 97 188.5t189 68.5q112 0 177 -54t86 -147l-153 -26q-23 108 -109 108q-105 0 -130 -135l191 4l-1 -70q-55 0 -197 -2l-1 -52l209 4q-2 -25 0 -68q-56 0 -203 -2q23 -142 129 -142q50 0 79 28t41 97l155 -26q-17 -105 -92.5 -162
t-184.5 -55q-119 0 -191.5 66.5t-92.5 190.5q-54 -2 -77 -2q1 19 1 70q25 -1 70 -1q-2 22 0 51z" />
    <glyph glyph-name="servicemark" unicode="&#x2120;" horiz-adv-x="808" 
d="M349 367q7 135 9 306q61 -2 130 2l66 -227q38 149 61 255q69 -5 130 -6q3 -153 17 -347q-42 -1 -83 -4q-2 139 -9 293q-49 -166 -69 -254q-57 0 -92 2l-77 236q-3 -146 3 -257zM178 349q-59 0 -101.5 28t-47.5 82q39 4 89 10q7 -58 61 -58q48 0 48 39q0 9 -3.5 14.5
t-20.5 13.5t-49 16q-56 13 -82.5 38.5t-26.5 68.5q0 45 35.5 73.5t92.5 28.5q123 0 143 -106q-38 -3 -87 -10q-7 54 -54 54q-21 0 -33.5 -10t-12.5 -28q0 -31 72 -48q64 -16 88 -39.5t24 -59.5q0 -47 -39 -77t-96 -30z" />
    <glyph glyph-name="trademark" unicode="&#x2122;" horiz-adv-x="766" 
d="M307 368q7 131 10 303q61 -2 130 2q29 -108 65 -222q34 121 62 250q69 -5 130 -6q3 -148 16 -342q-41 -1 -83 -4q-1 135 -8 290q-45 -154 -69 -252q-58 0 -93 2q-33 106 -77 231q0 -182 3 -253zM24 618q1 24 1 74q113 -1 261 3l-1 -77q-38 1 -86 1q0 -114 4 -269
q-36 2 -86 0q1 118 0 269q-61 0 -93 -1z" />
    <glyph glyph-name="minus" unicode="&#x2212;" horiz-adv-x="472" 
d="M432 387l1 -118q-90 2 -188.5 2t-152.5 -1h-53l2 118q94 -2 191.5 -2h148.5z" />
    <glyph glyph-name="Pcircle" unicode="&#x24c5;" horiz-adv-x="757" 
d="M386 668q149 0 239.5 -97t90.5 -257q0 -155 -94.5 -246t-249.5 -91q-149 0 -240 93.5t-91 248.5q0 158 92 253.5t253 95.5zM381 617q-134 0 -209 -84.5t-75 -211.5q0 -132 75 -212.5t204 -80.5q126 0 205.5 78t79.5 216q0 127 -76.5 211t-203.5 84zM232 133q2 99 -1 371
q66 9 118 9q214 0 214 -136q0 -66 -54 -102t-146 -36h-21q0 -23 2 -105q-67 1 -112 -1zM340 435q-1 -30 1 -126q114 -4 114 66q0 61 -94 61z" />
    <glyph glyph-name="Pcircle" unicode="&#x24df;" horiz-adv-x="757" 
d="M386 668q149 0 239.5 -97t90.5 -257q0 -155 -94.5 -246t-249.5 -91q-149 0 -240 93.5t-91 248.5q0 158 92 253.5t253 95.5zM381 617q-134 0 -209 -84.5t-75 -211.5q0 -132 75 -212.5t204 -80.5q126 0 205.5 78t79.5 216q0 127 -76.5 211t-203.5 84zM232 133q2 99 -1 371
q66 9 118 9q214 0 214 -136q0 -66 -54 -102t-146 -36h-21q0 -23 2 -105q-67 1 -112 -1zM340 435q-1 -30 1 -126q114 -4 114 66q0 61 -94 61z" />
    <glyph glyph-name="commaaccent" horiz-adv-x="607" 
d="M369 -109q0 -38 -31 -79t-81 -74l-36 37q34 25 61 65q-23 4 -36 20t-13 37q0 26 18.5 44t49.5 18t49.5 -18.5t18.5 -49.5z" />
    <glyph glyph-name="space.tab" horiz-adv-x="307" 
 />
    <glyph glyph-name="dollar.tab" horiz-adv-x="615" 
d="M379 -126l-140 1q6 87 6 113q-89 14 -143.5 68t-55.5 142q65 7 149 20q0 -63 31 -94t85 -31q44 0 71 22t27 55q0 30 -28.5 52.5t-122.5 47.5q-103 27 -151 74t-48 124q0 73 49 126t134 66l-5 109h145q-5 -65 -7 -111q85 -17 132 -72t50 -138q-61 -4 -147 -15
q-1 56 -29 88.5t-80 32.5q-43 0 -65.5 -23t-22.5 -58t32 -58.5t109 -43.5q121 -32 165 -78t44 -116q0 -75 -51.5 -124.5t-134.5 -64.5z" />
    <glyph glyph-name="cent.tab" horiz-adv-x="615" 
d="M247 -62l2 42t2 39.5t1 24.5q-95 20 -147.5 97.5t-52.5 197.5t51 198t148 97l-6 110l145 1l-8 -113q81 -17 129.5 -72.5t54.5 -134.5q-45 -3 -84 -7.5t-56 -7.5l-16 -2q-17 120 -97 120q-54 0 -81 -49.5t-27 -132.5q0 -189 111 -189q80 0 97 112q51 -11 155 -21
q-13 -87 -60.5 -138.5t-124.5 -66.5l4 -105h-140z" />
    <glyph glyph-name="Euro.tab" horiz-adv-x="615" 
d="M17 348q1 21 0 69q13 0 70 1q21 118 89.5 187t174.5 69q100 0 157.5 -55.5t77.5 -145.5l-153 -26q-16 108 -88 108q-85 0 -103 -134l141 3q-2 -29 -2 -70q-23 0 -144 -2q-2 -23 0 -51q61 0 155 3q-1 -25 0 -68q-23 0 -151 -2q17 -142 104 -142q77 0 97 125l155 -26
q-19 -104 -86 -161.5t-164 -55.5q-112 0 -177.5 67.5t-83.5 188.5l-67 -1q1 19 1 70q16 -1 60 -1q-1 21 0 51z" />
    <glyph glyph-name="sterling.tab" horiz-adv-x="615" 
d="M133 246h-80l-1 100q19 -1 54 -1q-37 87 -37 133q0 92 69 146t180 54q115 0 179.5 -60.5t77.5 -163.5q-60 -8 -152 -28q-11 131 -101 131q-44 0 -69.5 -28t-25.5 -69q0 -38 36 -116l198 2l1 -105l-176 3q-5 -72 -57 -119q123 -3 337 1l-3 -133q-159 7 -508 8q2 60 2 115
q75 44 76 130z" />
    <glyph glyph-name="yen.tab" horiz-adv-x="615" 
d="M77 196q0 31 -3 88q34 -1 104 0q-50 125 -151 359q50 -1 163 6l114 -337l131 364q7 -1 19.5 -1.5t53.5 -1.5t85 -1l-163 -383l104 3l-1 -88q-53 0 -152 -1v-55q8 0 64.5 1t90.5 2q0 -28 1 -83q-55 0 -156 -1l3 -80q-62 2 -154 -1q1 34 1 79l-158 -4q1 30 1 85
q54 -1 156 0q-1 17 -1 54z" />
    <glyph glyph-name="florin.tab" horiz-adv-x="615" 
d="M496 301q-88 2 -119 2q-44 -223 -60 -285q-24 -97 -74 -141t-130 -44q-35 0 -81 8q5 34 8 111q28 -4 37 -4q43 0 65 22.5t36 74.5q18 70 57 260h-83l1 110l103 -3l16 79q19 93 65.5 136.5t124.5 43.5q39 0 92 -11l-12 -112q-28 7 -43 7q-66 0 -87 -84q-1 -3 -14 -61l97 1
z" />
    <glyph glyph-name="zero.tab" horiz-adv-x="615" 
d="M307 -24q-128 0 -199.5 92.5t-71.5 259.5q0 160 73 251t198 91q133 0 203 -90t70 -248q0 -166 -74 -261t-199 -95zM310 97q113 0 113 237q0 102 -28.5 161t-85.5 59t-87 -57.5t-30 -165.5q0 -234 118 -234z" />
    <glyph glyph-name="one.tab" horiz-adv-x="615" 
d="M115 -4l-1 128l148 -3q2 273 0 368l-129 -68l-43 124l221 116l94 -10q0 -306 5 -531l138 1l-2 -125h-431z" />
    <glyph glyph-name="two.tab" horiz-adv-x="615" 
d="M555 -2l-490 7l-5 145q184 83 265 159t81 158q0 42 -23 69t-63 27q-106 0 -110 -168q-62 10 -154 18q9 135 79 199t187 64q109 0 176.5 -55.5t67.5 -148.5q0 -106 -82.5 -195.5t-254.5 -151.5q85 0 166 1.5t120 3.5l39 2z" />
    <glyph glyph-name="three.tab" horiz-adv-x="615" 
d="M313 -24q-117 0 -192 55.5t-87 165.5q59 5 164 22q4 -129 118 -129q44 0 73 26t29 71q0 27 -16 49t-47 31q-55 15 -138 10q-1 46 -3 105q93 -6 144 12q54 17 54 80q0 45 -26.5 70.5t-73.5 25.5q-95 0 -105 -122l-158 27q18 101 87.5 152.5t179.5 51.5q108 0 179.5 -54.5
t71.5 -136.5q0 -59 -38 -99t-104 -53q74 -15 112.5 -59t38.5 -102q0 -93 -74 -146t-189 -53z" />
    <glyph glyph-name="four.tab" horiz-adv-x="615" 
d="M374 -1q0 45 2 127q-52 0 -172.5 -1.5t-165.5 -1.5q-2 33 -2 123l265 424l218 -5q-2 -334 -1 -425q41 0 62 1q-1 -40 -1 -114h-61l2 -127zM377 571l-198 -332h197q1 164 1 332z" />
    <glyph glyph-name="five.tab" horiz-adv-x="615" 
d="M540 547q-148 1 -329 -4q-4 -142 -4 -168q63 69 162 69q103 0 157 -62t55 -164q0 -113 -73.5 -176t-192.5 -63q-107 0 -179 50t-92 141q44 5 85 11t60 10l19 4q17 -105 108 -105q48 0 76 35.5t28 94.5q0 56 -25.5 90.5t-74.5 34.5q-69 0 -106 -78q-66 6 -152 11
q6 166 8 381q198 0 472 6q-2 -36 -2 -118z" />
    <glyph glyph-name="six.tab" horiz-adv-x="615" 
d="M566 486q-46 -4 -86.5 -8.5t-57.5 -7.5l-18 -2q-17 92 -85 92q-121 0 -122 -228q69 82 176 82q105 0 160.5 -57t55.5 -141q0 -115 -76 -178t-194 -63q-132 0 -207 89t-75 256q0 166 74.5 260.5t212.5 94.5q207 0 242 -189zM336 313q-78 0 -133 -78q24 -144 124 -144
q46 0 73.5 32.5t27.5 84.5q0 47 -23.5 76t-68.5 29z" />
    <glyph glyph-name="seven.tab" horiz-adv-x="615" 
d="M193 -8q-10 334 218 539l-357 -5l1 133l508 6l2 -147q-113 -105 -163.5 -227.5t-46.5 -302.5z" />
    <glyph glyph-name="eight.tab" horiz-adv-x="615" 
d="M315 -24q-132 0 -207 54t-75 146q0 56 38.5 98.5t103.5 60.5q-57 23 -89.5 67t-32.5 96q0 76 68.5 127.5t187.5 51.5q123 0 190.5 -51t67.5 -128q0 -53 -34 -95t-94 -64q69 -22 105.5 -65.5t37.5 -97.5q0 -90 -76.5 -145t-190.5 -55zM308 82q51 0 81.5 26t30.5 69
q0 44 -33.5 76t-89.5 42q-48 -10 -76.5 -41t-28.5 -72q0 -46 31.5 -73t84.5 -27zM323 377q39 11 63.5 39t24.5 68q0 39 -26 64.5t-77 25.5q-47 0 -75 -24t-28 -64q0 -41 31 -69.5t87 -39.5z" />
    <glyph glyph-name="nine.tab" horiz-adv-x="615" 
d="M303 -22q-107 0 -177.5 54t-88.5 158l157 19q16 -111 109 -111q56 0 87 50.5t33 168.5q-64 -66 -168 -66q-103 0 -161.5 56.5t-58.5 145.5q0 101 73.5 163t192.5 62q131 0 204 -89.5t73 -256.5q0 -178 -73 -266t-202 -88zM297 344q69 0 122 67q-18 153 -116 153
q-50 0 -79 -32.5t-29 -82.5q0 -47 27.5 -76t74.5 -29z" />
    <glyph glyph-name="plus.tab" horiz-adv-x="615" 
d="M245 97q2 112 2 174l-163 -1l-1 120q5 0 165 -3l-1 170l121 -2q-2 -120 -2 -168l167 1l-3 -118q-52 1 -164 1l2 -173z" />
    <glyph glyph-name="minus.tab" horiz-adv-x="615" 
d="M514 387l1 -118q-90 2 -193.5 2t-161.5 -1h-59l2 118q94 -2 196.5 -2h158.5z" />
    <glyph glyph-name="multiply.tab" horiz-adv-x="615" 
d="M306 254l-141 -152q-24 27 -77 75l147 152l-145 151l77 77l141 -152l143 152l76 -74l-148 -153l148 -152l-79 -77z" />
    <glyph glyph-name="divide.tab" horiz-adv-x="615" 
d="M91 388q47 -1 433 -1l-1 -118q-56 1 -119.5 1.5t-116.5 0.5t-95.5 -0.5t-71 -1t-29.5 -0.5v119zM305 601q34 0 54 -21t20 -55q0 -35 -20.5 -56t-54.5 -21q-35 0 -54 20.5t-19 56.5q0 37 19.5 56.5t54.5 19.5zM307 211q35 0 54.5 -20.5t19.5 -59.5q0 -33 -21 -52.5
t-54 -19.5q-35 0 -54.5 19.5t-19.5 52.5q0 40 20.5 60t54.5 20z" />
    <glyph glyph-name="equal.tab" horiz-adv-x="615" 
d="M106 176q0 23 -3 106q191 -1 409 2l-1 -108q-183 2 -405 0zM512 373l-409 2l3 108h405z" />
    <glyph glyph-name="less.tab" horiz-adv-x="615" 
d="M522 189l-3 -132l-433 199l2 134l430 201q-4 -53 -4 -137l-315 -130q193 -84 323 -135z" />
    <glyph glyph-name="greater.tab" horiz-adv-x="615" 
d="M96 56l-1 131l324 137l-151 64.5l-122 49.5l-43 16q1 89 -3 137l425 -200l2 -130z" />
    <glyph glyph-name="period.tab" horiz-adv-x="307" 
d="M153 -12q-45 0 -71 27.5t-26 71.5t27.5 70.5t69.5 26.5q43 0 70.5 -27.5t27.5 -67.5q-1 -48 -27 -74.5t-71 -26.5z" />
    <glyph glyph-name="comma.tab" horiz-adv-x="307" 
d="M111 -167l-64 57q52 45 78 106q-29 7 -47 32t-18 57q0 41 27 69.5t69 28.5q44 0 72.5 -30t28.5 -82q0 -120 -146 -238z" />
    <glyph glyph-name="colon.tab" horiz-adv-x="307" 
d="M154 -16q-42 0 -68.5 27t-26.5 70t27 70.5t70 27.5q44 0 69 -28t25 -70q0 -47 -26 -72t-70 -25zM152 285q-42 0 -68 28t-26 73q0 41 26.5 67.5t68.5 26.5q44 0 69.5 -27t25.5 -67q0 -49 -27 -75t-69 -26z" />
    <glyph glyph-name="semicolon.tab" horiz-adv-x="307" 
d="M108 -167q-16 15 -32.5 28l-24.5 19l-8 5q53 48 80 110q-29 5 -48 28t-19 57q0 43 25.5 72t69.5 29q46 0 73.5 -31.5t27.5 -80.5q0 -61 -42 -125.5t-102 -110.5zM150 286q-40 0 -66.5 26.5t-26.5 72.5q0 43 26.5 69t69.5 26q40 0 66.5 -27t26.5 -68q0 -46 -26.5 -72.5
t-69.5 -26.5z" />
    <glyph glyph-name="parenleft.tab" horiz-adv-x="360" 
d="M190 -144q-123 209 -123 446q0 282 131 462l123 -46q-100 -175 -100 -411q0 -195 102 -406z" />
    <glyph glyph-name="parenright.tab" horiz-adv-x="360" 
d="M172 -149q-57 23 -134 45q102 215 102 412q0 233 -99 412l125 48q129 -181 129 -461q0 -233 -123 -456z" />
    <glyph glyph-name="bracketleft.tab" horiz-adv-x="360" 
d="M322 -125l-247 2q3 279 -4 869q97 -1 246 2q0 -48 3 -111q-43 0 -95 -3q-3 -377 1 -638q42 -2 100 -2q-3 -47 -4 -119z" />
    <glyph glyph-name="bracketright.tab" horiz-adv-x="360" 
d="M41 -125l-4 118q24 0 48 0.5t38 1t15 0.5q5 411 -2 647q-82 3 -94 1l1 113q142 -2 245 -2q-5 -551 -1 -876h-66.5t-65 -0.5t-56.5 -1t-40.5 -1t-17.5 -0.5z" />
    <glyph glyph-name="braceleft.tab" horiz-adv-x="360" 
d="M343 -120q-47 -12 -87 -12q-81 0 -116 36.5t-35 118.5l6 133q0 54 -21 78.5t-75 23.5l2 130q53 -2 73.5 15.5t20.5 61.5q0 20 -5 75.5t-4 82.5q0 133 145 133q38 0 89 -12l2 -111q-49 7 -68.5 -8t-19.5 -55q0 -18 3.5 -62.5t3.5 -65.5q0 -95 -96 -120q93 -27 93 -134
l-5 -113q0 -53 18.5 -70t73.5 -12z" />
    <glyph glyph-name="braceright.tab" horiz-adv-x="360" 
d="M17 -125l2 110q52 -7 73.5 9t21.5 63q0 20 -4 66t-4 70q0 102 97 127q-99 23 -99 125q0 23 3.5 66t3.5 61q0 39 -20 53t-68 9l2 111q44 11 82 11q81 0 116.5 -32.5t35.5 -100.5q0 -26 -5 -79t-5 -75q0 -45 21 -64t73 -18l2 -127q-51 1 -73.5 -23.5t-22.5 -71.5
q0 -24 4.5 -78.5t4.5 -80.5q0 -75 -36 -109.5t-115 -34.5q-45 0 -90 13z" />
    <glyph glyph-name="section.tab" horiz-adv-x="615" 
d="M313 -203q-115 0 -188 49t-95 143q41 6 79 13.5t55 11.5l18 4q23 -104 129 -104q40 0 67 20.5t27 54.5q0 31 -30 48.5t-127 31.5q-108 16 -155.5 52.5t-47.5 106.5q0 47 35.5 85t88.5 50q-54 21 -84.5 64t-30.5 94q0 83 66.5 138.5t181.5 55.5q111 0 176.5 -52.5
t85.5 -143.5q-50 -5 -89 -10t-53 -8l-14 -3q-16 99 -102 99q-45 0 -69 -19t-24 -53q0 -36 33 -56.5t115 -33.5q127 -19 171.5 -55.5t44.5 -97.5q0 -43 -27 -82.5t-72 -63.5q88 -33 90 -136q0 -91 -74 -147t-181 -56zM201 261q0 -36 36 -57t145 -34q41 34 41 73q0 41 -35 61
t-135 29q-52 -30 -52 -72z" />
    <glyph glyph-name="numbersign.tab" horiz-adv-x="615" 
d="M367 77q0 52 1 124l-122 -1q0 -9 3 -111q-47 3 -109 3v107q-64 -2 -98 -2q2 42 -1 106q39 -1 100 -1q0 102 -1 157q-28 0 -94 -2q1 41 -1 106q47 -1 94 -1l-2 109q44 -2 108 1q-1 -44 -1 -110l122 1q0 43 -2 123q47 -3 109 1q-1 -60 -1 -122q31 0 99 2l-2 -104h-97
l1 -160q31 0 101 2l-1 -105q-44 1 -99 1l3 -124q-42 2 -110 0zM244 461v-160q79 0 124 1q0 100 -1 161z" />
    <glyph glyph-name="zero.numerator" horiz-adv-x="442" 
d="M222 292q-91 0 -140.5 57.5t-49.5 160.5q0 101 51.5 155.5t139.5 54.5q94 0 140.5 -54t46.5 -154q0 -108 -50.5 -164t-137.5 -56zM223 372q74 0 74 142q0 62 -19.5 95.5t-54.5 33.5q-37 0 -57.5 -33.5t-20.5 -98.5q0 -139 78 -139z" />
    <glyph glyph-name="one.numerator" horiz-adv-x="301" 
d="M125 305q1 227 0 289l-74 -38l-31 88l136 71l74 -6l4 -403z" />
    <glyph glyph-name="two.numerator" horiz-adv-x="400" 
d="M363 305l-326 4l-3 97q98 36 161.5 85t63.5 100q0 59 -54 59q-63 0 -65 -89q-42 7 -106 12q3 72 47.5 112t125.5 40q78 0 120 -35t42 -93q0 -64 -57.5 -120t-148.5 -90q52 0 102 1.5t74 3.5l24 1v-88z" />
    <glyph glyph-name="three.numerator" horiz-adv-x="422" 
d="M209 291q-168 0 -187 136q49 3 115 12q9 -71 72 -71q70 0 70 52q0 38 -38 50t-100 6q0 26 -2 67q71 -5 103 8q34 13 34 46q0 25 -17.5 40t-47.5 15q-59 0 -66 -67l-113 13q7 61 53.5 94.5t126.5 33.5q79 0 126 -32.5t47 -85.5q0 -36 -25 -62.5t-66 -33.5q46 -7 71.5 -34
t25.5 -63q0 -56 -50.5 -90t-131.5 -34z" />
    <glyph glyph-name="four.numerator" horiz-adv-x="420" 
d="M250 306q0 53 1 79q-14 0 -96 -1t-134 -2q0 23 -2 78l178 261l156 -4q-1 -108 -1 -255l42 1v-78h-42l1 -78zM253 653l-131 -192h130q1 104 1 192z" />
    <glyph glyph-name="five.numerator" horiz-adv-x="424" 
d="M213 293q-69 0 -117.5 30.5t-59.5 94.5l111 10q12 -62 69 -62q29 0 48 19t19 58q0 73 -65 73q-47 0 -69 -42q-50 4 -107 6q4 101 6 234q151 0 322 3q-1 -29 -1 -81q-110 1 -223 -2q-2 -46 -2 -95q39 42 105 42q69 0 107 -38t39 -101q0 -73 -51 -111t-131 -38z" />
    <glyph glyph-name="six.numerator" horiz-adv-x="439" 
d="M226 291q-92 0 -143 56t-51 158q0 103 52 161t145 58q71 0 114.5 -31.5t55.5 -85.5l-114 -13q-12 56 -58 56q-38 0 -59.5 -34t-23.5 -96q44 46 121 46q68 -1 106.5 -35.5t38.5 -92.5q0 -66 -52.5 -106.5t-131.5 -40.5zM231 500q-49 0 -83 -48q16 -85 81 -85q29 0 48.5 17
t19.5 50q0 29 -16.5 47.5t-49.5 18.5z" />
    <glyph glyph-name="seven.numerator" horiz-adv-x="362" 
d="M98 302q-3 210 128 323l-208 -2l1 91l324 3l1 -92q-71 -64 -103.5 -142.5t-30.5 -183.5z" />
    <glyph glyph-name="eight.numerator" horiz-adv-x="435" 
d="M222 292q-91 0 -142 34.5t-51 93.5q0 35 25 60.5t67 34.5q-80 30 -80 96q0 51 47 82.5t131 31.5q87 0 133 -32t46 -82q0 -32 -21 -57t-60 -37q41 -12 65 -39t24 -58q0 -62 -51.5 -95t-132.5 -33zM219 364q33 0 53.5 15.5t20.5 41.5q0 24 -20.5 41.5t-57.5 24.5
q-34 -6 -53.5 -23t-19.5 -40q0 -28 21 -44t56 -16zM224 542q64 15 64 61q0 24 -18.5 37.5t-51.5 13.5q-69 0 -69 -50q0 -46 75 -62z" />
    <glyph glyph-name="nine.numerator" horiz-adv-x="434" 
d="M210 293q-71 0 -119.5 33t-60.5 96q27 1 54.5 3.5t41.5 4.5l14 2q15 -62 72 -62q76 0 80 129q-44 -39 -114 -39q-71 0 -110 34.5t-39 89.5q0 64 49 102.5t135 38.5q92 0 140 -54t48 -159q0 -115 -52 -167t-139 -52zM212 518q42 0 77 43q-12 91 -78 91q-32 0 -50.5 -18.5
t-18.5 -49.5q0 -66 70 -66z" />
    <glyph glyph-name="zero.denominator" horiz-adv-x="442" 
d="M222 -20q-91 0 -140.5 57.5t-49.5 160.5q0 101 51.5 155.5t139.5 54.5q94 0 140.5 -54t46.5 -154q0 -108 -50.5 -164t-137.5 -56zM223 60q74 0 74 142q0 62 -19.5 95.5t-54.5 33.5q-37 0 -57.5 -33.5t-20.5 -98.5q0 -139 78 -139z" />
    <glyph glyph-name="one.denominator" horiz-adv-x="301" 
d="M125 -7q1 227 0 289l-74 -38l-31 88l136 71l74 -6l4 -403z" />
    <glyph glyph-name="two.denominator" horiz-adv-x="400" 
d="M363 -7l-326 4l-3 97q98 36 161.5 85t63.5 100q0 59 -54 59q-63 0 -65 -89q-42 7 -106 12q3 72 47.5 112t125.5 40q78 0 120 -35t42 -93q0 -64 -57.5 -120t-148.5 -90q52 0 102 1.5t74 3.5l24 1v-88z" />
    <glyph glyph-name="three.denominator" horiz-adv-x="422" 
d="M209 -21q-168 0 -187 136q49 3 115 12q9 -71 72 -71q70 0 70 52q0 38 -38 50t-100 6q0 26 -2 67q71 -5 103 8q34 13 34 46q0 25 -17.5 40t-47.5 15q-59 0 -66 -67l-113 13q7 61 53.5 94.5t126.5 33.5q79 0 126 -32.5t47 -85.5q0 -36 -25 -62.5t-66 -33.5q46 -7 71.5 -34
t25.5 -63q0 -56 -50.5 -90t-131.5 -34z" />
    <glyph glyph-name="four.denominator" horiz-adv-x="420" 
d="M250 -6q0 53 1 79q-14 0 -96 -1t-134 -2q0 23 -2 78l178 261l156 -4q-1 -108 -1 -255l42 1v-78h-42l1 -78zM253 341l-131 -192h130q1 104 1 192z" />
    <glyph glyph-name="five.denominator" horiz-adv-x="424" 
d="M213 -19q-69 0 -117.5 30.5t-59.5 94.5l111 10q12 -62 69 -62q29 0 48 19t19 58q0 73 -65 73q-47 0 -69 -42q-50 4 -107 6q4 101 6 234q151 0 322 3q-1 -29 -1 -81q-110 1 -223 -2q-2 -46 -2 -95q39 42 105 42q69 0 107 -38t39 -101q0 -73 -51 -111t-131 -38z" />
    <glyph glyph-name="six.denominator" horiz-adv-x="439" 
d="M226 -21q-92 0 -143 56t-51 158q0 103 52 161t145 58q71 0 114.5 -31.5t55.5 -85.5l-114 -13q-12 56 -58 56q-38 0 -59.5 -34t-23.5 -96q44 46 121 46q68 -1 106.5 -35.5t38.5 -92.5q0 -66 -52.5 -106.5t-131.5 -40.5zM231 188q-49 0 -83 -48q16 -85 81 -85q29 0 48.5 17
t19.5 50q0 29 -16.5 47.5t-49.5 18.5z" />
    <glyph glyph-name="seven.denominator" horiz-adv-x="362" 
d="M98 -10q-3 210 128 323l-208 -2l1 91l324 3l1 -92q-71 -64 -103.5 -142.5t-30.5 -183.5z" />
    <glyph glyph-name="eight.denominator" horiz-adv-x="435" 
d="M222 -20q-91 0 -142 34.5t-51 93.5q0 35 25 60.5t67 34.5q-80 30 -80 96q0 51 47 82.5t131 31.5q87 0 133 -32t46 -82q0 -32 -21 -57t-60 -37q41 -12 65 -39t24 -58q0 -62 -51.5 -95t-132.5 -33zM219 52q33 0 53.5 15.5t20.5 41.5q0 24 -20.5 41.5t-57.5 24.5
q-34 -6 -53.5 -23t-19.5 -40q0 -28 21 -44t56 -16zM224 230q64 15 64 61q0 24 -18.5 37.5t-51.5 13.5q-69 0 -69 -50q0 -46 75 -62z" />
    <glyph glyph-name="nine.denominator" horiz-adv-x="434" 
d="M210 -19q-71 0 -119.5 33t-60.5 96q27 1 54.5 3.5t41.5 4.5l14 2q15 -62 72 -62q76 0 80 129q-44 -39 -114 -39q-71 0 -110 34.5t-39 89.5q0 64 49 102.5t135 38.5q92 0 140 -54t48 -159q0 -115 -52 -167t-139 -52zM212 206q42 0 77 43q-12 91 -78 91q-32 0 -50.5 -18.5
t-18.5 -49.5q0 -66 70 -66z" />
    <glyph glyph-name="dollar.cap" horiz-adv-x="616" 
d="M373 -122l-139 1l6 108q-191 32 -210 239q57 1 165 13q2 -69 31 -106t85 -38q46 -1 74 20t28 61q0 36 -28.5 62t-110.5 50q-121 36 -171.5 85t-50.5 137q0 76 49.5 128.5t134.5 68.5l-5 107l145 1q-5 -61 -7 -107q90 -16 141.5 -75.5t59.5 -157.5q-69 -3 -155 -11
q2 62 -25 98t-81 36q-47 0 -72.5 -22t-25.5 -58q0 -44 36 -71.5t131 -53.5q110 -31 154 -80.5t44 -124.5q0 -83 -54.5 -136.5t-150.5 -66.5z" />
    <glyph glyph-name="cent.cap" horiz-adv-x="598" 
d="M238 -62q2 24 3 48.5t2 43.5t1 24q-95 20 -148 98t-53 198q0 121 51.5 198.5t148.5 96.5l-7 121l145 1l-8 -123q81 -18 129.5 -73.5t54.5 -134.5q-45 -3 -84 -7.5t-55 -6.5l-17 -3q-16 120 -96 120q-54 0 -81.5 -49.5t-27.5 -132.5q0 -189 112 -189q80 0 96 112
q52 -11 156 -21q-25 -175 -186 -205l5 -116h-141z" />
    <glyph glyph-name="Euro.cap" horiz-adv-x="721" 
d="M21 370q1 20 0 68q24 0 83 1q22 130 101.5 205t200.5 75q106 0 175.5 -57.5t98.5 -156.5l-168 -23q-14 58 -40 85t-70 27q-111 0 -134 -153l194 5q-2 -27 -2 -69q-55 0 -198 -2q-3 -28 0 -62l210 4q-2 -23 0 -68q-55 0 -203 -2q23 -147 131 -147q95 0 126 115l162 -29
q-30 -103 -104.5 -156.5t-185.5 -52.5q-121 0 -196.5 68t-97.5 199l-80 -1q1 16 1 69q26 -1 73 -1l-1 61q-52 -2 -76 -2z" />
    <glyph glyph-name="sterling.cap" horiz-adv-x="642" 
d="M131 263h-81l-2 105q18 -1 53 -1q-35 82 -35 134q0 99 70 156.5t193 57.5q127 0 197 -67t80 -178q-71 -9 -165 -26q-5 76 -30 111.5t-79 35.5q-47 0 -74 -29.5t-27 -80.5q0 -46 31 -116l222 2l1 -109q-56 2 -193 4v-2q0 -83 -63 -132q200 0 363 3l-3 -138q-178 7 -538 8
l2 119q78 48 78 138v5z" />
    <glyph glyph-name="yen.cap" horiz-adv-x="649" 
d="M245 -11v15.5t-0.5 30t-0.5 34.5l-173 -4q1 31 1 87q60 -1 171 0l-2 58q-39 -1 -166 -5q1 31 -3 90q43 0 127 1l-175 386q45 1 168 7l127 -332q49 108 141 349q50 -2 165 -3l-187 -403l126 3l-1 -89q-61 0 -168 -1v-59q118 2 171 4q0 -28 1 -86q-63 0 -171 -1
q0 -23 2 -81q-45 0 -153 -1z" />
    <glyph glyph-name="florin.cap" horiz-adv-x="553" 
d="M468 324l-120 3q-20 -105 -33 -161q-26 -102 -76.5 -146.5t-133.5 -44.5q-33 0 -79 8q5 35 8 115q28 -4 39 -4q42 0 66.5 23.5t38.5 76.5q16 65 30 135h-83l2 106q48 -3 99 -3q7 41 16 83q20 95 67.5 139.5t129.5 44.5q42 0 88 -10l-13 -116q-25 7 -47 7q-64 0 -86 -85
q-1 -4 -4.5 -19t-6 -27.5t-3.5 -18.5l100 1z" />
    <glyph glyph-name="zero.cap" horiz-adv-x="695" 
d="M347 -25q-139 0 -220.5 97t-81.5 273q0 168 81.5 264t220.5 96q148 0 225.5 -94.5t77.5 -261.5q0 -176 -80 -275t-223 -99zM350 103q63 0 99.5 61t36.5 187q0 103 -36 167t-101 64q-68 0 -104.5 -63t-36.5 -171q0 -121 37 -183t105 -62z" />
    <glyph glyph-name="one.cap" horiz-adv-x="432" 
d="M178 -3q2 320 -1 519l-118 -62l-45 130l216 115l99 -11l6 -690z" />
    <glyph glyph-name="two.cap" horiz-adv-x="612" 
d="M566 -2l-524 7l-5 151q372 155 372 330q0 50 -26.5 79t-74.5 29q-105 0 -109 -168q-63 11 -160 19q5 127 75.5 197t201.5 70q128 0 194.5 -60.5t66.5 -160.5q0 -108 -91.5 -202.5t-244.5 -156.5q88 0 169 1.5t118 3.5l37 2z" />
    <glyph glyph-name="three.cap" horiz-adv-x="643" 
d="M323 -25q-129 0 -209 59.5t-88 174.5q63 3 170 15q14 -129 129 -129q52 0 86 26.5t34 74.5q0 68 -69 88q-53 16 -152 8q-1 48 -4 109q114 -7 164 13q56 22 56 85q0 44 -30 72.5t-85 28.5q-99 0 -123 -125l-163 27q17 101 93.5 157t195.5 56q125 0 199 -58.5t74 -145.5
q0 -56 -37.5 -99.5t-101.5 -59.5q71 -14 110.5 -60.5t39.5 -104.5q0 -101 -82 -156.5t-207 -55.5z" />
    <glyph glyph-name="four.cap" horiz-adv-x="647" 
d="M393 -1q0 49 2 135q-89 0 -369 -4q-1 34 -2 128l292 448l229 -6q-2 -374 -2 -446q50 0 76 1q-1 -43 -1 -120h-74l1 -135zM396 599q-152 -233 -220 -346h219q1 171 1 346z" />
    <glyph glyph-name="five.cap" horiz-adv-x="646" 
d="M324 -22q-113 0 -191 52t-96 154l165 22q25 -114 125 -114q51 0 84 35.5t33 106.5q0 63 -29.5 98.5t-84.5 35.5q-82 0 -118 -85q-70 6 -161 11q6 173 9 400q223 0 511 6q-2 -40 -2 -127q-170 1 -364 -4q-4 -150 -4 -176q65 78 180 78q113 0 171.5 -65.5t59.5 -173.5
q0 -122 -78 -188t-210 -66z" />
    <glyph glyph-name="six.cap" horiz-adv-x="676" 
d="M346 -26q-146 0 -224 96t-76 267q0 175 81.5 274.5t226.5 99.5q222 0 265 -193q-49 -4 -91.5 -9.5t-60.5 -8.5l-18 -3q-23 96 -99 96q-64 0 -100 -64t-37 -177q76 84 198 84q111 0 169 -58t58 -148q0 -126 -82.5 -191t-209.5 -65zM364 333q-79 0 -145 -79
q24 -163 140 -163q51 0 80.5 35t29.5 92q0 50 -26.5 82.5t-78.5 32.5z" />
    <glyph glyph-name="seven.cap" horiz-adv-x="573" 
d="M157 -8q-5 177 55 321.5t174 246.5l-357 -5l1 139l512 6l3 -154q-117 -108 -169.5 -243t-49.5 -316z" />
    <glyph glyph-name="eight.cap" horiz-adv-x="668" 
d="M342 -25q-145 0 -227 55.5t-82 152.5q0 63 40 108t114 62q-63 24 -99 69.5t-36 102.5q0 84 75 136t209 52q138 0 211.5 -54t73.5 -134q0 -60 -36.5 -103t-103.5 -65q72 -22 113 -68t41 -105q0 -99 -82.5 -154t-210.5 -55zM336 85q55 0 91.5 28.5t36.5 74.5
q0 44 -37.5 76.5t-101.5 43.5q-57 -10 -90.5 -41.5t-33.5 -73.5q0 -49 37.5 -78.5t97.5 -29.5zM348 400q49 12 79 40.5t30 68.5q-1 42 -33 69.5t-90 27.5q-57 0 -89.5 -27t-32.5 -69q0 -40 35.5 -68.5t100.5 -41.5z" />
    <glyph glyph-name="nine.cap" horiz-adv-x="664" 
d="M324 -23q-117 0 -191.5 55.5t-93.5 162.5q46 2 87.5 6t60.5 7l19 3q23 -113 119 -113q61 0 94.5 55t36.5 181q-71 -66 -181 -66t-173.5 55.5t-63.5 154.5q0 108 78.5 172t204.5 64q141 0 219.5 -94.5t78.5 -269.5q0 -190 -78 -281.5t-217 -91.5zM320 362q72 0 132 66
q-19 169 -129 169q-53 0 -84.5 -34.5t-31.5 -89.5q0 -53 31 -82t82 -29z" />
    <glyph glyph-name="percent.cap" horiz-adv-x="809" 
d="M201 344q-86 0 -129 53.5t-43 143.5q0 80 47 130.5t127 50.5q83 0 128 -50t45 -141q0 -96 -48.5 -141.5t-126.5 -45.5zM202 417q65 0 66 116q0 113 -65 113q-32 0 -49.5 -30t-17.5 -82q0 -117 66 -117zM205 -19l-70 9l455 710l74 -8zM605 -23q-84 0 -128 52t-44 139
q0 82 46 135t127 53q84 0 129 -51.5t45 -138.5q0 -93 -48.5 -141t-126.5 -48zM607 51q65 0 65 112q0 115 -67 115q-30 0 -47 -29t-17 -80q0 -118 66 -118z" />
    <glyph glyph-name="perthousand.cap" horiz-adv-x="1205" 
d="M201 344q-86 0 -129 53.5t-43 143.5q0 80 47.5 130.5t126.5 50.5q84 0 128.5 -50.5t44.5 -140.5q0 -95 -48.5 -141t-126.5 -46zM205 -19l-70 9l455 710l74 -8zM202 418q65 0 66 115q0 112 -65 112q-31 0 -49 -29t-18 -82q0 -116 66 -116zM605 -23q-83 0 -127.5 52
t-44.5 139q0 82 46.5 135t127.5 53q83 0 128.5 -52t45.5 -138q0 -92 -48.5 -140.5t-127.5 -48.5zM607 51q65 0 65 112q0 115 -66 115q-30 0 -47 -29t-17 -80q0 -118 65 -118zM1003 -12q-77 0 -125 48t-48 139q0 87 46 139t127 52q82 0 127.5 -49.5t45.5 -131.5
q0 -93 -45 -145t-128 -52zM1001 62q68 0 68 117q0 53 -17.5 82t-48.5 29q-30 0 -47.5 -29t-17.5 -85q0 -114 63 -114z" />
    <glyph glyph-name="questiondown.cap" horiz-adv-x="627" 
d="M414 481l3 -167q-114 7 -163 -20.5t-49 -90.5q0 -48 28.5 -77t79.5 -29q100 0 119 126q67 -11 164 -21q-18 -104 -90.5 -163t-190.5 -59q-127 0 -200.5 58t-73.5 151q0 98 58 150.5t162 61.5v78zM332 714q53 0 79.5 -26t26.5 -69q0 -42 -29 -67t-75 -25q-49 0 -75.5 25.5
t-26.5 70.5q0 42 27.5 66.5t72.5 24.5z" />
    <glyph glyph-name="exclamdown.cap" horiz-adv-x="332" 
d="M164 708q49 0 76.5 -25.5t27.5 -69.5q0 -41 -26.5 -67t-76.5 -26q-48 0 -74.5 27t-26.5 69t29 67t71 25zM233 471q4 -188 21 -479l-172 2q8 195 14 475q60 -1 137 2z" />
    <glyph glyph-name="parenleft.cap" horiz-adv-x="339" 
d="M178 -83q-123 210 -123 414q0 120 34 233t97 200l123 -46q-100 -179 -100 -381q0 -162 102 -377q-34 -9 -67.5 -20t-49.5 -17z" />
    <glyph glyph-name="parenright.cap" horiz-adv-x="339" 
d="M162 -89q-57 23 -134 45q102 213 102 382q0 202 -99 382l125 48q61 -87 94.5 -200.5t33.5 -230.5q0 -205 -122 -426z" />
    <glyph glyph-name="bracketleft.cap" horiz-adv-x="368" 
d="M331 -66l-256 3q2 219 -4 809q106 -1 255 2q0 -48 2 -111q-51 0 -103 -3q-3 -318 1 -579q51 -2 108 -2q-2 -47 -3 -119z" />
    <glyph glyph-name="bracketright.cap" horiz-adv-x="367" 
d="M39 -66l-4 119h40h34t24.5 0.5t11.5 0.5q5 370 -2 588q-33 1 -67.5 1.5t-35.5 -0.5l1 113q142 -2 254 -2q-5 -518 -1 -816q-57 1 -113 0t-97 -2t-45 -2z" />
    <glyph glyph-name="braceleft.cap" horiz-adv-x="405" 
d="M374 -60q-46 -12 -99 -12q-79 0 -115.5 35t-36.5 115l6 114q0 53 -23.5 76t-84.5 19q2 61 2 131q59 -5 82.5 12.5t23.5 64.5q0 18 -4.5 62t-4.5 66q0 68 35 100.5t109 32.5q51 0 102 -12l2 -111q-56 7 -78 -6.5t-22 -55.5q0 -15 3.5 -52.5t3.5 -54.5q0 -46 -21 -72
t-75 -40q51 -15 72 -44.5t21 -78.5l-5 -99q0 -51 22 -67t82 -10z" />
    <glyph glyph-name="braceright.cap" horiz-adv-x="405" 
d="M31 -65q3 32 3 110q59 -8 83 7t24 62q0 16 -4 56.5t-4 60.5q0 94 97 119q-100 21 -100 115q0 20 4 57t4 50q0 39 -22 53t-79 9l3 111q48 11 96 11q80 0 114.5 -32.5t34.5 -96.5q0 -23 -5 -68t-5 -63q0 -47 24 -65t83 -15l2 -126q-59 4 -84 -18t-25 -74q0 -20 4.5 -66
t4.5 -68q0 -73 -36.5 -108t-114.5 -34q-48 0 -102 13z" />
    <glyph glyph-name="slash.cap" horiz-adv-x="412" 
d="M10 -50l253 786h139l-253 -786h-139z" />
    <glyph glyph-name="backslash.cap" horiz-adv-x="412" 
d="M402 -48q-60 1 -139 0l-253 786q54 -3 139 0z" />
    <glyph glyph-name="bar.cap" horiz-adv-x="319" 
d="M94 -52q1 371 -3 792l137 -2q-3 -295 0 -789q-49 2 -134 -1z" />
    <glyph glyph-name="at.cap" horiz-adv-x="883" 
d="M425 570q47 0 77.5 -33t38.5 -83q9 50 15 92l107 -2q-28 -122 -53 -264q-4 -26 -4 -38q0 -47 42 -47q44 0 78 51t34 139q0 123 -82 194t-224 71q-157 0 -244 -95t-87 -237q0 -135 80 -208t219 -73q90 0 193 39l24 -71q-119 -42 -220 -42q-177 0 -278 95.5t-101 263.5
t114.5 283.5t301.5 115.5q94 0 169.5 -28.5t122 -75.5t71 -105.5t24.5 -121.5q0 -127 -63.5 -199t-150.5 -72q-53 0 -85.5 25.5t-37.5 75.5q-52 -100 -149 -100q-66 0 -107 48t-41 132q0 58 22 114.5t61 95.5q60 60 133 60zM393 209q28 0 56 28q22 22 37 62.5t15 82.5
q0 44 -14.5 69.5t-40.5 25.5q-29 0 -56 -27q-25 -25 -40 -70.5t-15 -83.5q0 -40 15.5 -63.5t42.5 -23.5z" />
    <glyph glyph-name="copyright.cap" horiz-adv-x="800" 
d="M401 123q-91 0 -146.5 57t-55.5 160q0 104 57.5 164t148.5 60q84 0 131.5 -42t56.5 -112l-116 -13q-10 81 -75 81q-41 0 -63 -37.5t-22 -99.5t23 -95t64 -33q62 0 75 86l116 -14q-13 -84 -67.5 -123t-126.5 -39zM392 -23q-157 0 -252 99.5t-95 276.5q0 159 101 260
t262 101q158 0 252.5 -100t94.5 -267q0 -174 -95.5 -272t-267.5 -98zM398 29q133 0 216 78t83 238q0 147 -76 232t-216 85q-142 0 -222.5 -87.5t-80.5 -230.5q0 -152 80.5 -233.5t215.5 -81.5z" />
    <glyph glyph-name="Pcircle.cap" horiz-adv-x="800" 
d="M408 714q163 0 255 -101.5t92 -274.5q0 -166 -99.5 -263.5t-261.5 -97.5q-159 0 -254 99t-95 268q0 168 98 269t265 101zM402 663q-141 0 -220.5 -86.5t-79.5 -230.5q0 -147 77.5 -232t217.5 -85q142 0 221.5 87t79.5 231q0 149 -80.5 232.5t-215.5 83.5zM245 136
q2 143 0 415q68 9 121 9q116 0 171.5 -41.5t55.5 -112.5q0 -69 -57 -110.5t-157 -41.5l-24 1l3 -118q-67 1 -113 -1zM354 480q-1 -55 0 -152q8 -1 20 -1q111 0 111 79q0 75 -109 75z" />
    <glyph glyph-name="space.captab" horiz-adv-x="325" 
 />
    <glyph glyph-name="dollar.captab" 
d="M390 -122l-139 1l6 108q-191 32 -210 239q57 1 165 13q2 -69 31 -106t85 -38q46 -1 74 20t28 61q0 36 -28.5 62t-110.5 50q-121 36 -171.5 85t-50.5 137q0 76 49.5 128.5t134.5 68.5l-5 107l145 1q-5 -61 -7 -107q90 -16 141.5 -75.5t59.5 -157.5q-69 -3 -155 -11
q2 62 -25 98t-81 36q-47 0 -72.5 -22t-25.5 -58q0 -44 36 -71.5t131 -53.5q110 -31 154 -80.5t44 -124.5q0 -83 -54.5 -136.5t-150.5 -66.5z" />
    <glyph glyph-name="cent.captab" 
d="M265 -62q5 75 5 117q-95 20 -147.5 97.5t-52.5 197.5q0 121 51 199t148 96l-6 121l145 1q-6 -67 -8 -123q81 -18 129.5 -73.5t54.5 -134.5q-45 -3 -84 -7.5l-56 -6.5l-16 -3q-17 120 -97 120q-54 0 -81 -49.5t-27 -132.5q0 -189 111 -189q80 0 97 112q51 -11 155 -21
q-13 -87 -60.5 -138.5t-124.5 -66.5l4 -116h-140z" />
    <glyph glyph-name="Euro.captab" 
d="M16 370q0 20 -1 68q14 0 69 1q20 129 94 204.5t185 75.5q103 0 165.5 -59t89.5 -155l-165 -23q-26 112 -95 112q-93 0 -114 -152l161 4q-2 -27 -2 -69q-30 0 -164 -2q-2 -25 0 -62l176 4q-2 -23 0 -68q-30 0 -170 -2q20 -147 112 -147q79 0 110 115l159 -28
q-62 -213 -271 -210q-106 0 -178 68.5t-93 198.5l-66 -1q1 16 1 69q17 -1 59 -1l-1 60z" />
    <glyph glyph-name="sterling.captab" 
d="M142 263h-82l-2 105q18 -1 53 -1q-35 82 -35 134q0 97 68.5 155.5t188.5 58.5q124 0 193 -67t78 -178q-71 -9 -165 -26q-5 75 -28 111t-74 36q-45 0 -70.5 -29.5t-25.5 -80.5q0 -46 31 -116l210 2l1 -109q-55 2 -181 4v-2q0 -83 -63 -132q190 0 351 3l-3 -138
q-165 7 -525 8l1 119q79 48 79 138v5z" />
    <glyph glyph-name="yen.captab" 
d="M245 -11v15t-0.5 29.5t-0.5 35.5l-172 -4q1 31 1 87q60 -1 170 0l-1 58q-39 -1 -166 -5q0 31 -3 90q43 0 127 1l-176 386q46 1 169 7l127 -332l141 349q50 -2 165 -3l-186 -403l125 3l-1 -89q-61 0 -169 -1v-59q117 2 172 4q-1 -28 1 -86q-63 0 -172 -1q0 -23 2 -81
q-44 0 -153 -1z" />
    <glyph glyph-name="florin.captab" 
d="M517 324l-120 3q-20 -105 -33 -161q-26 -102 -76.5 -146.5t-133.5 -44.5q-33 0 -79 8q5 35 8 115q28 -4 39 -4q42 0 66.5 23.5t38.5 76.5q16 65 30 135h-83l2 106q48 -3 99 -3q7 41 16 83q20 95 67.5 139.5t129.5 44.5q42 0 88 -10l-13 -116q-25 7 -47 7q-64 0 -86 -85
q-1 -4 -4.5 -19t-6 -27.5t-3.5 -18.5l100 1z" />
    <glyph glyph-name="zero.captab" 
d="M324 -25q-129 0 -205 93t-76 277q0 163 72.5 261.5t208.5 98.5q143 0 212.5 -96t69.5 -260q0 -184 -73.5 -279t-208.5 -95zM327 97q118 0 118 254q0 237 -119 237q-122 0 -122 -240q0 -251 123 -251z" />
    <glyph glyph-name="one.captab" 
d="M114 -3l-2 127l161 -3q1 244 -2 396l-131 -69l-45 130l229 121l99 -11q0 -340 4 -568l147 1l-2 -124h-458z" />
    <glyph glyph-name="two.captab" 
d="M581 -2l-512 7l-4 151q359 149 359 330q0 50 -25.5 79t-72.5 29q-96 0 -100 -168q-63 11 -160 19q5 127 72 197t196 70q122 0 190 -61t68 -160q0 -108 -86 -202.5t-235 -156.5q87 0 164.5 1.5t111.5 3.5l34 2v-141z" />
    <glyph glyph-name="three.captab" 
d="M326 -25q-126 0 -204.5 59.5t-86.5 174.5q63 3 170 15q15 -129 123 -129q50 0 82 26.5t32 74.5q0 68 -69 88q-50 15 -140 8q-1 48 -4 109q103 -6 152 13q26 10 41 33t15 52q0 45 -28.5 73t-80.5 28q-94 0 -117 -125l-163 27q17 101 90.5 157t192.5 56q123 0 195 -58
t72 -146q0 -56 -38 -99.5t-102 -59.5q72 -14 111.5 -61t39.5 -104q0 -102 -79.5 -157t-203.5 -55z" />
    <glyph glyph-name="four.captab" 
d="M390 -1q0 47 2 135l-357 -4q-2 34 -2 128l280 448l228 -6q-2 -353 -1 -449q50 0 76 1q-1 -40 -1 -117h-75l2 -135zM393 598l-210 -348h209q1 170 1 348z" />
    <glyph glyph-name="five.captab" 
d="M326 -22q-111 0 -188 51.5t-95 154.5l165 22q25 -114 121 -114q49 0 81 35.5t32 106.5q0 64 -28.5 99t-81.5 35q-78 0 -114 -85q-70 6 -161 11q6 173 9 400q215 0 503 6q-2 -40 -2 -127q-163 1 -356 -4q-4 -150 -4 -176q64 78 176 78q110 0 168 -65.5t59 -173.5
q0 -122 -77.5 -188t-206.5 -66z" />
    <glyph glyph-name="six.captab" 
d="M333 -26q-138 0 -214.5 94.5t-75.5 268.5q0 175 78 274.5t219 99.5q212 0 254 -193q-49 -4 -91.5 -9.5t-60.5 -8.5l-18 -3q-20 96 -90 96q-60 0 -93 -63t-33 -182q71 88 190 88q102 0 158.5 -56t56.5 -150q0 -123 -78.5 -189.5t-201.5 -66.5zM350 333q-74 0 -137 -76
q21 -166 132 -166q48 0 75 34t27 93q0 51 -24 83t-73 32z" />
    <glyph glyph-name="seven.captab" 
d="M196 -8q-5 175 59 319.5t180 248.5l-377 -5l1 139l532 6l3 -154q-119 -110 -175.5 -245.5t-53.5 -313.5z" />
    <glyph glyph-name="eight.captab" 
d="M333 -25q-140 0 -220 55t-80 153q0 63 40 108t112 62q-61 23 -97 69.5t-36 102.5q0 84 72 136t203 52q134 0 205 -53.5t71 -134.5q0 -59 -37 -102.5t-101 -65.5q72 -21 112 -67.5t40 -105.5q0 -99 -80.5 -154t-203.5 -55zM327 85q53 0 87.5 28.5t34.5 74.5q0 45 -34.5 77
t-98.5 43q-54 -10 -86 -41t-32 -74q0 -49 35.5 -78.5t93.5 -29.5zM339 400q46 10 74.5 39t28.5 70q-1 43 -30.5 70t-86.5 27q-54 0 -85 -26.5t-31 -69.5q0 -84 130 -110z" />
    <glyph glyph-name="nine.captab" 
d="M318 -23q-113 0 -185 55t-91 163q46 2 87 6t59 7l18 3q23 -113 113 -113q59 0 91 53.5t34 185.5q-67 -69 -174 -69q-109 0 -169 55t-60 155q0 109 77 172.5t198 63.5q137 0 212.5 -95t75.5 -269q0 -190 -75 -281.5t-211 -91.5zM314 362q71 0 126 65q-17 170 -123 170
q-51 0 -80.5 -35t-29.5 -89q0 -55 29.5 -83t77.5 -28z" />
    <glyph glyph-name="plus.captab" 
d="M263 97q2 112 2 174l-163 -1l-1 120q5 0 165 -3l-1 170l121 -2q-2 -120 -2 -168l167 1l-3 -118q-52 1 -164 1l2 -173z" />
    <glyph glyph-name="minus.captab" 
d="M532 387l1 -118q-90 2 -193.5 2t-161.5 -1h-59l2 118q94 -2 196.5 -2h158.5z" />
    <glyph glyph-name="multiply.captab" 
d="M324 254l-141 -152q-24 27 -77 75l147 152l-145 151l77 77l141 -152l143 152l76 -74l-148 -153l148 -152l-79 -77z" />
    <glyph glyph-name="divide.captab" 
d="M109 388q47 -1 433 -1l-1 -118q-56 1 -119.5 1.5t-116.5 0.5t-95.5 -0.5t-71 -1t-29.5 -0.5v119zM323 601q34 0 54 -21t20 -55q0 -35 -20.5 -56t-54.5 -21q-35 0 -54 20.5t-19 56.5q0 37 19.5 56.5t54.5 19.5zM325 211q35 0 54.5 -20.5t19.5 -59.5q0 -33 -21 -52.5
t-54 -19.5q-35 0 -54.5 19.5t-19.5 52.5q0 40 20.5 60t54.5 20z" />
    <glyph glyph-name="equal.captab" 
d="M124 176q0 23 -3 106q191 -1 409 2l-1 -108q-183 2 -405 0zM530 373l-409 2l3 108h405z" />
    <glyph glyph-name="less.captab" 
d="M540 189l-3 -132l-433 199l2 134l430 201q-4 -53 -4 -137l-315 -130q193 -84 323 -135z" />
    <glyph glyph-name="greater.captab" 
d="M114 56l-1 131l324 137l-151 64.5l-122 49.5l-43 16q1 89 -3 137l425 -200l2 -130z" />
    <glyph glyph-name="period.captab" horiz-adv-x="325" 
d="M162 -12q-45 0 -71 27.5t-26 71.5t27.5 70.5t69.5 26.5q43 0 70.5 -27.5t27.5 -67.5q-1 -48 -27 -74.5t-71 -26.5z" />
    <glyph glyph-name="comma.captab" horiz-adv-x="325" 
d="M120 -167l-64 57q52 45 78 106q-29 7 -47 32t-18 57q0 41 27 69.5t69 28.5q44 0 72.5 -30t28.5 -82q0 -120 -146 -238z" />
    <glyph glyph-name="colon.captab" horiz-adv-x="325" 
d="M163 -16q-42 0 -68.5 27t-26.5 70t27 70.5t70 27.5q44 0 69 -28t25 -70q0 -47 -26 -72t-70 -25zM161 285q-42 0 -68 28t-26 73q0 41 26.5 67.5t68.5 26.5q44 0 69.5 -27t25.5 -67q0 -49 -27 -75t-69 -26z" />
    <glyph glyph-name="semicolon.captab" horiz-adv-x="325" 
d="M117 -167q-16 15 -32 28t-25 19l-8 5q53 48 80 110q-29 5 -48 28t-19 57q0 43 25.5 72t69.5 29q46 0 73.5 -31.5t27.5 -80.5q0 -61 -42 -125.5t-102 -110.5zM159 286q-40 0 -66.5 26.5t-26.5 72.5q0 43 26.5 69t69.5 26q40 0 66.5 -27t26.5 -68q0 -46 -26.5 -72.5
t-69.5 -26.5z" />
    <glyph glyph-name="parenleft.captab" horiz-adv-x="390" 
d="M204 -83q-123 207 -123 414q0 120 34 233t97 200l123 -46q-100 -179 -100 -381q0 -165 102 -377q-34 -9 -67.5 -20t-49.5 -17z" />
    <glyph glyph-name="parenright.captab" horiz-adv-x="390" 
d="M188 -89q-57 23 -134 45q102 213 102 382q0 202 -99 382l125 48q61 -87 94.5 -201t33.5 -230q0 -205 -122 -426z" />
    <glyph glyph-name="bracketleft.captab" horiz-adv-x="390" 
d="M342 -66l-256 3q2 219 -4 809q106 -1 255 2q0 -48 2 -111q-51 0 -103 -3q-3 -318 1 -579q51 -2 108 -2q-2 -47 -3 -119z" />
    <glyph glyph-name="bracketright.captab" horiz-adv-x="390" 
d="M51 -66l-4 119h40h34t24.5 0.5t11.5 0.5q5 370 -2 588q-33 1 -67 1.5t-35 -0.5l1 113q141 -2 254 -2q-6 -518 -2 -816q-56 1 -112.5 0t-97.5 -2t-45 -2z" />
    <glyph glyph-name="braceleft.captab" horiz-adv-x="390" 
d="M366 -60q-45 -12 -99 -12q-78 0 -114.5 35t-36.5 115l6 114q0 53 -23.5 76t-84.5 19l2 131q59 -5 82.5 12.5t23.5 64.5q0 18 -4.5 62t-4.5 66q0 68 35 100.5t109 32.5q49 0 102 -12l1 -111q-56 7 -77.5 -6.5t-21.5 -55.5q0 -15 3.5 -52.5t3.5 -54.5q0 -46 -21.5 -72
t-74.5 -40q50 -15 71 -44.5t21 -78.5l-4 -99q0 -51 22 -67t82 -10z" />
    <glyph glyph-name="braceright.captab" horiz-adv-x="390" 
d="M24 -65l2 110q59 -8 83 7t24 62q0 16 -4 56.5t-4 60.5q0 94 97 119q-100 21 -100 115q0 19 4 55.5t4 51.5q0 40 -21.5 53.5t-78.5 8.5l2 111q49 11 97 11q80 0 114.5 -32.5t34.5 -96.5q0 -23 -5 -68t-5 -63q0 -47 23.5 -65t82.5 -15l2 -126q-59 4 -83.5 -18t-24.5 -74
q0 -20 4.5 -66t4.5 -68q0 -73 -37 -108t-115 -34q-49 0 -101 13z" />
    <glyph glyph-name="section.captab" 
d="M331 -203q-249 0 -294 192q42 6 80 13.5t55 11.5l17 4q23 -104 140 -104q45 0 75.5 22t30.5 58q0 29 -34 46.5t-133 29.5q-107 13 -161.5 49t-54.5 112q0 45 36 82.5t88 49.5q-53 21 -84 64.5t-31 93.5q0 85 70 139.5t189 54.5q117 0 185 -52.5t88 -143.5q-50 -5 -89 -10
t-53 -8l-14 -3q-17 99 -113 99q-49 0 -76.5 -20.5t-27.5 -54.5t35.5 -54.5t115.5 -31.5q72 -10 120 -25.5t72.5 -36.5t33.5 -43.5t9 -52.5q0 -39 -27.5 -78.5t-71.5 -63.5q88 -32 91 -136q0 -91 -77.5 -147t-189.5 -56zM208 263q0 -37 41.5 -58t162.5 -35q41 34 41 73
q0 41 -41.5 60.5t-150.5 29.5q-53 -30 -53 -70z" />
    <glyph glyph-name="numbersign.captab" 
d="M385 77q0 52 1 124l-122 -1q0 -9 3 -111q-47 3 -109 3v107q-64 -2 -98 -2q2 42 -1 106q39 -1 100 -1q0 102 -1 157q-28 0 -94 -2q1 41 -1 106q47 -1 94 -1l-2 109q44 -2 108 1q-1 -44 -1 -110l122 1q0 43 -2 123q47 -3 109 1q-1 -60 -1 -122q31 0 99 2l-2 -104h-97
l1 -160q31 0 101 2l-1 -105q-44 1 -99 1l3 -124q-42 2 -110 0zM262 461v-160q79 0 124 1q0 100 -1 161z" />
    </font>
</defs>
</svg>
